<?xml version="1.0" encoding="UTF-8" standalone="no"?>
<svg width="540px" height="540px" viewBox="0 0 540 540" version="1.1" xmlns="http://www.w3.org/2000/svg" xmlns:xlink="http://www.w3.org/1999/xlink">
    <!-- Generator: Sketch 42 (36781) - http://www.bohemiancoding.com/sketch -->
    <title>about</title>
    <desc>Created with Sketch.</desc>
    <defs></defs>
    <g id="Pages" stroke="none" stroke-width="1" fill="none" fill-rule="evenodd">
        <g id="about">
            <rect id="Card-Copy-2" fill="#23367F" x="0" y="0" width="540" height="540"></rect>
            <g id="Group-4-Copy" transform="translate(139.000000, 100.000000)">
                <g id="Group-3" transform="translate(62.463576, 0.000000)">
                    <path d="M45.0868622,218.13209 L45.0868622,190.573733 C51.3377355,197.5169 59.5998892,202.677944 68.1194939,202.677944 C76.6390986,202.677944 84.9012524,197.5169 91.1521257,190.573733 L91.1521257,218.13209 C85.0242665,223.568928 76.9571779,226.871434 68.1194939,226.871434 C59.2809313,226.871434 51.2147214,223.568928 45.0868622,218.13209" id="Fill-1" fill="#FFFFFF"></path>
                    <path d="M23.746465,37.7681943 C11.2526264,60.3780625 11.1032521,86.8578352 23.2992209,117.203121" id="Stroke-3" stroke="#20DADA" stroke-width="3.51330406" stroke-linecap="round"></path>
                    <path d="M112.492347,37.7681943 C112.712015,64.5571377 128.967449,80.8061689 112.939591,117.203121" id="Stroke-5" stroke="#20DADA" stroke-width="3.51330406" stroke-linecap="round"></path>
                    <path d="M33.1938595,148.876435 C15.6186602,152.170158 6.83193918,140.751919 6.83193918,125.381214 C6.83193918,115.060883 24.1857132,107.595112 31.4250926,124.519576 L30.1167498,106.497205 C30.1167498,89.3698476 38.4641348,79.7082614 45.4935116,79.7082614 C55.5982408,79.7082614 59.3325972,86.2957065 68.1193182,86.2957065 C76.9060392,86.2957065 80.6403956,79.7082614 90.7451248,79.7082614 C97.7745016,79.7082614 106.121887,89.3698476 106.121887,106.497205 L104.813544,124.519576 C112.052923,107.595112 129.406697,115.060883 129.406697,125.381214 C129.406697,140.751919 120.619976,152.170158 103.044777,148.876435 L102.167862,160.953418 C102.167862,175.226215 85.6927602,197.184366 68.1193182,197.184366 C50.5458762,197.184366 34.0707743,175.226215 34.0707743,160.953418 L33.1938595,148.876435 Z" id="Fill-7" fill="#FFFFFF"></path>
                    <path d="M0,242.289481 L45.0873015,218.483332 L45.0873015,218.132002 C51.2142821,223.569718 59.2813706,226.871346 68.1190546,226.871346 C76.9576173,226.871346 85.0247058,223.569718 91.1516864,218.132002 L91.1516864,218.483332 L136.238109,242.289481 C120.839381,263.169925 96.0625847,276.716347 68.1190546,276.716347 C40.1764031,276.716347 15.3987286,263.169925 0,242.289481" id="Fill-9" fill="#20DADA"></path>
                    <path d="M6.79336548,130.440196 C17.449022,125.391578 26.4308083,126.848721 33.2695132,135.100594 C34.3906988,136.453216 32.3609663,138.134332 31.2397807,136.78171 C25.2981999,129.612813 17.6818701,128.196952 7.92245913,132.821338 C6.33557731,133.574064 5.20560499,131.192922 6.79336548,130.440196" id="Fill-11" fill="#23367F"></path>
                    <path d="M128.316177,132.82125 C118.557645,128.196864 110.941315,129.612725 104.998856,136.781622 C103.878549,138.134244 101.847938,136.453128 102.969123,135.100506 C109.808707,126.848633 118.789614,125.391491 129.445271,130.440108 C131.033031,131.192834 129.903938,133.573976 128.316177,132.82125" id="Fill-13" fill="#23367F"></path>
                    <path d="M37.1890937,110.269966 C47.1435699,112.428013 58.0285599,110.559814 68.1192303,110.559814 C78.2116581,110.559814 89.0957694,112.428013 99.0493669,110.269966 C101.340065,109.773712 102.0843,113.207089 99.7944809,113.703343 C89.5368628,115.927264 78.5095279,114.073118 68.1192303,114.073118 C57.7289327,114.073118 46.7007192,115.926386 36.4439798,113.703343 C34.1541603,113.207089 34.8992742,109.773712 37.1890937,110.269966" id="Fill-15" fill="#23367F"></path>
                    <path d="M45.7132675,121.538538 C45.7132675,116.626939 47.901161,112.645487 50.6004417,112.645487 C53.3006011,112.645487 55.4884946,116.626939 55.4884946,121.538538 C55.4884946,126.450137 53.3006011,130.431589 50.6004417,130.431589 C47.901161,130.431589 45.7132675,126.450137 45.7132675,121.538538" id="Fill-17" fill="#23367F"></path>
                    <path d="M80.7503175,121.538538 C80.7503175,116.626939 82.938211,112.645487 85.6374917,112.645487 C88.3376511,112.645487 90.5255446,116.626939 90.5255446,121.538538 C90.5255446,126.450137 88.3376511,130.431589 85.6374917,130.431589 C82.938211,130.431589 80.7503175,126.450137 80.7503175,121.538538" id="Fill-19" fill="#23367F"></path>
                    <path d="M59.2820735,168.420067 C68.6434461,168.73363 75.9698141,166.703818 81.4404266,162.522108 C83.3014541,161.100098 85.4366273,163.89054 83.5747211,165.313428 C77.2860649,170.121385 69.0889329,172.263622 59.1634528,171.931615 C56.8217917,171.853444 56.9395337,168.341896 59.2820735,168.420067" id="Fill-21" fill="#23367F"></path>
                    <path d="M62.9022905,128.885471 C62.9022905,124.823214 65.2378009,121.529491 68.1189667,121.529491 C71.0010112,121.529491 73.3365217,124.823214 73.3365217,128.885471 L73.3365217,146.891155 C73.3365217,150.953413 71.0010112,154.247135 68.1189667,154.247135 C65.2378009,154.247135 62.9022905,150.953413 62.9022905,146.891155 L62.9022905,128.885471 Z" id="Stroke-23" fill="#FC2C6A"></path>
                    <path d="M61.9687014,8.7834358 C45.2062737,23.205549 35.1015445,43.4808267 31.6545139,69.6075123" id="Stroke-25" stroke="#20DADA" stroke-width="3.51330406" stroke-linecap="round"></path>
                    <path d="M93.1615609,0.000175665203 C74.2701108,19.9820925 67.0210659,41.0619168 68.1194061,56.6522036" id="Stroke-27" stroke="#20DADA" stroke-width="3.51330406" stroke-linecap="round"></path>
                    <path d="M100.849942,19.1037665 C94.3258015,31.0094756 93.5200591,44.1114647 98.4335935,58.4088556" id="Stroke-29" stroke="#20DADA" stroke-width="3.51330406" stroke-linecap="round"></path>
                    <path d="M22.9432708,130.10652 C20.0498036,133.311532 20.0181714,137.816466 22.1234697,140.34868 C23.2472914,141.699545 21.2201948,143.384175 20.0972519,142.033309 C17.0403516,138.358393 17.3382215,132.382263 20.9855894,128.341085 C22.16301,127.036771 24.1206914,128.802206 22.9432708,130.10652" id="Fill-31" fill="#23367F"></path>
                    <path d="M115.252783,128.341261 C118.900151,132.382439 119.198021,138.357691 116.142,142.033485 C115.018178,143.38435 112.99196,141.699721 114.114903,140.348856 C116.22108,137.816642 116.188569,133.311708 113.295102,130.106696 C112.11856,128.802382 114.075363,127.036947 115.252783,128.341261" id="Fill-33" fill="#23367F"></path>
                </g>
                <g id="Group-21" transform="translate(107.576159, 293.163265)">
                    <ellipse id="Oval-Copy" fill="#FFFFFF" cx="23.4238411" cy="23.4183673" rx="23.4238411" ry="23.4183673"></ellipse>
                    <path d="M34.9606881,27.0424541 C34.7198974,27.2829493 34.3000391,27.2827147 34.0592484,27.0424541 C33.8109477,26.7939815 33.8109477,26.3899496 34.0592484,26.1417116 C34.1796438,26.0211121 34.3397016,25.9549465 34.5100856,25.9549465 C34.680235,25.9549465 34.8402928,26.0211121 34.9606881,26.141477 C35.2092236,26.3899496 35.2089889,26.7942162 34.9606881,27.0424541 L34.9606881,27.0424541 Z M27.3973719,34.603858 L26.4961669,33.7028809 L27.3973719,32.8019037 L28.298577,33.7028809 L27.3973719,34.603858 Z M26.7348454,20.1211194 L28.0092057,20.1211194 L28.0092057,18.8468468 L26.7348454,18.8468468 L26.7348454,20.1211194 Z M13.1374453,20.3473022 L12.2360056,19.4463251 L13.1374453,18.5453479 L14.0384156,19.4463251 L13.1374453,20.3473022 Z M19.7990871,12.7858983 C19.5507863,12.5376603 19.5507863,12.1333938 19.7990871,11.8851558 C19.9194824,11.7647909 20.0795402,11.6986253 20.2499243,11.6986253 C20.4200737,11.6986253 20.5803661,11.7647909 20.7005268,11.8849211 C20.9488276,12.1333938 20.9488276,12.5376603 20.7005268,12.7858983 C20.4597361,13.0266281 20.0401125,13.0266281 19.7990871,12.7858983 L19.7990871,12.7858983 Z M35.8733929,25.229003 C35.5089212,24.8650927 35.0247582,24.6644845 34.5100856,24.6644845 C34.2216531,24.6644845 33.9440162,24.7294768 33.6905523,24.8486686 L29.2999941,20.4592205 L29.3002288,17.5563847 L26.3966589,17.5563847 L21.9929581,13.1540319 C22.3276243,12.4398198 22.2025352,11.5618364 21.6132316,10.9724471 C21.2489945,10.6085368 20.7648315,10.4081633 20.2499243,10.4081633 C19.735017,10.4081633 19.250854,10.6085368 18.886617,10.9726818 C18.1349088,11.7242 18.1349088,12.9468541 18.886617,13.6983723 C19.250854,14.0625173 19.735017,14.2628908 20.2499243,14.2628908 C20.5442241,14.2628908 20.8274934,14.1953175 21.0849471,14.0714332 L23.3170723,16.3029941 C20.2595465,15.3947434 16.8772114,15.8762031 14.1639741,17.7469038 L13.1374453,16.7206345 L10.410596,19.4463251 L13.1374453,22.1720156 L15.8638252,19.4463251 L15.0952193,18.6781482 C18.2318352,16.6317099 22.3158899,16.6406259 25.444057,18.704192 L25.444057,21.4115815 L28.1479067,21.4115815 C30.2040154,24.5373153 30.2098826,28.6137677 28.1659778,31.7453672 L27.3973719,30.9771903 L24.6707574,33.7028809 L27.3973719,36.4285714 L30.1239865,33.7028809 L29.0974577,32.6766116 C30.9683968,29.9638257 31.4499783,26.5823457 30.5417326,23.525593 L32.7743272,25.7573885 C32.4302734,26.4746508 32.5530157,27.3613156 33.1467783,27.9549281 C33.5107807,28.3188384 33.9951784,28.5196813 34.5100856,28.5196813 C35.0249929,28.5196813 35.5091559,28.3190731 35.8733929,27.9551628 C36.6251012,27.2034099 36.6248665,25.9805212 35.8733929,25.229003 L35.8733929,25.229003 Z" id="Fill-1" fill="#23367F"></path>
                </g>
                <g id="Group-22" transform="translate(0.000000, 220.306122)">
                    <ellipse id="Combined-Shape" fill="#20DADA" cx="23.4238411" cy="23.4183673" rx="23.4238411" ry="23.4183673"></ellipse>
                    <path d="M19.9309799,26.43338 C19.9536425,26.5013242 19.9678064,26.5805914 19.9734721,26.6711838 C19.9791377,26.7617762 19.9819705,26.8467052 19.9819705,26.9259736 C19.9819705,27.1298064 19.9593082,27.3223124 19.913983,27.5034971 C19.8686577,27.6846819 19.7950052,27.8432162 19.6930234,27.9791047 C19.5910415,28.1149933 19.4579005,28.2254011 19.2935964,28.3103315 C19.1292923,28.3952618 18.9224989,28.4377264 18.6732099,28.4377264 C18.4352522,28.4377264 18.2001309,28.3867689 17.9678389,28.2848525 C17.7355469,28.1829361 17.4494354,28.0357257 17.1094959,27.8432168 L13.4551642,25.7369545 C13.16055,25.3519369 13.013245,24.8423624 13.013245,24.2082157 C13.013245,23.7326057 13.0812319,23.3645797 13.2172077,23.1041266 C13.3531835,22.8436735 13.5514786,22.6398437 13.8120989,22.4926311 L18.4862441,19.7748732 C19.0414787,19.9220858 19.4182393,20.1230847 19.6165374,20.3778758 C19.8148354,20.6326668 19.913983,20.9072709 19.913983,21.2016961 C19.913983,21.5980378 19.8148354,21.9066134 19.6165374,22.1274324 C19.4182393,22.3482513 19.1264623,22.5549121 18.7411975,22.7474209 L15.7497446,24.2591737 L19.9309799,26.43338 Z M22.9054359,30.3061849 C22.7467974,30.328833 22.5938269,30.3429878 22.4465198,30.3486499 C22.2992127,30.3543119 22.1632389,30.3571429 22.0385944,30.3571429 C21.5626791,30.3571429 21.1972496,30.255228 20.9422949,30.0513951 C20.6873403,29.8475622 20.5598648,29.5191698 20.5598648,29.0662079 C20.5598648,28.7604586 20.6051894,28.4518829 20.69584,28.1404716 C20.7864905,27.8290603 20.8658086,27.5544563 20.9337965,27.3166513 L23.9252494,16.5305498 C24.0952191,16.5079017 24.2538552,16.4937469 24.4011623,16.4880848 C24.5484694,16.4824228 24.6844432,16.4795918 24.8090877,16.4795918 C25.2623404,16.4795918 25.6221044,16.5758448 25.8883903,16.7683536 C26.1546763,16.9608624 26.2878173,17.2722691 26.2878173,17.7025829 C26.2878173,18.0309803 26.2424927,18.3423869 26.1518421,18.6368121 C26.0611916,18.9312374 25.976208,19.2256582 25.8968888,19.5200834 L22.9054359,30.3061849 Z M26.9167023,21.7792196 C26.8940396,21.7112754 26.8798757,21.6320082 26.87421,21.5414158 C26.8685444,21.4508235 26.8657116,21.3658944 26.8657116,21.286626 C26.8657116,21.0827932 26.8883739,20.8902873 26.9336991,20.7091025 C26.9790244,20.5279177 27.0526769,20.3693834 27.1546587,20.2334949 C27.2566406,20.0976063 27.3897816,19.9871985 27.5540857,19.9022681 C27.7183898,19.8173378 27.9251832,19.7748732 28.1744722,19.7748732 C28.4124299,19.7748732 28.6475512,19.8258307 28.8798432,19.9277471 C29.1121352,20.0296635 29.3982467,20.1768739 29.7381862,20.3693828 L33.3925179,22.4756451 C33.6871322,22.8606627 33.8344371,23.3702372 33.8344371,24.0043839 C33.8344371,24.4799939 33.7664502,24.8480199 33.6304744,25.108473 C33.4944986,25.3689261 33.2962035,25.5727559 33.0355832,25.7199685 L28.361438,28.4377264 C27.8062035,28.2905138 27.4294428,28.0895149 27.2311447,27.8347239 C27.0328467,27.5799328 26.9336991,27.3053287 26.9336991,27.0109035 C26.9336991,26.6145618 27.0328467,26.3059862 27.2311447,26.0851672 C27.4294428,25.8643483 27.7212199,25.6576875 28.1064847,25.4651787 L31.0979376,23.9534259 L26.9167023,21.7792196 Z" id="&lt;/&gt;" fill="#FFFFFF"></path>
                </g>
                <g id="Group-20" transform="translate(215.152318, 220.306122)">
                    <ellipse id="Oval" fill="#FC2C6A" cx="23.4238411" cy="23.4183673" rx="23.4238411" ry="23.4183673"></ellipse>
                    <path d="M21.3438691,22.9919214 C27.1911659,14.7986663 30.6891463,11.3616749 33.086236,13.7582446 C35.4833256,16.1546387 32.0455885,19.6518604 23.8503804,25.497889 C23.5786704,24.9784683 23.2242355,24.4910066 22.7877784,24.0544685 C22.3511455,23.6179304 21.8634024,23.2639236 21.3438691,22.9919214 L21.3438691,22.9919214 Z M15.7545826,25.4055241 C17.3235452,23.8369018 19.8672914,23.8369018 21.436254,25.4055241 C23.0053922,26.9741464 23.0053922,29.5175166 21.436254,31.0863145 C19.3784945,33.1438033 17.1782936,32.8033176 13.013245,33.8265306 C14.0354506,29.6690581 13.6977012,27.4698613 15.7449225,25.4150065 L15.7545826,25.4055241 Z" id="Fill-1" fill="#FFFFFF"></path>
                </g>
                <path d="M132.232876,246.109589 L125.919333,246.109589 C125.475084,246.109589 125.109589,246.472124 125.109589,246.919333 L125.109589,257.080667 C125.109589,257.524916 125.472124,257.890411 125.919333,257.890411 L136.080667,257.890411 C136.524916,257.890411 136.890411,257.527876 136.890411,257.080667 L136.890411,250.767123 C136.890411,250.313191 136.522426,249.945205 136.068493,249.945205 L133.86812,249.945205 C133.418933,249.945205 133.054795,249.584837 133.054795,249.13188 L133.054795,246.931507 C133.054795,246.477574 132.686809,246.109589 132.232877,246.109589 Z M121,243.075287 C121,242.481422 121.474658,242 122.075287,242 L139.924713,242 C140.518578,242 141,242.474658 141,243.075287 L141,260.924713 C141,261.518578 140.525342,262 139.924713,262 L122.075287,262 C121.481422,262 121,261.525342 121,260.924713 L121,243.075287 Z" id="Combined-Shape-Copy-2" fill="#FFFFFF" transform="translate(131.000000, 252.000000) rotate(-45.000000) translate(-131.000000, -252.000000) "></path>
            </g>
        </g>
    </g>
</svg>