<?xml version="1.0" encoding="UTF-8" standalone="no"?>
<svg width="540px" height="540px" viewBox="0 0 540 540" version="1.1" xmlns="http://www.w3.org/2000/svg" xmlns:xlink="http://www.w3.org/1999/xlink">
    <!-- Generator: Sketch 42 (36781) - http://www.bohemiancoding.com/sketch -->
    <title>experience</title>
    <desc>Created with Sketch.</desc>
    <defs></defs>
    <g id="Pages" stroke="none" stroke-width="1" fill="none" fill-rule="evenodd">
        <g id="experience">
            <rect id="Card-Copy-2" fill="#23367F" x="0" y="0" width="540" height="540"></rect>
            <g id="Group-6-Copy" transform="translate(170.000000, 130.000000)">
                <path d="M50.4372666,41.3636364 L53.6260173,41.3636364 L53.6260173,38.9772727 L50.4372666,38.9772727 L50.4372666,41.3636364 Z M56.814768,41.3636364 L60.0035187,41.3636364 L60.0035187,38.9772727 L56.814768,38.9772727 L56.814768,41.3636364 Z M63.1922693,41.3636364 L66.38102,41.3636364 L66.38102,38.9772727 L63.1922693,38.9772727 L63.1922693,41.3636364 Z M69.5697707,41.3636364 L72.7585214,41.3636364 L72.7585214,38.9772727 L69.5697707,38.9772727 L69.5697707,41.3636364 Z M75.947272,41.3636364 L79.1360227,41.3636364 L79.1360227,38.9772727 L75.947272,38.9772727 L75.947272,41.3636364 Z M82.3247734,41.3636364 L85.5135241,41.3636364 L85.5135241,38.9772727 L82.3247734,38.9772727 L82.3247734,41.3636364 Z M88.7022747,41.3636364 L91.8910254,41.3636364 L91.8910254,38.9772727 L88.7022747,38.9772727 L88.7022747,41.3636364 Z M95.0797761,41.3636364 L98.2685268,41.3636364 L98.2685268,38.9772727 L95.0797761,38.9772727 L95.0797761,41.3636364 Z M101.457277,41.3636364 L104.646028,41.3636364 L104.646028,38.9772727 L101.457277,38.9772727 L101.457277,41.3636364 Z M107.834779,41.3636364 L111.023529,41.3636364 L111.023529,38.9772727 L107.834779,38.9772727 L107.834779,41.3636364 Z M117.247971,41.6635227 C116.22199,41.5442045 115.18166,41.4598864 114.154085,41.4121591 L114.266489,39.0281818 C115.348273,39.0782955 116.445203,39.1673864 117.525392,39.2938636 L117.247971,41.6635227 Z M123.338485,42.8177273 C122.342,42.5544318 121.323991,42.3245455 120.313955,42.1328409 L120.758785,39.7886364 C121.825422,39.9898864 122.899234,40.2332955 123.949928,40.5109091 L123.338485,42.8177273 Z M129.208975,44.8214773 C128.261118,44.4205682 127.284564,44.0482955 126.307211,43.715 L127.081281,41.4567045 C128.112044,41.8082955 129.142011,42.20125 130.141684,42.6244318 L129.208975,44.8214773 Z M134.736674,47.6357955 C133.850998,47.1036364 132.938218,46.5977273 132.02225,46.1307955 L133.109614,44.0053409 C134.075008,44.4969318 135.038011,45.0306818 135.97072,45.5922727 L134.736674,47.6357955 Z M139.813165,51.1994318 C139.014383,50.5503409 138.182119,49.9203409 137.337897,49.3285227 L138.71464,47.3764773 C139.603505,48.0009091 140.482005,48.6651136 141.323038,49.3492045 L139.813165,51.1994318 Z M144.335611,55.4352273 C143.633288,54.6795455 142.897484,53.9397727 142.148128,53.2373864 L143.785551,51.4985227 C144.574767,52.2375 145.349633,53.0170455 146.090221,53.8132955 L144.335611,55.4352273 Z M148.218712,60.2596591 C147.631982,59.4164773 147.007784,58.5828409 146.362859,57.7802273 L148.226684,56.2855682 C148.907482,57.1311364 149.565959,58.0109091 150.183779,58.9002273 L148.218712,60.2596591 Z M151.38275,65.5772727 C150.921975,64.6609091 150.421341,63.7477273 149.895197,62.8631818 L151.951942,61.6453409 C152.506784,62.5768182 153.034522,63.5401136 153.520807,64.5073864 L151.38275,65.5772727 Z M153.762355,71.2838636 C153.434711,70.3086364 153.068004,69.335 152.674194,68.3892045 L154.881606,67.4720455 C155.297738,68.4695455 155.683577,69.4964773 156.029557,70.525 L153.762355,71.2838636 Z M155.308102,77.2736364 C155.124749,76.2665909 154.900739,75.25 154.64245,74.2517045 L156.95828,73.6559091 C157.230121,74.7098864 157.466886,75.7829545 157.660602,76.8456818 L155.308102,77.2736364 Z M155.992886,83.4248864 C155.950635,82.3931818 155.871713,81.3543182 155.75931,80.3369318 L158.136524,80.0744318 C158.255304,81.1467045 158.338212,82.24125 158.382855,83.3270455 L155.992886,83.4248864 Z M158.191529,89.8465909 L155.811127,89.6127273 C155.913167,88.5857955 155.979334,87.5461364 156.009627,86.5223864 L158.399595,86.5907955 C158.368505,87.6702273 158.298353,88.7655682 158.191529,89.8465909 L158.191529,89.8465909 Z M157.088222,96.2786364 L154.765217,95.7106818 C155.009156,94.7155682 155.222005,93.6957955 155.39659,92.68 L157.753873,93.0832955 C157.568926,94.1539773 157.345713,95.2294318 157.088222,96.2786364 L157.088222,96.2786364 Z M155.080903,102.493523 L152.86233,101.603409 C153.248169,100.644886 153.604512,99.6640909 153.919401,98.6880682 L156.196169,99.4206818 C155.863741,100.449205 155.488266,101.483295 155.080903,102.493523 L155.080903,102.493523 Z M152.211028,108.364773 L150.141528,107.169205 C150.6597,106.274318 151.150768,105.353977 151.600382,104.434432 L153.750397,105.480455 C153.27607,106.450909 152.757898,107.421364 152.211028,108.364773 L152.211028,108.364773 Z M148.541573,113.769091 L146.661007,112.295114 C147.29796,111.484545 147.914186,110.642955 148.49135,109.793409 L150.471564,111.132159 C149.862513,112.027841 149.213602,112.914773 148.541573,113.769091 L148.541573,113.769091 Z M144.149866,118.605455 L142.494904,116.8825 C143.237086,116.172955 143.964918,115.426023 144.658472,114.662386 L146.43062,116.265227 C145.699599,117.069432 144.931907,117.857727 144.149866,118.605455 L144.149866,118.605455 Z M139.125989,122.779205 L137.730114,120.842273 C138.565566,120.241705 139.391453,119.60375 140.182263,118.946705 L141.712863,120.779432 C140.878208,121.473864 140.008476,122.146023 139.125989,122.779205 L139.125989,122.779205 Z M133.569591,126.208409 L132.457514,124.094886 C133.371889,123.616818 134.276697,123.100568 135.150414,122.562841 L136.408376,124.59125 C135.487625,125.16 134.532594,125.704091 133.569591,126.208409 L133.569591,126.208409 Z M127.584306,128.819091 L126.782335,126.571136 C127.752513,126.226705 128.721893,125.844091 129.663372,125.433636 L130.621591,127.619545 C129.627498,128.053068 128.606301,128.456364 127.584306,128.819091 L127.584306,128.819091 Z M121.279349,130.560341 L120.807414,128.220909 C121.813465,128.018864 122.828284,127.77625 123.824769,127.502614 L124.461722,129.801477 C123.411826,130.091818 122.341203,130.347159 121.279349,130.560341 L121.279349,130.560341 Z M114.795822,131.393977 L114.657111,129.012386 C115.688672,128.951932 116.728204,128.855682 117.746213,128.725227 L118.051536,131.090909 C116.978521,131.229318 115.883186,131.331136 114.795822,131.393977 L114.795822,131.393977 Z M57.3305484,131.473523 L60.5192991,131.473523 L60.5192991,129.087159 L57.3305484,129.087159 L57.3305484,131.473523 Z M63.7080498,131.473523 L66.8968004,131.473523 L66.8968004,129.087159 L63.7080498,129.087159 L63.7080498,131.473523 Z M70.0855511,131.473523 L73.2743018,131.473523 L73.2743018,129.087159 L70.0855511,129.087159 L70.0855511,131.473523 Z M76.4630525,131.473523 L79.6518031,131.473523 L79.6518031,129.087159 L76.4630525,129.087159 L76.4630525,131.473523 Z M82.8405538,131.473523 L86.0293045,131.473523 L86.0293045,129.087159 L82.8405538,129.087159 L82.8405538,131.473523 Z M89.2180552,131.473523 L92.4068058,131.473523 L92.4068058,129.087159 L89.2180552,129.087159 L89.2180552,131.473523 Z M95.5955565,131.473523 L98.7843072,131.473523 L98.7843072,129.087159 L95.5955565,129.087159 L95.5955565,131.473523 Z M101.973058,131.473523 L105.161809,131.473523 L105.161809,129.087159 L101.973058,129.087159 L101.973058,131.473523 Z M108.350559,131.473523 L111.53931,131.473523 L111.53931,129.087159 L108.350559,129.087159 L108.350559,131.473523 Z M51.0231996,131.543523 L50.889272,129.160341 C51.7629897,129.111818 52.6486652,129.087159 53.5247745,129.087159 L54.1417977,129.087159 L54.1417977,131.473523 L53.5247745,131.473523 C52.6933077,131.473523 51.8514776,131.496591 51.0231996,131.543523 L51.0231996,131.543523 Z M44.8713023,132.323068 L44.402556,129.983636 C45.46441,129.77125 46.5517739,129.594659 47.631166,129.457841 L47.9333002,131.825114 C46.9081168,131.954773 45.8781504,132.122614 44.8713023,132.323068 L44.8713023,132.323068 Z M38.8923948,133.960909 L38.0968015,131.711364 C39.122782,131.349432 40.1742726,131.020114 41.2185884,130.734545 L41.8523526,133.035795 C40.8614484,133.307045 39.865761,133.618068 38.8923948,133.960909 L38.8923948,133.960909 Z M33.2004749,136.432386 L32.0939784,134.318068 C33.0577783,133.815341 34.0518713,133.340455 35.0483559,132.908523 L36.0025895,135.096023 C35.0587193,135.506477 34.1156463,135.956705 33.2004749,136.432386 L33.2004749,136.432386 Z M27.9175122,139.679432 L26.5224337,137.7425 C27.4025289,137.110909 28.3192948,136.501591 29.246424,135.93125 L30.5011974,137.963636 C29.6211022,138.50375 28.7521677,139.08125 27.9175122,139.679432 L27.9175122,139.679432 Z M23.1431552,143.635227 L21.489788,141.910682 C22.2710319,141.164545 23.0921352,140.433523 23.932371,139.7375 L25.4597826,141.574205 C24.6625949,142.233636 23.8837426,142.927273 23.1431552,143.635227 L23.1431552,143.635227 Z M18.9714721,148.217045 L17.093298,146.7375 C17.7677188,145.886364 18.4788102,145.047955 19.2066425,144.247727 L20.9763991,145.852955 C20.2860346,146.611818 19.6116138,147.407273 18.9714721,148.217045 L18.9714721,148.217045 Z M15.487762,153.331818 L13.4198572,152.133068 C13.9643364,151.198409 14.5502693,150.269318 15.1617123,149.372841 L17.1387377,150.713182 C16.5591823,151.564318 16.0043396,152.444886 15.487762,153.331818 L15.487762,153.331818 Z M12.7621774,158.883295 L10.5451985,157.988409 C10.9501698,156.988523 11.3989865,155.987045 11.8780963,155.011023 L14.0257198,156.061023 C13.5713229,156.986136 13.1464218,157.935909 12.7621774,158.883295 L12.7621774,158.883295 Z M10.8497242,164.769659 L8.52831368,164.196136 C8.78899405,163.144545 9.09112818,162.088182 9.425947,161.056477 L11.7011206,161.792273 C11.3830427,162.770682 11.0968524,163.772159 10.8497242,164.769659 L10.8497242,164.769659 Z M9.79185614,170.864432 L7.41304813,170.625795 C7.52146566,169.551136 7.67053975,168.46375 7.85548729,167.391477 L10.2135684,167.79875 C10.0365928,168.814545 9.89549054,169.847045 9.79185614,170.864432 L9.79185614,170.864432 Z M7.20976528,177.144545 C7.18664684,176.543977 7.17468902,175.941023 7.17468902,175.334886 C7.17548621,174.846477 7.1826609,174.362841 7.19780746,173.88 L9.5877761,173.954773 C9.5742239,174.41375 9.56704922,174.874318 9.56625203,175.337273 C9.56625203,175.91 9.57820984,176.482727 9.59973391,177.053068 L7.20976528,177.144545 Z M7.91766793,183.6275 C7.72474851,182.561591 7.56690535,181.475 7.44971877,180.39875 L9.8269324,180.138636 C9.93933586,181.161591 10.08841,182.1925 10.2717631,183.203523 L7.91766793,183.6275 Z M9.53835046,189.952159 C9.19555976,188.926023 8.88545376,187.872045 8.61600433,186.818864 L10.9326317,186.228636 C11.1877317,187.226932 11.481894,188.225227 11.8071466,189.197273 L9.53835046,189.952159 Z M12.0415197,195.986477 C11.5536409,195.012045 11.0960552,194.011364 10.6823148,193.013864 L12.892119,192.102273 C13.2843353,193.047273 13.7180054,193.995455 14.1811714,194.920568 L12.0415197,195.986477 Z M15.3737642,201.607159 C14.7543494,200.711477 14.1604446,199.786364 13.6087907,198.858068 L15.6671293,197.641023 C16.1900844,198.523182 16.7536961,199.400568 17.3420206,200.2525 L15.3737642,201.607159 Z M19.4625398,206.70125 C18.7219524,205.901023 18.0044835,205.068182 17.3284684,204.226591 L19.1954819,202.735114 C19.8364208,203.53375 20.517219,204.323636 21.2203386,205.084091 L19.4625398,206.70125 Z M24.2249389,211.171705 C23.37992,210.483636 22.5532363,209.759773 21.7664121,209.020795 L23.4038356,207.282727 C24.1515976,207.983523 24.9368275,208.670795 25.7380011,209.324659 L24.2249389,211.171705 Z M29.5660963,214.933409 C28.6357783,214.372614 27.7150265,213.77125 26.8277566,213.146818 L28.2076885,211.196364 C29.0471271,211.789773 29.9208448,212.358523 30.8025343,212.889886 L29.5660963,214.933409 Z M35.3815803,217.903636 C34.3882845,217.482841 33.3917999,217.0175 32.4208253,216.521136 L33.5105809,214.397273 C34.4313326,214.867386 35.376,215.308068 36.3174786,215.707386 L35.3815803,217.903636 Z M41.5597847,220.0275 C40.5122802,219.749886 39.4591952,219.429318 38.4292288,219.075341 L39.2096755,216.819432 C40.184636,217.155114 41.182715,217.458182 42.1744164,217.722273 L41.5597847,220.0275 Z M47.9827258,221.255682 C46.9081168,221.128409 45.8207528,220.960568 44.7501298,220.756136 L45.1997436,218.411932 C46.2153607,218.606023 47.2461244,218.765114 48.2649302,218.886023 L47.9827258,221.255682 Z M54.48698,221.583409 L53.5247745,221.583409 C52.7626631,221.583409 51.9941741,221.565114 51.2400346,221.528523 L51.3572212,219.145341 C52.0707042,219.179545 52.8001309,219.197045 53.5247745,219.197045 L54.48698,219.197045 L54.48698,221.583409 Z M57.6757307,221.583409 L60.8644813,221.583409 L60.8644813,219.197045 L57.6757307,219.197045 L57.6757307,221.583409 Z M64.053232,221.583409 L67.2419827,221.583409 L67.2419827,219.197045 L64.053232,219.197045 L64.053232,221.583409 Z M70.4307334,221.583409 L73.619484,221.583409 L73.619484,219.197045 L70.4307334,219.197045 L70.4307334,221.583409 Z M76.8082347,221.583409 L79.9969854,221.583409 L79.9969854,219.197045 L76.8082347,219.197045 L76.8082347,221.583409 Z M83.1857361,221.583409 L86.3744867,221.583409 L86.3744867,219.197045 L83.1857361,219.197045 L83.1857361,221.583409 Z M89.5632374,221.583409 L92.7519881,221.583409 L92.7519881,219.197045 L89.5632374,219.197045 L89.5632374,221.583409 Z M95.9407388,221.583409 L99.1294895,221.583409 L99.1294895,219.197045 L95.9407388,219.197045 L95.9407388,221.583409 Z M102.31824,221.583409 L105.506991,221.583409 L105.506991,219.197045 L102.31824,219.197045 L102.31824,221.583409 Z M108.695741,221.583409 L111.884492,221.583409 L111.884492,219.197045 L108.695741,219.197045 L108.695741,221.583409 Z M115.073243,221.583409 L118.261994,221.583409 L118.261994,219.197045 L115.073243,219.197045 L115.073243,221.583409 Z M124.444184,221.974773 C123.432553,221.827614 122.399398,221.720227 121.373417,221.655795 L121.522491,219.274205 C122.615435,219.342614 123.71396,219.456364 124.790163,219.613068 L124.444184,221.974773 Z M130.450196,223.373182 C129.477627,223.058977 128.477156,222.781364 127.476686,222.548295 L128.020368,220.223977 C129.086208,220.472955 130.152048,220.768864 131.187594,221.10375 L130.450196,223.373182 Z M136.138927,225.754773 C135.229336,225.280682 134.289452,224.84 133.345581,224.444659 L134.270319,222.244432 C135.275573,222.665227 136.277638,223.134545 137.246221,223.640455 L136.138927,225.754773 Z M141.354129,229.052727 C140.53462,228.433068 139.681629,227.842045 138.817478,227.295568 L140.096964,225.280682 C141.017716,225.861364 141.925712,226.490568 142.797836,227.149205 L141.354129,229.052727 Z M145.946727,233.162841 C145.244405,232.419886 144.500628,231.696818 143.736125,231.011932 L145.33369,229.235682 C146.146821,229.964318 146.938428,230.734318 147.68619,231.523409 L145.946727,233.162841 Z M149.797143,237.974545 C149.223965,237.121818 148.610928,236.285795 147.973178,235.489545 L149.841786,233.999659 C150.520193,234.848409 151.174684,235.737727 151.783735,236.646136 L149.797143,237.974545 Z M152.792975,243.351818 C152.372059,242.419545 151.906502,241.494432 151.409057,240.601136 L153.498486,239.442159 C154.028615,240.393523 154.524466,241.379091 154.972486,242.371818 L152.792975,243.351818 Z M154.84653,249.153068 C154.588241,248.165909 154.283716,247.175568 153.941722,246.209886 L156.196966,245.414432 C156.562078,246.44375 156.885736,247.498523 157.160766,248.550114 L154.84653,249.153068 Z M155.900412,255.216818 C155.808736,254.192273 155.674808,253.164545 155.501021,252.162273 L157.858305,251.755795 C158.042455,252.8225 158.185949,253.915455 158.283206,255.006023 L155.900412,255.216818 Z M158.437063,261.469091 L156.0455,261.469091 L156.0455,258.300795 L158.437063,258.276136 L158.437063,261.469091 Z M156.0455,267.827955 L158.437063,267.827955 L158.437063,264.648523 L156.0455,264.648523 L156.0455,267.827955 Z M156.0455,274.184432 L158.437063,274.184432 L158.437063,271.007386 L156.0455,271.007386 L156.0455,274.184432 Z" id="Page-1" fill="#20DADA"></path>
                <g id="Group-3" transform="translate(149.871282, 232.272727)">
                    <path d="M0.430912254,41.2138884 C0.430912254,37.6169876 3.32750442,34.7004174 6.899767,34.7004174 C10.4720296,34.7004174 13.3686218,37.6169876 13.3686218,41.2138884 C13.3686218,44.8107893 10.4720296,47.7273595 6.899767,47.7273595 C3.32750442,47.7273595 0.430912254,44.8107893 0.430912254,41.2138884" id="Fill-3" fill="#FFFFFF"></path>
                    <polygon id="Fill-6-Copy-2" fill="#FC2C6A" points="7.75642056 0 31.2463093 11.2844628 7.75642056 21.6942149"></polygon>
                    <path d="M6.03277155,41.2190083 L6.03277155,0 L7.75642056,0 L7.75642056,41.2190083 C7.75642056,41.6988843 7.37118501,42.0867769 6.89459606,42.0867769 C6.4180071,42.0867769 6.03277155,41.6988843 6.03277155,41.2190083" id="Fill-8-Copy" fill="#FFFFFF"></path>
                </g>
                <g id="Group-3-Copy" transform="translate(0.000000, 131.250000)">
                    <path d="M0.430912254,41.2138884 C0.430912254,37.6169876 3.32750442,34.7004174 6.899767,34.7004174 C10.4720296,34.7004174 13.3686218,37.6169876 13.3686218,41.2138884 C13.3686218,44.8107893 10.4720296,47.7273595 6.899767,47.7273595 C3.32750442,47.7273595 0.430912254,44.8107893 0.430912254,41.2138884" id="Fill-3" fill="#FFFFFF"></path>
                    <polygon id="Fill-6-Copy-2" fill="#FC2C6A" points="7.75642056 0 31.2463093 11.2844628 7.75642056 21.6942149"></polygon>
                    <path d="M6.03277155,41.2190083 L6.03277155,0 L7.75642056,0 L7.75642056,41.2190083 C7.75642056,41.6988843 7.37118501,42.0867769 6.89459606,42.0867769 C6.4180071,42.0867769 6.03277155,41.6988843 6.03277155,41.2190083" id="Fill-8-Copy" fill="#FFFFFF"></path>
                </g>
                <g id="Group-3-Copy-2" transform="translate(42.250946, 0.000000)">
                    <path d="M0.430912254,41.2138884 C0.430912254,37.6169876 3.32750442,34.7004174 6.899767,34.7004174 C10.4720296,34.7004174 13.3686218,37.6169876 13.3686218,41.2138884 C13.3686218,44.8107893 10.4720296,47.7273595 6.899767,47.7273595 C3.32750442,47.7273595 0.430912254,44.8107893 0.430912254,41.2138884" id="Fill-3" fill="#FFFFFF"></path>
                    <polygon id="Fill-6-Copy-2" fill="#FC2C6A" points="7.75642056 0 31.2463093 11.2844628 7.75642056 21.6942149"></polygon>
                    <path d="M6.03277155,41.2190083 L6.03277155,0 L7.75642056,0 L7.75642056,41.2190083 C7.75642056,41.6988843 7.37118501,42.0867769 6.89459606,42.0867769 C6.4180071,42.0867769 6.03277155,41.6988843 6.03277155,41.2190083" id="Fill-8-Copy" fill="#FFFFFF"></path>
                </g>
                <g id="Group-4" transform="translate(130.883721, 166.133333)">
                    <path d="M0,2.51282051 C0,1.12574359 1.13453208,0 2.53432334,0 L66.9483749,0 C68.3481662,0 69.4826982,1.12574359 69.4826982,2.51282051 L69.4826982,55.2820513 C69.4826982,56.6691282 68.3481662,57.7948718 66.9483749,57.7948718 L2.53432334,57.7948718 C1.13453208,57.7948718 0,56.6691282 0,55.2820513 L0,2.51282051 Z" id="Fill-22" fill="#F2F2F2"></path>
                    <polygon id="Fill-24" fill="#F2F2F2" points="40.5491734 54.4444444 57.0222751 54.4444444 40.5491734 65.3333333"></polygon>
                    <polygon id="Fill-26" fill="#20DADA" points="6.75819557 26.3846154 62.7245027 26.3846154 62.7245027 20.9401709 6.75819557 20.9401709"></polygon>
                    <polygon id="Fill-28" fill="#20DADA" points="6.75819557 36.4358974 62.7245027 36.4358974 62.7245027 30.991453 6.75819557 30.991453"></polygon>
                    <polygon id="Fill-29" fill="#20DADA" points="6.75819557 16.3333333 35.9409288 16.3333333 35.9409288 10.8888889 6.75819557 10.8888889"></polygon>
                    <polygon id="Fill-30" fill="#20DADA" points="6.75819557 47.3247863 55.8294536 47.3247863 55.8294536 41.8803419 6.75819557 41.8803419"></polygon>
                </g>
            </g>
        </g>
    </g>
</svg>