<?xml version="1.0" encoding="UTF-8" standalone="no"?>
<svg width="540px" height="540px" viewBox="0 0 540 540" version="1.1" xmlns="http://www.w3.org/2000/svg" xmlns:xlink="http://www.w3.org/1999/xlink">
    <!-- Generator: Sketch 42 (36781) - http://www.bohemiancoding.com/sketch -->
    <title>skills</title>
    <desc>Created with Sketch.</desc>
    <defs></defs>
    <g id="Pages" stroke="none" stroke-width="1" fill="none" fill-rule="evenodd">
        <g id="skills">
            <rect id="Card-Copy-2" fill="#23367F" x="0" y="0" width="540" height="540"></rect>
            <g id="Group-7-Copy" transform="translate(146.000000, 160.000000)">
                <g id="Group-4" transform="translate(0.000000, 119.000000)">
                    <path d="M0,2.82122905 C0,1.26278212 1.27576888,0 2.84897025,0 L246.15103,0 C247.724801,0 249,1.26278212 249,2.82122905 L249,97.896648 C249,99.455095 247.724801,100.717877 246.15103,100.717877 L2.84897025,100.717877 C1.27576888,100.717877 0,99.455095 0,97.896648 L0,2.82122905 Z" id="Fill-16" fill="#FFFFFF"></path>
                    <path d="M2.84897025,4.10093855 C2.84897025,3.39450279 3.42788101,2.82122905 4.14183295,2.82122905 L24.3484394,2.82122905 C25.0623913,2.82122905 25.6407323,3.39450279 25.6407323,4.10093855 L25.6407323,14.9429218 C25.6407323,15.6493575 25.0623913,16.222067 24.3484394,16.222067 L4.14183295,16.222067 C3.42788101,16.222067 2.84897025,15.6493575 2.84897025,14.9429218 L2.84897025,4.10093855 Z" id="Fill-17" fill="#20DADA"></path>
                    <path d="M28.4897025,4.10093855 C28.4897025,3.39450279 29.0686133,2.82122905 29.7825652,2.82122905 L40.7300183,2.82122905 C41.4439703,2.82122905 42.022881,3.39450279 42.022881,4.10093855 L42.022881,14.9429218 C42.022881,15.6493575 41.4439703,16.222067 40.7300183,16.222067 L29.7825652,16.222067 C29.0686133,16.222067 28.4897025,15.6493575 28.4897025,14.9429218 L28.4897025,4.10093855 Z" id="Fill-18" fill="#20DADA"></path>
                    <path d="M45.01373,4.10093855 C45.01373,3.39450279 45.5926407,2.82122905 46.3060229,2.82122905 L57.2540458,2.82122905 C57.9679977,2.82122905 58.5463387,3.39450279 58.5463387,4.10093855 L58.5463387,14.9429218 C58.5463387,15.6493575 57.9679977,16.222067 57.2540458,16.222067 L46.3060229,16.222067 C45.5926407,16.222067 45.01373,15.6493575 45.01373,14.9429218 L45.01373,4.10093855 Z" id="Fill-19" fill="#20DADA"></path>
                    <path d="M62.1075515,4.10093855 C62.1075515,3.39450279 62.6864622,2.82122905 63.3998444,2.82122905 L74.3478673,2.82122905 C75.0612494,2.82122905 75.6401602,3.39450279 75.6401602,4.10093855 L75.6401602,14.9429218 C75.6401602,15.6493575 75.0612494,16.222067 74.3478673,16.222067 L63.3998444,16.222067 C62.6864622,16.222067 62.1075515,15.6493575 62.1075515,14.9429218 L62.1075515,4.10093855 Z" id="Fill-20" fill="#20DADA"></path>
                    <path d="M79.201373,4.10093855 C79.201373,3.39450279 79.7802838,2.82122905 80.4942357,2.82122905 L91.4416888,2.82122905 C92.1556407,2.82122905 92.7345515,3.39450279 92.7345515,4.10093855 L92.7345515,14.9429218 C92.7345515,15.6493575 92.1556407,16.222067 91.4416888,16.222067 L80.4942357,16.222067 C79.7802838,16.222067 79.201373,15.6493575 79.201373,14.9429218 L79.201373,4.10093855 Z" id="Fill-21" fill="#20DADA"></path>
                    <path d="M96.2951945,4.10093855 C96.2951945,3.39450279 96.8741053,2.82122905 97.5874874,2.82122905 L108.53551,2.82122905 C109.249462,2.82122905 109.827803,3.39450279 109.827803,4.10093855 L109.827803,14.9429218 C109.827803,15.6493575 109.249462,16.222067 108.53551,16.222067 L97.5874874,16.222067 C96.8741053,16.222067 96.2951945,15.6493575 96.2951945,14.9429218 L96.2951945,4.10093855 Z" id="Fill-22" fill="#20DADA"></path>
                    <path d="M113.389016,4.10093855 C113.389016,3.39450279 113.967357,2.82122905 114.681309,2.82122905 L125.629332,2.82122905 C126.342714,2.82122905 126.921625,3.39450279 126.921625,4.10093855 L126.921625,14.9429218 C126.921625,15.6493575 126.342714,16.222067 125.629332,16.222067 L114.681309,16.222067 C113.967357,16.222067 113.389016,15.6493575 113.389016,14.9429218 L113.389016,4.10093855 Z" id="Fill-23" fill="#20DADA"></path>
                    <path d="M130.482838,4.10093855 C130.482838,3.39450279 131.061748,2.82122905 131.77513,2.82122905 L142.723153,2.82122905 C143.437105,2.82122905 144.015446,3.39450279 144.015446,4.10093855 L144.015446,14.9429218 C144.015446,15.6493575 143.437105,16.222067 142.723153,16.222067 L131.77513,16.222067 C131.061748,16.222067 130.482838,15.6493575 130.482838,14.9429218 L130.482838,4.10093855 Z" id="Fill-24" fill="#20DADA"></path>
                    <path d="M147.576659,4.10093855 C147.576659,3.39450279 148.15557,2.82122905 148.868952,2.82122905 L159.816975,2.82122905 C160.530927,2.82122905 161.109268,3.39450279 161.109268,4.10093855 L161.109268,14.9429218 C161.109268,15.6493575 160.530927,16.222067 159.816975,16.222067 L148.868952,16.222067 C148.15557,16.222067 147.576659,15.6493575 147.576659,14.9429218 L147.576659,4.10093855 Z" id="Fill-25" fill="#20DADA"></path>
                    <path d="M164.670481,4.10093855 C164.670481,3.39450279 165.248822,2.82122905 165.962773,2.82122905 L176.910796,2.82122905 C177.624178,2.82122905 178.203089,3.39450279 178.203089,4.10093855 L178.203089,14.9429218 C178.203089,15.6493575 177.624178,16.222067 176.910796,16.222067 L165.962773,16.222067 C165.248822,16.222067 164.670481,15.6493575 164.670481,14.9429218 L164.670481,4.10093855 Z" id="Fill-26" fill="#20DADA"></path>
                    <path d="M181.764302,4.10093855 C181.764302,3.39450279 182.343213,2.82122905 183.056595,2.82122905 L194.004618,2.82122905 C194.71857,2.82122905 195.296911,3.39450279 195.296911,4.10093855 L195.296911,14.9429218 C195.296911,15.6493575 194.71857,16.222067 194.004618,16.222067 L183.056595,16.222067 C182.343213,16.222067 181.764302,15.6493575 181.764302,14.9429218 L181.764302,4.10093855 Z" id="Fill-27" fill="#20DADA"></path>
                    <path d="M198.858124,4.10093855 C198.858124,3.39450279 199.436465,2.82122905 200.150416,2.82122905 L211.098439,2.82122905 C211.812391,2.82122905 212.390732,3.39450279 212.390732,4.10093855 L212.390732,14.9429218 C212.390732,15.6493575 211.812391,16.222067 211.098439,16.222067 L200.150416,16.222067 C199.436465,16.222067 198.858124,15.6493575 198.858124,14.9429218 L198.858124,4.10093855 Z" id="Fill-28" fill="#20DADA"></path>
                    <path d="M215.951945,4.10093855 C215.951945,3.39450279 216.530286,2.82122905 217.244238,2.82122905 L228.192261,2.82122905 C228.905643,2.82122905 229.484554,3.39450279 229.484554,4.10093855 L229.484554,14.9429218 C229.484554,15.6493575 228.905643,16.222067 228.192261,16.222067 L217.244238,16.222067 C216.530286,16.222067 215.951945,15.6493575 215.951945,14.9429218 L215.951945,4.10093855 Z" id="Fill-29" fill="#20DADA"></path>
                    <path d="M233.045767,4.10093855 C233.045767,3.39450279 233.624677,2.82122905 234.338059,2.82122905 L245.286082,2.82122905 C246.000034,2.82122905 246.578375,3.39450279 246.578375,4.10093855 L246.578375,14.9429218 C246.578375,15.6493575 246.000034,16.222067 245.286082,16.222067 L234.338059,16.222067 C233.624677,16.222067 233.045767,15.6493575 233.045767,14.9429218 L233.045767,4.10093855 Z" id="Fill-30" fill="#20DADA"></path>
                    <path d="M2.84897025,19.8998212 C2.84897025,19.1933855 3.42788101,18.6201117 4.14126316,18.6201117 L16.0864256,18.6201117 C16.8003776,18.6201117 17.3787185,19.1933855 17.3787185,19.8998212 L17.3787185,31.3060503 C17.3787185,32.012486 16.8003776,32.5851955 16.0864256,32.5851955 L4.14126316,32.5851955 C3.42788101,32.5851955 2.84897025,32.012486 2.84897025,31.3060503 L2.84897025,19.8998212 Z" id="Fill-31" fill="#20DADA"></path>
                    <path d="M19.3729977,19.8998212 C19.3729977,19.1933855 19.9519085,18.6201117 20.6652906,18.6201117 L32.6104531,18.6201117 C33.3238352,18.6201117 33.902746,19.1933855 33.902746,19.8998212 L33.902746,31.3060503 C33.902746,32.012486 33.3238352,32.5851955 32.6104531,32.5851955 L20.6652906,32.5851955 C19.9519085,32.5851955 19.3729977,32.012486 19.3729977,31.3060503 L19.3729977,19.8998212 Z" id="Fill-32" fill="#20DADA"></path>
                    <path d="M36.4668192,19.8998212 C36.4668192,19.1933855 37.0451602,18.6201117 37.7591121,18.6201117 L49.7042746,18.6201117 C50.4176568,18.6201117 50.9965675,19.1933855 50.9965675,19.8998212 L50.9965675,31.3060503 C50.9965675,32.012486 50.4176568,32.5851955 49.7042746,32.5851955 L37.7591121,32.5851955 C37.0451602,32.5851955 36.4668192,32.012486 36.4668192,31.3060503 L36.4668192,19.8998212 Z" id="Fill-33" fill="#20DADA"></path>
                    <path d="M53.5606407,19.8998212 C53.5606407,19.1933855 54.1395515,18.6201117 54.8529336,18.6201117 L66.7980961,18.6201117 C67.5120481,18.6201117 68.090389,19.1933855 68.090389,19.8998212 L68.090389,31.3060503 C68.090389,32.012486 67.5120481,32.5851955 66.7980961,32.5851955 L54.8529336,32.5851955 C54.1395515,32.5851955 53.5606407,32.012486 53.5606407,31.3060503 L53.5606407,19.8998212 Z" id="Fill-34" fill="#20DADA"></path>
                    <path d="M70.6544622,19.8998212 C70.6544622,19.1933855 71.233373,18.6201117 71.9467551,18.6201117 L83.8919176,18.6201117 C84.6052998,18.6201117 85.1842105,19.1933855 85.1842105,19.8998212 L85.1842105,31.3060503 C85.1842105,32.012486 84.6052998,32.5851955 83.8919176,32.5851955 L71.9467551,32.5851955 C71.233373,32.5851955 70.6544622,32.012486 70.6544622,31.3060503 L70.6544622,19.8998212 Z" id="Fill-35" fill="#20DADA"></path>
                    <path d="M87.7482838,19.8998212 C87.7482838,19.1933855 88.3266247,18.6201117 89.0405767,18.6201117 L100.985739,18.6201117 C101.699121,18.6201117 102.278032,19.1933855 102.278032,19.8998212 L102.278032,31.3060503 C102.278032,32.012486 101.699121,32.5851955 100.985739,32.5851955 L89.0405767,32.5851955 C88.3266247,32.5851955 87.7482838,32.012486 87.7482838,31.3060503 L87.7482838,19.8998212 Z" id="Fill-36" fill="#20DADA"></path>
                    <path d="M104.842105,19.8998212 C104.842105,19.1933855 105.421016,18.6201117 106.134398,18.6201117 L118.079561,18.6201117 C118.793513,18.6201117 119.371854,19.1933855 119.371854,19.8998212 L119.371854,31.3060503 C119.371854,32.012486 118.793513,32.5851955 118.079561,32.5851955 L106.134398,32.5851955 C105.421016,32.5851955 104.842105,32.012486 104.842105,31.3060503 L104.842105,19.8998212 Z" id="Fill-37" fill="#20DADA"></path>
                    <path d="M121.366133,19.8998212 C121.366133,19.1933855 121.945043,18.6201117 122.658426,18.6201117 L134.603588,18.6201117 C135.31697,18.6201117 135.895881,19.1933855 135.895881,19.8998212 L135.895881,31.3060503 C135.895881,32.012486 135.31697,32.5851955 134.603588,32.5851955 L122.658426,32.5851955 C121.945043,32.5851955 121.366133,32.012486 121.366133,31.3060503 L121.366133,19.8998212 Z" id="Fill-38" fill="#20DADA"></path>
                    <path d="M138.459954,19.8998212 C138.459954,19.1933855 139.038295,18.6201117 139.752247,18.6201117 L151.69741,18.6201117 C152.410792,18.6201117 152.989703,19.1933855 152.989703,19.8998212 L152.989703,31.3060503 C152.989703,32.012486 152.410792,32.5851955 151.69741,32.5851955 L139.752247,32.5851955 C139.038295,32.5851955 138.459954,32.012486 138.459954,31.3060503 L138.459954,19.8998212 Z" id="Fill-39" fill="#20DADA"></path>
                    <path d="M155.553776,19.8998212 C155.553776,19.1933855 156.132686,18.6201117 156.846069,18.6201117 L168.791231,18.6201117 C169.505183,18.6201117 170.083524,19.1933855 170.083524,19.8998212 L170.083524,31.3060503 C170.083524,32.012486 169.505183,32.5851955 168.791231,32.5851955 L156.846069,32.5851955 C156.132686,32.5851955 155.553776,32.012486 155.553776,31.3060503 L155.553776,19.8998212 Z" id="Fill-40" fill="#20DADA"></path>
                    <path d="M172.647597,19.8998212 C172.647597,19.1933855 173.226508,18.6201117 173.93989,18.6201117 L185.885053,18.6201117 C186.598435,18.6201117 187.177346,19.1933855 187.177346,19.8998212 L187.177346,31.3060503 C187.177346,32.012486 186.598435,32.5851955 185.885053,32.5851955 L173.93989,32.5851955 C173.226508,32.5851955 172.647597,32.012486 172.647597,31.3060503 L172.647597,19.8998212 Z" id="Fill-41" fill="#20DADA"></path>
                    <path d="M189.741419,19.8998212 C189.741419,19.1933855 190.31976,18.6201117 191.033712,18.6201117 L202.978874,18.6201117 C203.692256,18.6201117 204.271167,19.1933855 204.271167,19.8998212 L204.271167,31.3060503 C204.271167,32.012486 203.692256,32.5851955 202.978874,32.5851955 L191.033712,32.5851955 C190.31976,32.5851955 189.741419,32.012486 189.741419,31.3060503 L189.741419,19.8998212 Z" id="Fill-42" fill="#20DADA"></path>
                    <path d="M206.83524,19.8998212 C206.83524,19.1933855 207.414151,18.6201117 208.127533,18.6201117 L220.072696,18.6201117 C220.786648,18.6201117 221.364989,19.1933855 221.364989,19.8998212 L221.364989,31.3060503 C221.364989,32.012486 220.786648,32.5851955 220.072696,32.5851955 L208.127533,32.5851955 C207.414151,32.5851955 206.83524,32.012486 206.83524,31.3060503 L206.83524,19.8998212 Z" id="Fill-43" fill="#20DADA"></path>
                    <path d="M223.929062,19.8998212 C223.929062,19.1933855 224.507973,18.6201117 225.221355,18.6201117 L245.570979,18.6201117 C246.284931,18.6201117 246.863272,19.1933855 246.863272,19.8998212 L246.863272,31.3060503 C246.863272,32.012486 246.284931,32.5851955 245.570979,32.5851955 L225.221355,32.5851955 C224.507973,32.5851955 223.929062,32.012486 223.929062,31.3060503 L223.929062,19.8998212 Z" id="Fill-44" fill="#20DADA"></path>
                    <path d="M2.84897025,36.2629497 C2.84897025,35.556514 3.42788101,34.9832402 4.14126316,34.9832402 L24.4908879,34.9832402 C25.2048398,34.9832402 25.7831808,35.556514 25.7831808,36.2629497 L25.7831808,47.6691788 C25.7831808,48.3756145 25.2048398,48.948324 24.4908879,48.948324 L4.14126316,48.948324 C3.42788101,48.948324 2.84897025,48.3756145 2.84897025,47.6691788 L2.84897025,36.2629497 Z" id="Fill-45" fill="#20DADA"></path>
                    <path d="M28.4897025,36.2629497 C28.4897025,35.556514 29.0686133,34.9832402 29.7819954,34.9832402 L41.7271579,34.9832402 C42.4411098,34.9832402 43.0194508,35.556514 43.0194508,36.2629497 L43.0194508,47.6691788 C43.0194508,48.3756145 42.4411098,48.948324 41.7271579,48.948324 L29.7819954,48.948324 C29.0686133,48.948324 28.4897025,48.3756145 28.4897025,47.6691788 L28.4897025,36.2629497 Z" id="Fill-46" fill="#20DADA"></path>
                    <path d="M45.583524,36.2629497 C45.583524,35.556514 46.1624348,34.9832402 46.8758169,34.9832402 L58.8209794,34.9832402 C59.5343616,34.9832402 60.1132723,35.556514 60.1132723,36.2629497 L60.1132723,47.6691788 C60.1132723,48.3756145 59.5343616,48.948324 58.8209794,48.948324 L46.8758169,48.948324 C46.1624348,48.948324 45.583524,48.3756145 45.583524,47.6691788 L45.583524,36.2629497 Z" id="Fill-47" fill="#20DADA"></path>
                    <path d="M62.6773455,36.2629497 C62.6773455,35.556514 63.2556865,34.9832402 63.9696384,34.9832402 L75.9148009,34.9832402 C76.6281831,34.9832402 77.2070938,35.556514 77.2070938,36.2629497 L77.2070938,47.6691788 C77.2070938,48.3756145 76.6281831,48.948324 75.9148009,48.948324 L63.9696384,48.948324 C63.2556865,48.948324 62.6773455,48.3756145 62.6773455,47.6691788 L62.6773455,36.2629497 Z" id="Fill-48" fill="#20DADA"></path>
                    <path d="M79.201373,36.2629497 C79.201373,35.556514 79.7802838,34.9832402 80.4936659,34.9832402 L92.4388284,34.9832402 C93.1527803,34.9832402 93.7311213,35.556514 93.7311213,36.2629497 L93.7311213,47.6691788 C93.7311213,48.3756145 93.1527803,48.948324 92.4388284,48.948324 L80.4936659,48.948324 C79.7802838,48.948324 79.201373,48.3756145 79.201373,47.6691788 L79.201373,36.2629497 Z" id="Fill-49" fill="#20DADA"></path>
                    <path d="M96.2951945,36.2629497 C96.2951945,35.556514 96.8741053,34.9832402 97.5874874,34.9832402 L109.53265,34.9832402 C110.246032,34.9832402 110.824943,35.556514 110.824943,36.2629497 L110.824943,47.6691788 C110.824943,48.3756145 110.246032,48.948324 109.53265,48.948324 L97.5874874,48.948324 C96.8741053,48.948324 96.2951945,48.3756145 96.2951945,47.6691788 L96.2951945,36.2629497 Z" id="Fill-50" fill="#20DADA"></path>
                    <path d="M113.389016,36.2629497 C113.389016,35.556514 113.967357,34.9832402 114.681309,34.9832402 L126.626471,34.9832402 C127.339854,34.9832402 127.918764,35.556514 127.918764,36.2629497 L127.918764,47.6691788 C127.918764,48.3756145 127.339854,48.948324 126.626471,48.948324 L114.681309,48.948324 C113.967357,48.948324 113.389016,48.3756145 113.389016,47.6691788 L113.389016,36.2629497 Z" id="Fill-51" fill="#20DADA"></path>
                    <path d="M130.482838,36.2629497 C130.482838,35.556514 131.061748,34.9832402 131.77513,34.9832402 L143.720293,34.9832402 C144.434245,34.9832402 145.012586,35.556514 145.012586,36.2629497 L145.012586,47.6691788 C145.012586,48.3756145 144.434245,48.948324 143.720293,48.948324 L131.77513,48.948324 C131.061748,48.948324 130.482838,48.3756145 130.482838,47.6691788 L130.482838,36.2629497 Z" id="Fill-52" fill="#20DADA"></path>
                    <path d="M147.576659,36.2629497 C147.576659,35.556514 148.15557,34.9832402 148.868952,34.9832402 L160.814114,34.9832402 C161.527497,34.9832402 162.106407,35.556514 162.106407,36.2629497 L162.106407,47.6691788 C162.106407,48.3756145 161.527497,48.948324 160.814114,48.948324 L148.868952,48.948324 C148.15557,48.948324 147.576659,48.3756145 147.576659,47.6691788 L147.576659,36.2629497 Z" id="Fill-53" fill="#20DADA"></path>
                    <path d="M164.100686,36.2629497 C164.100686,35.556514 164.679027,34.9832402 165.392979,34.9832402 L177.338142,34.9832402 C178.051524,34.9832402 178.630435,35.556514 178.630435,36.2629497 L178.630435,47.6691788 C178.630435,48.3756145 178.051524,48.948324 177.338142,48.948324 L165.392979,48.948324 C164.679027,48.948324 164.100686,48.3756145 164.100686,47.6691788 L164.100686,36.2629497 Z" id="Fill-54" fill="#20DADA"></path>
                    <path d="M181.194508,36.2629497 C181.194508,35.556514 181.773419,34.9832402 182.486801,34.9832402 L194.431963,34.9832402 C195.145915,34.9832402 195.724256,35.556514 195.724256,36.2629497 L195.724256,47.6691788 C195.724256,48.3756145 195.145915,48.948324 194.431963,48.948324 L182.486801,48.948324 C181.773419,48.948324 181.194508,48.3756145 181.194508,47.6691788 L181.194508,36.2629497 Z" id="Fill-55" fill="#20DADA"></path>
                    <path d="M198.28833,36.2629497 C198.28833,35.556514 198.86724,34.9832402 199.580622,34.9832402 L211.525785,34.9832402 C212.239167,34.9832402 212.818078,35.556514 212.818078,36.2629497 L212.818078,47.6691788 C212.818078,48.3756145 212.239167,48.948324 211.525785,48.948324 L199.580622,48.948324 C198.86724,48.948324 198.28833,48.3756145 198.28833,47.6691788 L198.28833,36.2629497 Z" id="Fill-56" fill="#20DADA"></path>
                    <path d="M215.382151,36.2629497 C215.382151,35.556514 215.960492,34.9832402 216.674444,34.9832402 L228.619606,34.9832402 C229.332989,34.9832402 229.911899,35.556514 229.911899,36.2629497 L229.911899,47.6691788 C229.911899,48.3756145 229.332989,48.948324 228.619606,48.948324 L216.674444,48.948324 C215.960492,48.948324 215.382151,48.3756145 215.382151,47.6691788 L215.382151,36.2629497 Z" id="Fill-57" fill="#20DADA"></path>
                    <path d="M232.475973,36.2629497 C232.475973,35.556514 233.054883,34.9832402 233.768265,34.9832402 L245.713428,34.9832402 C246.42738,34.9832402 247.005721,35.556514 247.005721,36.2629497 L247.005721,47.6691788 C247.005721,48.3756145 246.42738,48.948324 245.713428,48.948324 L233.768265,48.948324 C233.054883,48.948324 232.475973,48.3756145 232.475973,47.6691788 L232.475973,36.2629497 Z" id="Fill-58" fill="#20DADA"></path>
                    <path d="M2.84897025,53.190324 C2.84897025,52.4838883 3.42788101,51.9106145 4.14126316,51.9106145 L29.0492403,51.9106145 C29.7631922,51.9106145 30.3415332,52.4838883 30.3415332,53.190324 L30.3415332,64.5965531 C30.3415332,65.3029888 29.7631922,65.8756983 29.0492403,65.8756983 L4.14126316,65.8756983 C3.42788101,65.8756983 2.84897025,65.3029888 2.84897025,64.5965531 L2.84897025,53.190324 Z" id="Fill-59" fill="#20DADA"></path>
                    <path d="M32.4782609,53.190324 C32.4782609,52.4838883 33.0571716,51.9106145 33.7705538,51.9106145 L45.7157162,51.9106145 C46.4296682,51.9106145 47.0080092,52.4838883 47.0080092,53.190324 L47.0080092,64.5965531 C47.0080092,65.3029888 46.4296682,65.8756983 45.7157162,65.8756983 L33.7705538,65.8756983 C33.0571716,65.8756983 32.4782609,65.3029888 32.4782609,64.5965531 L32.4782609,53.190324 Z" id="Fill-60" fill="#20DADA"></path>
                    <path d="M49.5720824,53.190324 C49.5720824,52.4838883 50.1509931,51.9106145 50.8649451,51.9106145 L62.8095378,51.9106145 C63.5234897,51.9106145 64.1018307,52.4838883 64.1018307,53.190324 L64.1018307,64.5965531 C64.1018307,65.3029888 63.5234897,65.8756983 62.8095378,65.8756983 L50.8649451,65.8756983 C50.1509931,65.8756983 49.5720824,65.3029888 49.5720824,64.5965531 L49.5720824,53.190324 Z" id="Fill-61" fill="#20DADA"></path>
                    <path d="M66.6659039,53.190324 C66.6659039,52.4838883 67.2442449,51.9106145 67.9581968,51.9106145 L79.9027895,51.9106145 C80.6167414,51.9106145 81.1956522,52.4838883 81.1956522,53.190324 L81.1956522,64.5965531 C81.1956522,65.3029888 80.6167414,65.8756983 79.9027895,65.8756983 L67.9581968,65.8756983 C67.2442449,65.8756983 66.6659039,65.3029888 66.6659039,64.5965531 L66.6659039,53.190324 Z" id="Fill-62" fill="#20DADA"></path>
                    <path d="M83.7597254,53.190324 C83.7597254,52.4838883 84.3380664,51.9106145 85.0520183,51.9106145 L96.9971808,51.9106145 C97.7105629,51.9106145 98.2894737,52.4838883 98.2894737,53.190324 L98.2894737,64.5965531 C98.2894737,65.3029888 97.7105629,65.8756983 96.9971808,65.8756983 L85.0520183,65.8756983 C84.3380664,65.8756983 83.7597254,65.3029888 83.7597254,64.5965531 L83.7597254,53.190324 Z" id="Fill-63" fill="#20DADA"></path>
                    <path d="M100.283753,53.190324 C100.283753,52.4838883 100.862094,51.9106145 101.576046,51.9106145 L113.521208,51.9106145 C114.23459,51.9106145 114.813501,52.4838883 114.813501,53.190324 L114.813501,64.5965531 C114.813501,65.3029888 114.23459,65.8756983 113.521208,65.8756983 L101.576046,65.8756983 C100.862094,65.8756983 100.283753,65.3029888 100.283753,64.5965531 L100.283753,53.190324 Z" id="Fill-64" fill="#20DADA"></path>
                    <path d="M117.377574,53.190324 C117.377574,52.4838883 117.956485,51.9106145 118.669867,51.9106145 L130.61503,51.9106145 C131.328412,51.9106145 131.907323,52.4838883 131.907323,53.190324 L131.907323,64.5965531 C131.907323,65.3029888 131.328412,65.8756983 130.61503,65.8756983 L118.669867,65.8756983 C117.956485,65.8756983 117.377574,65.3029888 117.377574,64.5965531 L117.377574,53.190324 Z" id="Fill-65" fill="#20DADA"></path>
                    <path d="M134.471396,53.190324 C134.471396,52.4838883 135.050307,51.9106145 135.763689,51.9106145 L147.708851,51.9106145 C148.422803,51.9106145 149.001144,52.4838883 149.001144,53.190324 L149.001144,64.5965531 C149.001144,65.3029888 148.422803,65.8756983 147.708851,65.8756983 L135.763689,65.8756983 C135.050307,65.8756983 134.471396,65.3029888 134.471396,64.5965531 L134.471396,53.190324 Z" id="Fill-66" fill="#20DADA"></path>
                    <path d="M151.565217,53.190324 C151.565217,52.4838883 152.144128,51.9106145 152.85751,51.9106145 L164.802673,51.9106145 C165.516625,51.9106145 166.094966,52.4838883 166.094966,53.190324 L166.094966,64.5965531 C166.094966,65.3029888 165.516625,65.8756983 164.802673,65.8756983 L152.85751,65.8756983 C152.144128,65.8756983 151.565217,65.3029888 151.565217,64.5965531 L151.565217,53.190324 Z" id="Fill-67" fill="#20DADA"></path>
                    <path d="M168.659039,53.190324 C168.659039,52.4838883 169.23795,51.9106145 169.951902,51.9106145 L181.896494,51.9106145 C182.610446,51.9106145 183.189357,52.4838883 183.189357,53.190324 L183.189357,64.5965531 C183.189357,65.3029888 182.610446,65.8756983 181.896494,65.8756983 L169.951902,65.8756983 C169.23795,65.8756983 168.659039,65.3029888 168.659039,64.5965531 L168.659039,53.190324 Z" id="Fill-68" fill="#20DADA"></path>
                    <path d="M185.183066,53.190324 C185.183066,52.4838883 185.761407,51.9106145 186.475359,51.9106145 L198.420522,51.9106145 C199.133904,51.9106145 199.712815,52.4838883 199.712815,53.190324 L199.712815,64.5965531 C199.712815,65.3029888 199.133904,65.8756983 198.420522,65.8756983 L186.475359,65.8756983 C185.761407,65.8756983 185.183066,65.3029888 185.183066,64.5965531 L185.183066,53.190324 Z" id="Fill-69" fill="#20DADA"></path>
                    <path d="M202.276888,53.190324 C202.276888,52.4838883 202.855229,51.9106145 203.569181,51.9106145 L215.514343,51.9106145 C216.227725,51.9106145 216.806636,52.4838883 216.806636,53.190324 L216.806636,64.5965531 C216.806636,65.3029888 216.227725,65.8756983 215.514343,65.8756983 L203.569181,65.8756983 C202.855229,65.8756983 202.276888,65.3029888 202.276888,64.5965531 L202.276888,53.190324 Z" id="Fill-70" fill="#20DADA"></path>
                    <path d="M219.370709,53.190324 C219.370709,52.4838883 219.94962,51.9106145 220.663002,51.9106145 L245.499755,51.9106145 C246.213707,51.9106145 246.792048,52.4838883 246.792048,53.190324 L246.792048,64.5965531 C246.792048,65.3029888 246.213707,65.8756983 245.499755,65.8756983 L220.663002,65.8756983 C219.94962,65.8756983 219.370709,65.3029888 219.370709,64.5965531 L219.370709,53.190324 Z" id="Fill-71" fill="#20DADA"></path>
                    <path d="M2.84897025,68.9892067 C2.84897025,68.2827709 3.42788101,67.7094972 4.14126316,67.7094972 L37.596151,67.7094972 C38.310103,67.7094972 38.8884439,68.2827709 38.8884439,68.9892067 L38.8884439,80.3954358 C38.8884439,81.1018715 38.310103,81.674581 37.596151,81.674581 L4.14126316,81.674581 C3.42788101,81.674581 2.84897025,81.1018715 2.84897025,80.3954358 L2.84897025,68.9892067 Z" id="Fill-72" fill="#20DADA"></path>
                    <path d="M41.0251716,68.9892067 C41.0251716,68.2827709 41.6040824,67.7094972 42.3174645,67.7094972 L54.262627,67.7094972 C54.9765789,67.7094972 55.5549199,68.2827709 55.5549199,68.9892067 L55.5549199,80.3954358 C55.5549199,81.1018715 54.9765789,81.674581 54.262627,81.674581 L42.3174645,81.674581 C41.6040824,81.674581 41.0251716,81.1018715 41.0251716,80.3954358 L41.0251716,68.9892067 Z" id="Fill-73" fill="#20DADA"></path>
                    <path d="M58.1189931,68.9892067 C58.1189931,68.2827709 58.6979039,67.7094972 59.4118558,67.7094972 L71.3564485,67.7094972 C72.0704005,67.7094972 72.6487414,68.2827709 72.6487414,68.9892067 L72.6487414,80.3954358 C72.6487414,81.1018715 72.0704005,81.674581 71.3564485,81.674581 L59.4118558,81.674581 C58.6979039,81.674581 58.1189931,81.1018715 58.1189931,80.3954358 L58.1189931,68.9892067 Z" id="Fill-74" fill="#20DADA"></path>
                    <path d="M75.2128146,68.9892067 C75.2128146,68.2827709 75.7911556,67.7094972 76.5051076,67.7094972 L88.4497002,67.7094972 C89.1636522,67.7094972 89.7425629,68.2827709 89.7425629,68.9892067 L89.7425629,80.3954358 C89.7425629,81.1018715 89.1636522,81.674581 88.4497002,81.674581 L76.5051076,81.674581 C75.7911556,81.674581 75.2128146,81.1018715 75.2128146,80.3954358 L75.2128146,68.9892067 Z" id="Fill-75" fill="#20DADA"></path>
                    <path d="M91.7368421,68.9892067 C91.7368421,68.2827709 92.3151831,67.7094972 93.029135,67.7094972 L104.974297,67.7094972 C105.68768,67.7094972 106.26659,68.2827709 106.26659,68.9892067 L106.26659,80.3954358 C106.26659,81.1018715 105.68768,81.674581 104.974297,81.674581 L93.029135,81.674581 C92.3151831,81.674581 91.7368421,81.1018715 91.7368421,80.3954358 L91.7368421,68.9892067 Z" id="Fill-76" fill="#20DADA"></path>
                    <path d="M108.830664,68.9892067 C108.830664,68.2827709 109.409005,67.7094972 110.122957,67.7094972 L122.068119,67.7094972 C122.781501,67.7094972 123.360412,68.2827709 123.360412,68.9892067 L123.360412,80.3954358 C123.360412,81.1018715 122.781501,81.674581 122.068119,81.674581 L110.122957,81.674581 C109.409005,81.674581 108.830664,81.1018715 108.830664,80.3954358 L108.830664,68.9892067 Z" id="Fill-77" fill="#20DADA"></path>
                    <path d="M125.924485,68.9892067 C125.924485,68.2827709 126.503396,67.7094972 127.216778,67.7094972 L139.161941,67.7094972 C139.875323,67.7094972 140.454233,68.2827709 140.454233,68.9892067 L140.454233,80.3954358 C140.454233,81.1018715 139.875323,81.674581 139.161941,81.674581 L127.216778,81.674581 C126.503396,81.674581 125.924485,81.1018715 125.924485,80.3954358 L125.924485,68.9892067 Z" id="Fill-78" fill="#20DADA"></path>
                    <path d="M143.018307,68.9892067 C143.018307,68.2827709 143.597217,67.7094972 144.3106,67.7094972 L156.255762,67.7094972 C156.969714,67.7094972 157.548055,68.2827709 157.548055,68.9892067 L157.548055,80.3954358 C157.548055,81.1018715 156.969714,81.674581 156.255762,81.674581 L144.3106,81.674581 C143.597217,81.674581 143.018307,81.1018715 143.018307,80.3954358 L143.018307,68.9892067 Z" id="Fill-79" fill="#20DADA"></path>
                    <path d="M160.112128,68.9892067 C160.112128,68.2827709 160.690469,67.7094972 161.404421,67.7094972 L173.349584,67.7094972 C174.062966,67.7094972 174.641876,68.2827709 174.641876,68.9892067 L174.641876,80.3954358 C174.641876,81.1018715 174.062966,81.674581 173.349584,81.674581 L161.404421,81.674581 C160.690469,81.674581 160.112128,81.1018715 160.112128,80.3954358 L160.112128,68.9892067 Z" id="Fill-80" fill="#20DADA"></path>
                    <path d="M177.20595,68.9892067 C177.20595,68.2827709 177.784291,67.7094972 178.498243,67.7094972 L190.443405,67.7094972 C191.156787,67.7094972 191.735698,68.2827709 191.735698,68.9892067 L191.735698,80.3954358 C191.735698,81.1018715 191.156787,81.674581 190.443405,81.674581 L178.498243,81.674581 C177.784291,81.674581 177.20595,81.1018715 177.20595,80.3954358 L177.20595,68.9892067 Z" id="Fill-81" fill="#20DADA"></path>
                    <path d="M193.729977,68.9892067 C193.729977,68.2827709 194.308888,67.7094972 195.02227,67.7094972 L206.967432,67.7094972 C207.680815,67.7094972 208.259725,68.2827709 208.259725,68.9892067 L208.259725,80.3954358 C208.259725,81.1018715 207.680815,81.674581 206.967432,81.674581 L195.02227,81.674581 C194.308888,81.674581 193.729977,81.1018715 193.729977,80.3954358 L193.729977,68.9892067 Z" id="Fill-82" fill="#20DADA"></path>
                    <path d="M210.823799,68.9892067 C210.823799,68.2827709 211.402709,67.7094972 212.116092,67.7094972 L245.314572,67.7094972 C246.028524,67.7094972 246.606865,68.2827709 246.606865,68.9892067 L246.606865,80.3954358 C246.606865,81.1018715 246.028524,81.674581 245.314572,81.674581 L212.116092,81.674581 C211.402709,81.674581 210.823799,81.1018715 210.823799,80.3954358 L210.823799,68.9892067 Z" id="Fill-83" fill="#20DADA"></path>
                    <path d="M2.84897025,85.3523352 C2.84897025,84.6458994 3.42788101,84.0726257 4.14126316,84.0726257 L16.0864256,84.0726257 C16.8003776,84.0726257 17.3787185,84.6458994 17.3787185,85.3523352 L17.3787185,96.7585642 C17.3787185,97.465 16.8003776,98.0377095 16.0864256,98.0377095 L4.14126316,98.0377095 C3.42788101,98.0377095 2.84897025,97.465 2.84897025,96.7585642 L2.84897025,85.3523352 Z" id="Fill-84" fill="#20DADA"></path>
                    <path d="M19.9427918,85.3523352 C19.9427918,84.6458994 20.5217025,84.0726257 21.2350847,84.0726257 L33.1802471,84.0726257 C33.8941991,84.0726257 34.47254,84.6458994 34.47254,85.3523352 L34.47254,96.7585642 C34.47254,97.465 33.8941991,98.0377095 33.1802471,98.0377095 L21.2350847,98.0377095 C20.5217025,98.0377095 19.9427918,97.465 19.9427918,96.7585642 L19.9427918,85.3523352 Z" id="Fill-85" fill="#20DADA"></path>
                    <path d="M37.0366133,85.3523352 C37.0366133,84.6458994 37.615524,84.0726257 38.3289062,84.0726257 L50.2740686,84.0726257 C50.9880206,84.0726257 51.5663616,84.6458994 51.5663616,85.3523352 L51.5663616,96.7585642 C51.5663616,97.465 50.9880206,98.0377095 50.2740686,98.0377095 L38.3289062,98.0377095 C37.615524,98.0377095 37.0366133,97.465 37.0366133,96.7585642 L37.0366133,85.3523352 Z" id="Fill-86" fill="#20DADA"></path>
                    <path d="M54.1304348,85.3523352 C54.1304348,84.6458994 54.7093455,84.0726257 55.4227277,84.0726257 L71.3564485,84.0726257 C72.0704005,84.0726257 72.6487414,84.6458994 72.6487414,85.3523352 L72.6487414,96.7585642 C72.6487414,97.465 72.0704005,98.0377095 71.3564485,98.0377095 L55.4227277,98.0377095 C54.7093455,98.0377095 54.1304348,97.465 54.1304348,96.7585642 L54.1304348,85.3523352 Z" id="Fill-87" fill="#20DADA"></path>
                    <path d="M75.2128146,85.3523352 C75.2128146,84.6458994 75.7917254,84.0726257 76.5051076,84.0726257 L156.255762,84.0726257 C156.969714,84.0726257 157.548055,84.6458994 157.548055,85.3523352 L157.548055,96.7585642 C157.548055,97.465 156.969714,98.0377095 156.255762,98.0377095 L76.5051076,98.0377095 C75.7917254,98.0377095 75.2128146,97.465 75.2128146,96.7585642 L75.2128146,85.3523352 Z" id="Fill-88" fill="#20DADA"></path>
                    <path d="M160.112128,85.3523352 C160.112128,84.6458994 160.691039,84.0726257 161.404421,84.0726257 L177.338142,84.0726257 C178.052094,84.0726257 178.630435,84.6458994 178.630435,85.3523352 L178.630435,96.7585642 C178.630435,97.465 178.052094,98.0377095 177.338142,98.0377095 L161.404421,98.0377095 C160.691039,98.0377095 160.112128,97.465 160.112128,96.7585642 L160.112128,85.3523352 Z" id="Fill-89" fill="#20DADA"></path>
                    <path d="M180.624714,85.3523352 C180.624714,84.6458994 181.203625,84.0726257 181.917007,84.0726257 L193.862169,84.0726257 C194.576121,84.0726257 195.154462,84.6458994 195.154462,85.3523352 L195.154462,96.7585642 C195.154462,97.465 194.576121,98.0377095 193.862169,98.0377095 L181.917007,98.0377095 C181.203625,98.0377095 180.624714,97.465 180.624714,96.7585642 L180.624714,85.3523352 Z" id="Fill-90" fill="#20DADA"></path>
                    <path d="M198.28833,85.3523352 C198.28833,84.6458994 198.86724,84.0726257 199.580622,84.0726257 L211.525785,84.0726257 C212.239737,84.0726257 212.818078,84.6458994 212.818078,85.3523352 L212.818078,96.7585642 C212.818078,97.465 212.239737,98.0377095 211.525785,98.0377095 L199.580622,98.0377095 C198.86724,98.0377095 198.28833,97.465 198.28833,96.7585642 L198.28833,85.3523352 Z" id="Fill-91" fill="#20DADA"></path>
                    <path d="M232.475973,85.3523352 C232.475973,84.6458994 233.054883,84.0726257 233.768265,84.0726257 L245.713428,84.0726257 C246.42738,84.0726257 247.005721,84.6458994 247.005721,85.3523352 L247.005721,96.7585642 C247.005721,97.465 246.42738,98.0377095 245.713428,98.0377095 L233.768265,98.0377095 C233.054883,98.0377095 232.475973,97.465 232.475973,96.7585642 L232.475973,85.3523352 Z" id="Fill-92" fill="#20DADA"></path>
                    <path d="M215.382151,85.3523352 C215.382151,84.6458994 215.961062,84.0726257 216.674444,84.0726257 L228.619606,84.0726257 C229.333558,84.0726257 229.911899,84.6458994 229.911899,85.3523352 L229.911899,96.7585642 C229.911899,97.465 229.333558,98.0377095 228.619606,98.0377095 L216.674444,98.0377095 C215.961062,98.0377095 215.382151,97.465 215.382151,96.7585642 L215.382151,85.3523352 Z" id="Fill-93" fill="#20DADA"></path>
                </g>
                <g id="Group-3" transform="translate(35.141129, 0.000000)">
                    <polygon id="Fill-5" fill="#20DADA" points="0 97.7117647 72.4064606 97.7117647 72.4064606 9.22352941 0 9.22352941"></polygon>
                    <polygon id="Fill-7" fill="#F2F2F2" points="4.61555128 92.5235294 77.0220119 92.5235294 77.0220119 4.03529412 4.61555128 4.03529412"></polygon>
                    <path d="M13.8466538,1.63371765 C13.8466538,0.731541176 14.5787956,0 15.4817129,0 L15.6726813,0 C16.5755985,0 17.3083173,0.731541176 17.3083173,1.63371765 L17.3083173,8.45394118 C17.3083173,9.35611765 16.5755985,10.0876588 15.6726813,10.0876588 L15.4817129,10.0876588 C14.5787956,10.0876588 13.8466538,9.35611765 13.8466538,8.45394118 L13.8466538,1.63371765 Z" id="Fill-8" fill="#20DADA"></path>
                    <path d="M21.3469247,1.63371765 C21.3469247,0.731541176 22.0796434,0 22.9825606,0 L23.1735291,0 C24.0764463,0 24.8085881,0.731541176 24.8085881,1.63371765 L24.8085881,8.45394118 C24.8085881,9.35611765 24.0764463,10.0876588 23.1735291,10.0876588 L22.9825606,10.0876588 C22.0796434,10.0876588 21.3469247,9.35611765 21.3469247,8.45394118 L21.3469247,1.63371765 Z" id="Fill-9" fill="#20DADA"></path>
                    <path d="M28.2702516,1.63371765 C28.2702516,0.731541176 29.0023934,0 29.9058875,0 L30.096279,0 C30.9991963,0 31.731915,0.731541176 31.731915,1.63371765 L31.731915,8.45394118 C31.731915,9.35611765 30.9991963,10.0876588 30.096279,10.0876588 L29.9058875,10.0876588 C29.0023934,10.0876588 28.2702516,9.35611765 28.2702516,8.45394118 L28.2702516,1.63371765 Z" id="Fill-10" fill="#20DADA"></path>
                    <path d="M35.7705224,1.63371765 C35.7705224,0.731541176 36.5026642,0 37.4055814,0 L37.5965499,0 C38.4994671,0 39.2321858,0.731541176 39.2321858,1.63371765 L39.2321858,8.45394118 C39.2321858,9.35611765 38.4994671,10.0876588 37.5965499,10.0876588 L37.4055814,10.0876588 C36.5026642,10.0876588 35.7705224,9.35611765 35.7705224,8.45394118 L35.7705224,1.63371765 Z" id="Fill-11" fill="#20DADA"></path>
                    <path d="M42.6938493,1.63371765 C42.6938493,0.731541176 43.4265681,0 44.3294853,0 L44.5204537,0 C45.4233709,0 46.1555128,0.731541176 46.1555128,1.63371765 L46.1555128,8.45394118 C46.1555128,9.35611765 45.4233709,10.0876588 44.5204537,10.0876588 L44.3294853,10.0876588 C43.4265681,10.0876588 42.6938493,9.35611765 42.6938493,8.45394118 L42.6938493,1.63371765 Z" id="Fill-12" fill="#20DADA"></path>
                    <path d="M50.1941201,1.63371765 C50.1941201,0.731541176 50.9268389,0 51.8297561,0 L52.0201476,0 C52.9236418,0 53.6557836,0.731541176 53.6557836,1.63371765 L53.6557836,8.45394118 C53.6557836,9.35611765 52.9236418,10.0876588 52.0201476,10.0876588 L51.8297561,10.0876588 C50.9268389,10.0876588 50.1941201,9.35611765 50.1941201,8.45394118 L50.1941201,1.63371765 Z" id="Fill-13" fill="#20DADA"></path>
                    <path d="M57.6943909,1.63371765 C57.6943909,0.731541176 58.4265328,0 59.32945,0 L59.5204184,0 C60.4233356,0 61.1560544,0.731541176 61.1560544,1.63371765 L61.1560544,8.45394118 C61.1560544,9.35611765 60.4233356,10.0876588 59.5204184,10.0876588 L59.32945,10.0876588 C58.4265328,10.0876588 57.6943909,9.35611765 57.6943909,8.45394118 L57.6943909,1.63371765 Z" id="Fill-14" fill="#20DADA"></path>
                    <path d="M64.6177179,1.63371765 C64.6177179,0.731541176 65.3504366,0 66.2533538,0 L66.4443223,0 C67.3472395,0 68.0793813,0.731541176 68.0793813,1.63371765 L68.0793813,8.45394118 C68.0793813,9.35611765 67.3472395,10.0876588 66.4443223,10.0876588 L66.2533538,10.0876588 C65.3504366,10.0876588 64.6177179,9.35611765 64.6177179,8.45394118 L64.6177179,1.63371765 Z" id="Fill-15" fill="#20DADA"></path>
                </g>
                <path d="M192.774194,25.5068493 C192.774194,11.4196849 204.161927,0 218.209677,0 L223.564516,0 C237.612266,0 249,11.4196849 249,25.5068493 L249,72.4931507 C249,86.5803151 237.612266,98 223.564516,98 L218.209677,98 C204.161927,98 192.774194,86.5803151 192.774194,72.4931507 L192.774194,25.5068493 Z M216.870968,23.6609589 C216.870968,25.606863 218.444621,27.1849315 220.385081,27.1849315 C222.32554,27.1849315 223.899194,25.606863 223.899194,23.6609589 C223.899194,21.7150548 222.32554,20.1369863 220.385081,20.1369863 C218.444621,20.1369863 216.870968,21.7150548 216.870968,23.6609589 Z" id="Combined-Shape" fill="#FFFFFF" transform="translate(220.887097, 49.000000) rotate(-360.000000) translate(-220.887097, -49.000000) "></path>
                <g id="Group-6" transform="translate(153.114919, 68.000000) rotate(-90.000000) translate(-153.114919, -68.000000) translate(121.989919, 50.500000)">
                    <path d="M15.3876404,4.9 C15.3876404,2.9666 16.9529831,1.4 18.8848315,1.4 L58.4030899,1.4 C60.3349382,1.4 61.9002809,2.9666 61.9002809,4.9 L61.9002809,30.1 C61.9002809,32.0334 60.3349382,33.6 58.4030899,33.6 L18.8848315,33.6 C16.9529831,33.6 15.3876404,32.0334 15.3876404,30.1 L15.3876404,4.9 Z" id="Fill-94" fill="#FFFFFF"></path>
                    <polygon id="Fill-95" fill="#FC2C6A" points="0 35 50.0098315 35 50.0098315 0 0 0"></polygon>
                </g>
                <g id="Group-19">
                    <polygon id="Fill-4" fill="#20DADA" points="0.390167976 87.6999675 13.0316104 87.6999675 13.0316104 14.9593496 0.390167976 14.9593496"></polygon>
                    <path d="M0.390167976,91.8699187 L13.0316104,91.8699187 L13.0316104,94.8335431 C13.0316104,96.2864969 11.7016785,97.4634146 10.0598222,97.4634146 L3.36195614,97.4634146 C1.72009989,97.4634146 0.390167976,96.2864969 0.390167976,94.8335431 L0.390167976,91.8699187 Z" id="Fill-6" fill="#FF286C"></path>
                    <polygon id="Fill-7" fill="#E2E2E2" points="0.390167976 91.8699187 13.0316104 91.8699187 13.0316104 87.6747967 0.390167976 87.6747967"></polygon>
                    <path d="M6.63645201,0.975609756 L13.0077703,14.9790302 C9.4261953,14.9790302 6.63215755,16.9534309 6.63215755,20.3333008 C6.63215755,16.9534309 3.85006678,14.9790302 0.390167976,14.9790302 L6.63645201,0.975609756 Z" id="Fill-9" fill="#FFFFFF"></path>
                    <path d="M4.39772814,5.99456044 C5.08715466,6.36123363 5.8746382,6.56910569 6.71088919,6.56910569 C7.51330333,6.56910569 8.2708167,6.37771536 8.93988402,6.0382868 L6.63645201,0.975609756 L4.39772814,5.99456044 Z" id="Combined-Shape" fill="#20DADA"></path>
                    <polygon id="Fill-4" fill="#20DADA" points="0.390167976 87.6999675 13.0316104 87.6999675 13.0316104 14.9593496 0.390167976 14.9593496"></polygon>
                    <polygon id="Fill-7" fill="#E2E2E2" points="0.390167976 91.8699187 13.0316104 91.8699187 13.0316104 87.6747967 0.390167976 87.6747967"></polygon>
                    <path d="M7.41319154,14.9593496 L13.0316104,14.9593496 L13.0316104,87.6999675 L7.41319154,87.6999675 L7.41319154,14.9593496 Z" id="Combined-Shape" fill="#000000" opacity="0.22"></path>
                    <path d="M0.390167976,91.8699187 L13.0316104,91.8699187 L13.0316104,94.8335431 C13.0316104,96.2864969 11.7016785,97.4634146 10.0598222,97.4634146 L3.36195614,97.4634146 C1.72009989,97.4634146 0.390167976,96.2864969 0.390167976,94.8335431 L0.390167976,91.8699187 Z" id="Fill-6" fill="#FF286C"></path>
                    <path d="M7.41319154,91.8699187 L13.0316104,91.8699187 L13.0316104,94.8335431 C13.0316104,96.2864969 11.7016785,97.4634146 10.0598222,97.4634146 L7.41319154,97.4634146 L7.41319154,91.8699187 Z" id="Combined-Shape" fill="#000000" opacity="0.22"></path>
                    <path d="M7.41319154,87.6747967 L13.0316104,87.6747967 L13.0316104,91.8699187 L7.41319154,91.8699187 L7.41319154,87.6747967 Z" id="Combined-Shape" fill="#000000" opacity="0.22"></path>
                    <path d="M6.63645201,0.975609756 L13.0077703,14.9790302 C9.4261953,14.9790302 6.63215755,16.9534309 6.63215755,20.3333008 C6.63215755,16.9534309 3.85006678,14.9790302 0.390167976,14.9790302 L6.63645201,0.975609756 Z" id="Fill-9" fill="#FFFFFF"></path>
                    <path d="M7.41319154,2.68279338 L13.0077703,14.9790302 C10.5635615,14.9790302 8.48612761,15.8985557 7.41319154,17.5567842 L7.41319154,2.68279338 Z" id="Combined-Shape" fill="#000000" opacity="0.22"></path>
                    <g id="Group-10" transform="translate(3.199377, 0.975610)">
                        <path d="M1.19835074,5.01895068 C1.88777725,5.38562387 2.67526079,5.59349593 3.51151178,5.59349593 C4.31392593,5.59349593 5.0714393,5.40210561 5.74050662,5.06267704 L3.4370746,0 L1.19835074,5.01895068 Z" id="Combined-Shape-Copy" fill="#20DADA"></path>
                        <path d="M4.21381414,5.54393137 C4.75632341,5.46667572 5.27026038,5.30124049 5.74050662,5.06267704 L4.21381414,1.70718362 L4.21381414,5.54393137 Z" id="Combined-Shape" fill="#000000" opacity="0.22"></path>
                    </g>
                </g>
            </g>
        </g>
    </g>
</svg>