<?xml version="1.0" encoding="UTF-8" standalone="no"?>
<svg width="60px" height="60px" viewBox="0 0 60 60" version="1.1" xmlns="http://www.w3.org/2000/svg" xmlns:xlink="http://www.w3.org/1999/xlink">
    <!-- Generator: Sketch 42 (36781) - http://www.bohemiancoding.com/sketch -->
    <title>Page 1 Copy 8</title>
    <desc>Created with Sketch.</desc>
    <defs>
        <path d="M55.1263601,34.4636673 C54.5047396,33.8420379 53.4900497,33.84886 52.8752248,34.4636673 L34.4636806,52.8746855 C33.8420334,53.4963149 33.8488557,54.5110047 34.4636806,55.1258208 L52.8752248,73.537102 C53.4968719,74.1587403 54.5115616,74.1519181 55.1263601,73.537102 L73.5371153,55.1258208 C74.1587358,54.5041825 74.1519138,53.4894928 73.5371153,52.8746855 L55.1263601,34.4636673 Z M57.2866382,46.5812192 C57.7539449,46.1138525 58.509396,46.1115957 58.986182,46.5883749 L65.5447478,53.1468471 C66.0160733,53.6181658 66.0135358,54.3848802 65.5460386,54.852393 L54.852936,65.545852 C54.3823234,66.0164802 53.6161851,66.0133648 53.1486768,65.545852 L42.4553197,54.852393 C41.9846959,54.3817647 41.9797907,53.6236263 42.4565596,53.1468471 L49.0148913,46.5883749 C49.4861999,46.1170562 50.2496436,46.1163441 50.7145254,46.5812192 L53.1545621,49.0212211 C53.6219355,49.4885878 54.3821347,49.4860962 54.8469501,49.0212211 L57.2866382,46.5812192 Z" id="path-1"></path>
        <filter x="-50%" y="-50%" width="200%" height="200%" filterUnits="objectBoundingBox" id="filter-2">
            <feOffset dx="0" dy="0" in="SourceAlpha" result="shadowOffsetOuter1"></feOffset>
            <feGaussianBlur stdDeviation="5.5" in="shadowOffsetOuter1" result="shadowBlurOuter1"></feGaussianBlur>
            <feColorMatrix values="0 0 0 0 0   0 0 0 0 0.745098039   0 0 0 0 0.341176471  0 0 0 0.679545969 0" type="matrix" in="shadowBlurOuter1"></feColorMatrix>
        </filter>
    </defs>
    <g id="Pages" stroke="none" stroke-width="1" fill="none" fill-rule="evenodd">
        <g id="404-copy" transform="translate(-24.000000, -24.000000)">
            <g id="Page-1-Copy-8">
                <use fill="black" fill-opacity="1" filter="url(#filter-2)" xlink:href="#path-1"></use>
                <use fill="#00BE57" fill-rule="evenodd" xlink:href="#path-1"></use>
            </g>
        </g>
    </g>
</svg>