<?xml version="1.0" encoding="UTF-8" standalone="no"?>
<svg width="269px" height="320px" viewBox="0 0 269 320" version="1.1" xmlns="http://www.w3.org/2000/svg" xmlns:xlink="http://www.w3.org/1999/xlink">
    <!-- Generator: Sketch 42 (36781) - http://www.bohemiancoding.com/sketch -->
    <title>services</title>
    <desc>Created with Sketch.</desc>
    <defs>
        <polygon id="path-1" points="268.79857 0.707577236 0.000279792746 0.707577236 0.000279792746 170.665811 268.79857 170.665811"></polygon>
    </defs>
    <g id="Pages" stroke="none" stroke-width="1" fill="none" fill-rule="evenodd">
        <g id="Home" transform="translate(-945.000000, -240.000000)">
            <g id="services" transform="translate(945.000000, 240.000000)">
                <g id="Group-7">
                    <g id="Group-8">
                        <mask id="mask-2" fill="white">
                            <use xlink:href="#path-1"></use>
                        </mask>
                        <g id="Clip-7"></g>
                        <path d="M6.74748187,2.80499837 C4.17898446,2.80499837 2.09872539,4.88577886 2.09872539,7.4531935 L2.09872539,163.921454 C2.09872539,166.48747 4.17898446,168.56825 6.74748187,168.56825 L262.051368,168.56825 C264.618466,168.56825 266.700124,166.48747 266.700124,163.921454 L266.700124,7.4531935 C266.700124,4.88577886 264.618466,2.80499837 262.051368,2.80499837 L6.74748187,2.80499837 Z M6.74748187,0.707437398 L262.051368,0.707437398 C265.778207,0.707437398 268.79857,3.7279252 268.79857,7.4531935 L268.79857,163.921454 C268.79857,167.646722 265.778207,170.665811 262.051368,170.665811 L6.74748187,170.665811 C3.02064249,170.665811 0.000279792746,167.646722 0.000279792746,163.921454 L0.000279792746,7.4531935 C0.000279792746,3.7279252 3.02064249,0.707437398 6.74748187,0.707437398 L6.74748187,0.707437398 Z" id="Fill-6" fill="#FFFFFF" mask="url(#mask-2)"></path>
                    </g>
                    <path d="M1.39896373,7.09534959 C1.39896373,3.94900813 3.94927461,1.39837398 7.09694301,1.39837398 L262.400829,1.39837398 C265.547098,1.39837398 268.100207,3.94900813 268.100207,7.09534959 L268.100207,13.5516423 L1.39896373,13.5516423 L1.39896373,7.09534959 Z M6.99481865,7.83369106 C6.99481865,9.06985366 7.99787565,10.0738862 9.23595855,10.0738862 C10.4712435,10.0738862 11.4756995,9.06985366 11.4756995,7.83369106 C11.4756995,6.59613008 10.4712435,5.59349593 9.23595855,5.59349593 C7.99787565,5.59349593 6.99481865,6.59613008 6.99481865,7.83369106 Z M15.388601,7.83369106 C15.388601,9.06985366 16.391658,10.0738862 17.6297409,10.0738862 C18.8664249,10.0738862 19.8694819,9.06985366 19.8694819,7.83369106 C19.8694819,6.59613008 18.8664249,5.59349593 17.6297409,5.59349593 C16.391658,5.59349593 15.388601,6.59613008 15.388601,7.83369106 Z M23.7823834,7.83369106 C23.7823834,9.06985366 24.7854404,10.0738862 26.0235233,10.0738862 C27.2602073,10.0738862 28.2632642,9.06985366 28.2632642,7.83369106 C28.2632642,6.59613008 27.2602073,5.59349593 26.0235233,5.59349593 C24.7854404,5.59349593 23.7823834,6.59613008 23.7823834,7.83369106 Z" id="Combined-Shape" fill="#FFFFFF"></path>
                    <polygon id="Fill-21" fill="#FFFFFF" points="15.388601 53.6136585 71.3639378 53.6136585 71.3639378 27.9674797 15.388601 27.9674797"></polygon>
                    <polygon id="Fill-22" fill="#20DADA" points="88.134715 151.999057 252.094663 151.999057 252.094663 27.9674797 88.134715 27.9674797"></polygon>
                    <polygon id="Fill-23" fill="#FC2C6A" points="15.388601 152.919187 71.3639378 152.919187 71.3639378 62.9268293 15.388601 62.9268293"></polygon>
                    <polygon id="Fill-31" fill="#FFFFFF" points="19.5854922 74.7366264 53.1382383 74.7366264 53.1382383 69.9186992 19.5854922 69.9186992"></polygon>
                    <polygon id="Fill-32" fill="#FFFFFF" points="57.357513 74.7366264 68.0204145 74.7366264 68.0204145 69.9186992 57.357513 69.9186992"></polygon>
                    <g id="Group-4" transform="translate(19.285714, 79.554554)" fill="#FFFFFF">
                        <polygon id="Fill-33" points="0 4.81792717 21.3523834 4.81792717 21.3523834 0 0 0"></polygon>
                        <polygon id="Fill-34" points="25.0714286 4.81792717 46.423812 4.81792717 46.423812 0 25.0714286 0"></polygon>
                    </g>
                    <polygon id="Fill-35" fill="#FFFFFF" points="19.5854922 94.008335 27.9498964 94.008335 27.9498964 89.1904079 19.5854922 89.1904079"></polygon>
                    <polygon id="Fill-36" fill="#E2E2E2" points="37.7720207 43.9341138 65.0602073 43.9341138 65.0602073 37.7560976 37.7720207 37.7560976"></polygon>
                    <path d="M23.7823834,41.0213008 C23.7823834,38.4454959 25.8710363,36.3577236 28.4479275,36.3577236 C31.0234197,36.3577236 33.1120725,38.4454959 33.1120725,41.0213008 C33.1120725,43.5957073 31.0234197,45.6834797 28.4479275,45.6834797 C25.8710363,45.6834797 23.7823834,43.5957073 23.7823834,41.0213008" id="Fill-37" fill="#FC2C6A"></path>
                    <g id="Page-1-Copy" transform="translate(76.943005, 139.138211) scale(-1, 1) translate(-76.943005, -139.138211) translate(68.549223, 117.463415)">
                        <path d="M0,41.6112748 C0,40.8016163 3.47082902,40.1443805 7.75445596,40.1443805 C12.0366839,40.1443805 15.5103109,40.8016163 15.5103109,41.6112748 C15.5103109,42.4209333 12.0366839,43.0781691 7.75445596,43.0781691 C3.47082902,43.0781691 0,42.4209333 0,41.6112748" id="Fill-1" fill="#000000" opacity="0.22"></path>
                        <path d="M9.69985492,28.7978341 C10.1950881,28.7978341 10.5993886,29.1991675 10.5993886,29.6969886 C10.5993886,29.7501268 10.5951917,29.803265 10.585399,29.8536065 L8.82550259,40.4197203 C8.79332642,40.512013 8.77653886,40.6098992 8.77653886,40.7133789 C8.77653886,41.2084033 9.17804145,41.611135 9.67467358,41.611135 C10.1713057,41.611135 10.5742073,41.2084033 10.5742073,40.7133789 L14.5682487,16.731265 C15.2341554,10.7406309 11.6556062,6.74547642 7.75389637,6.74547642 C3.85358549,6.74547642 0.275036269,10.7406309 0.940943005,16.731265 L4.93638342,40.7133789 C4.93638342,41.2084033 5.33788601,41.611135 5.83451813,41.611135 C6.33115026,41.611135 6.73405181,41.2084033 6.73405181,40.7133789 C6.73405181,40.6098992 6.71586528,40.512013 6.68508808,40.4197203 L4.92519171,29.8536065 C4.91539896,29.803265 4.91120207,29.7501268 4.91120207,29.6969886 C4.91120207,29.1991675 5.31270466,28.7978341 5.81073575,28.7978341 L9.69985492,28.7978341 Z" id="Fill-4" fill="#20DADA"></path>
                        <path d="M5.17364767,2.57972033 C5.17364767,1.15477724 6.32919171,-0.000279674797 7.75473575,-0.000279674797 C9.18027979,-0.000279674797 10.3358238,1.15477724 10.3358238,2.57972033 C10.3358238,4.00606179 9.18027979,5.1611187 7.75473575,5.1611187 C6.32919171,5.1611187 5.17364767,4.00606179 5.17364767,2.57972033" id="Fill-6" fill="#20DADA"></path>
                        <path d="M9.69985492,28.7978341 C10.1950881,28.7978341 10.5993886,29.1991675 10.5993886,29.6969886 C10.5993886,29.7501268 10.5951917,29.803265 10.585399,29.8536065 L8.82550259,40.4197203 C8.79332642,40.512013 8.77653886,40.6098992 8.77653886,40.7133789 C8.77653886,41.2084033 9.17804145,41.611135 9.67467358,41.611135 C10.1713057,41.611135 10.5742073,41.2084033 10.5742073,40.7133789 L14.5682487,16.731265 C14.8088705,14.562387 14.4955026,12.6564033 13.8100104,11.1070049 L1.69918135,11.1070049 C1.01508808,12.6564033 0.69892228,14.562387 0.940943005,16.731265 L4.93638342,40.7133789 C4.93638342,41.2084033 5.33788601,41.611135 5.83451813,41.611135 C6.33115026,41.611135 6.73405181,41.2084033 6.73405181,40.7133789 C6.73405181,40.6098992 6.71586528,40.512013 6.68508808,40.4197203 L4.92519171,29.8536065 C4.91539896,29.803265 4.91120207,29.7501268 4.91120207,29.6969886 C4.91120207,29.1991675 5.31270466,28.7978341 5.81073575,28.7978341 L9.69985492,28.7978341 Z" id="Fill-8" fill="#FFFFFF"></path>
                        <path d="M5.39370466,7.24861138 C4.90966321,7.45976585 4.44660622,7.73804228 4.01432642,8.07505041 L4.01432642,12.5050992 L5.39370466,12.5050992 L5.39370466,7.24861138 Z" id="Fill-10" fill="#FFFFFF"></path>
                        <path d="M11.4964041,8.07477073 C11.0627254,7.7377626 10.5982694,7.46088455 10.1156269,7.24833171 L10.1156269,12.5048195 L11.4964041,12.5048195 L11.4964041,8.07477073 Z" id="Fill-12" fill="#FFFFFF"></path>
                        <path d="M10.254544,1.93101463 L12.2522642,1.93101463 C12.6663575,1.93101463 12.6663575,1.30873821 12.2522642,1.30873821 L10.0013316,1.30873821 C9.55925907,0.527047154 8.71848187,-0.000139837398 7.75459585,-0.000139837398 C6.79070984,-0.000139837398 5.95133161,0.527047154 5.5078601,1.30873821 L5.45889637,1.39963252 C5.37216062,1.5674374 5.30501036,1.74503089 5.25604663,1.93101463 L10.254544,1.93101463 Z" id="Fill-14" fill="#FFFFFF"></path>
                    </g>
                </g>
                <g id="Group-10" transform="translate(11.000000, 219.000000)">
                    <g id="Group-2">
                        <g id="Group-13" transform="translate(70.139896, 0.577236)">
                            <path d="M24.2552332,1.39837398 L24.2552332,99.1628943 L5.82668394,99.1628943 C3.38129534,99.1628943 1.39896373,97.18 1.39896373,94.7356423 L1.39896373,5.82422764 C1.39896373,3.37986992 3.38129534,1.39837398 5.82668394,1.39837398 L24.2552332,1.39837398 Z" id="Fill-39" fill="#FFFFFF"></path>
                            <path d="M186.535026,5.82422764 L186.535026,94.7356423 C186.535026,97.18 184.552694,99.1628943 182.107306,99.1628943 L163.678756,99.1628943 L163.678756,1.39837398 L182.107306,1.39837398 C184.552694,1.39837398 186.535026,3.37986992 186.535026,5.82422764" id="Fill-40" fill="#FFFFFF"></path>
                            <path d="M169.274611,49.7289756 C169.274611,46.2036748 172.132694,43.3495935 175.656684,43.3495935 C179.182073,43.3495935 182.038756,46.2036748 182.038756,49.7289756 C182.038756,53.252878 179.182073,56.1083577 175.656684,56.1083577 C172.132694,56.1083577 169.274611,53.252878 169.274611,49.7289756" id="Fill-41" fill="#0E3382"></path>
                            <path d="M13.5237824,61.0697886 C13.0089637,61.0697886 12.5906736,60.6530732 12.5906736,60.1370732 L12.5906736,38.688813 C12.5906736,38.1742114 13.0089637,37.7560976 13.5237824,37.7560976 C14.038601,37.7560976 14.4568912,38.1742114 14.4568912,38.688813 L14.4568912,60.1370732 C14.4568912,60.6530732 14.038601,61.0697886 13.5237824,61.0697886" id="Fill-42" fill="#0E3382"></path>
                            <path d="M5.47694301,97.7645203 L23.9054922,97.7645203 L162.910725,97.7645203 L181.339275,97.7645203 C183.204093,97.7645203 184.717772,96.2514797 184.717772,94.3860488 L184.717772,5.47463415 C184.717772,3.60920325 183.204093,2.09756098 181.339275,2.09756098 L162.910725,2.09756098 L23.9054922,2.09756098 L5.47694301,2.09756098 C3.61072539,2.09756098 2.0984456,3.60920325 2.0984456,5.47463415 L2.0984456,94.3860488 C2.0984456,96.2514797 3.61072539,97.7645203 5.47694301,97.7645203 L5.47694301,97.7645203 Z M5.47694301,99.8620813 C2.45238342,99.8620813 0,97.4093333 0,94.3860488 L0,5.47463415 C0,2.45134959 2.45238342,0 5.47694301,0 L23.9054922,0 L162.910725,0 L181.339275,0 C184.363834,0 186.816218,2.45134959 186.816218,5.47463415 L186.816218,94.3860488 C186.816218,97.4093333 184.363834,99.8620813 181.339275,99.8620813 L162.910725,99.8620813 L23.9054922,99.8620813 L5.47694301,99.8620813 Z" id="Fill-49" fill="#FFFFFF"></path>
                            <polygon id="Fill-58" fill="#20DADA" points="32.1761658 91.7754472 157.202953 91.7754472 157.202953 27.5691057 32.1761658 27.5691057"></polygon>
                            <polygon id="Fill-61" fill="#FFFFFF" points="32.1761658 23.7851057 157.202953 23.7851057 157.202953 7.99186992 32.1761658 7.99186992"></polygon>
                            <polygon id="Fill-62" fill="#E2E2E2" points="44.7668394 18.7887154 61.5725907 18.7887154 61.5725907 14.9837398 44.7668394 14.9837398"></polygon>
                            <path d="M39.2465285,13.5853659 C40.8329534,13.5853659 42.1172021,14.8704715 42.1172021,16.457626 C42.1172021,18.0433821 40.8329534,19.3284878 39.2465285,19.3284878 C37.6587047,19.3284878 36.373057,18.0433821 36.373057,16.457626 C36.373057,14.8704715 37.6587047,13.5853659 39.2465285,13.5853659 Z" id="Fill-63" fill="#FC2C6A"></path>
                            <polygon id="Fill-64" fill="#FC2C6A" points="98.3571429 87.5428981 151.919267 87.5428981 151.919267 54.9607843 98.3571429 54.9607843"></polygon>
                            <g id="Group-6" transform="translate(101.250000, 58.815126)" fill="#FFFFFF">
                                <polygon id="Fill-65" points="0.964285714 4.81792717 33.0705033 4.81792717 33.0705033 0 0.964285714 0"></polygon>
                                <polygon id="Fill-66" points="37.6071429 4.81792717 47.8111843 4.81792717 47.8111843 0 37.6071429 0"></polygon>
                                <polygon id="Fill-67" points="0.964285714 14.4537815 21.394752 14.4537815 21.394752 9.63585434 0.964285714 9.63585434"></polygon>
                                <polygon id="Fill-68" points="25.0714286 14.4537815 45.5018949 14.4537815 45.5018949 9.63585434 25.0714286 9.63585434"></polygon>
                                <polygon id="Fill-69" points="0.874352332 24.0896359 8.87782383 24.0896359 8.87782383 19.2717087 0.874352332 19.2717087"></polygon>
                            </g>
                        </g>
                        <path d="M33.7668394,98.1234699 C33.7668394,97.3138114 37.2376684,96.6565756 41.5212953,96.6565756 C45.8035233,96.6565756 49.2771503,97.3138114 49.2771503,98.1234699 C49.2771503,98.9331285 45.8035233,99.5903642 41.5212953,99.5903642 C37.2376684,99.5903642 33.7668394,98.9331285 33.7668394,98.1234699" id="Fill-1" fill="#000000" opacity="0.24"></path>
                        <path d="M43.4666943,85.3100293 C43.9619275,85.3100293 44.366228,85.7113626 44.366228,86.2091837 C44.366228,86.262322 44.3620311,86.3154602 44.3522383,86.3658016 L42.592342,96.9319154 C42.5601658,97.0242081 42.5433782,97.1220943 42.5433782,97.225574 C42.5433782,97.7205984 42.9448808,98.1233301 43.441513,98.1233301 C43.9381451,98.1233301 44.3410466,97.7205984 44.3410466,97.225574 L48.3350881,73.2434602 C49.0009948,67.252826 45.4224456,63.2576715 41.5207358,63.2576715 C37.6204249,63.2576715 34.0418756,67.252826 34.7077824,73.2434602 L38.7032228,97.225574 C38.7032228,97.7205984 39.1047254,98.1233301 39.6013575,98.1233301 C40.0979896,98.1233301 40.5008912,97.7205984 40.5008912,97.225574 C40.5008912,97.1220943 40.4827047,97.0242081 40.4519275,96.9319154 L38.6920311,86.3658016 C38.6822383,86.3154602 38.6780415,86.262322 38.6780415,86.2091837 C38.6780415,85.7113626 39.079544,85.3100293 39.5775751,85.3100293 L43.4666943,85.3100293 Z" id="Fill-4" fill="#00DCDC"></path>
                        <path d="M38.940487,59.0919154 C38.940487,57.6669724 40.0960311,56.5119154 41.5215751,56.5119154 C42.9471192,56.5119154 44.1026632,57.6669724 44.1026632,59.0919154 C44.1026632,60.5182569 42.9471192,61.6733138 41.5215751,61.6733138 C40.0960311,61.6733138 38.940487,60.5182569 38.940487,59.0919154" id="Fill-6" fill="#00DCDC"></path>
                        <path d="M43.4666943,85.3100293 C43.9619275,85.3100293 44.366228,85.7113626 44.366228,86.2091837 C44.366228,86.262322 44.3620311,86.3154602 44.3522383,86.3658016 L42.592342,96.9319154 C42.5601658,97.0242081 42.5433782,97.1220943 42.5433782,97.225574 C42.5433782,97.7205984 42.9448808,98.1233301 43.441513,98.1233301 C43.9381451,98.1233301 44.3410466,97.7205984 44.3410466,97.225574 L48.3350881,73.2434602 C48.5757098,71.0745821 48.262342,69.1685984 47.5768497,67.6192 L35.4660207,67.6192 C34.7819275,69.1685984 34.4657617,71.0745821 34.7077824,73.2434602 L38.7032228,97.225574 C38.7032228,97.7205984 39.1047254,98.1233301 39.6013575,98.1233301 C40.0979896,98.1233301 40.5008912,97.7205984 40.5008912,97.225574 C40.5008912,97.1220943 40.4827047,97.0242081 40.4519275,96.9319154 L38.6920311,86.3658016 C38.6822383,86.3154602 38.6780415,86.262322 38.6780415,86.2091837 C38.6780415,85.7113626 39.079544,85.3100293 39.5775751,85.3100293 L43.4666943,85.3100293 Z" id="Fill-8" fill="#FFFFFF"></path>
                        <path d="M39.160544,63.7608065 C38.6765026,63.971961 38.2134456,64.2502374 37.7811658,64.5872455 L37.7811658,69.0172943 L39.160544,69.0172943 L39.160544,63.7608065 Z" id="Fill-10" fill="#FFFFFF"></path>
                        <path d="M45.2632435,64.5869659 C44.8295648,64.2499577 44.3651088,63.9730797 43.8824663,63.7605268 L43.8824663,69.0170146 L45.2632435,69.0170146 L45.2632435,64.5869659 Z" id="Fill-12" fill="#FFFFFF"></path>
                        <path d="M44.0213834,58.4432098 L46.0191036,58.4432098 C46.4331969,58.4432098 46.4331969,57.8209333 46.0191036,57.8209333 L43.768171,57.8209333 C43.3260984,57.0392423 42.4853212,56.5120553 41.5214352,56.5120553 C40.5575492,56.5120553 39.718171,57.0392423 39.2746995,57.8209333 L39.2257358,57.9118276 C39.139,58.0796325 39.0718497,58.257226 39.022886,58.4432098 L44.0213834,58.4432098 Z" id="Fill-14" fill="#FFFFFF"></path>
                        <path d="M0.191709845,98.0662764 C0.191709845,96.7406179 5.06569948,95.6666667 11.0784456,95.6666667 C17.0911917,95.6666667 21.9651813,96.7406179 21.9651813,98.0662764 C21.9651813,99.391935 17.0911917,100.465886 11.0784456,100.465886 C5.06569948,100.465886 0.191709845,99.391935 0.191709845,98.0662764" id="Fill-1" fill="#000000" opacity="0.24"></path>
                        <g id="Group-9" transform="translate(4.388601, 1.975610)">
                            <polygon id="Fill-4" fill="#20DADA" points="0 86.7243577 12.5906736 86.7243577 12.5906736 13.9837398 0 13.9837398"></polygon>
                            <path d="M0,90.8943089 L12.5906736,90.8943089 L12.5906736,93.8579333 C12.5906736,95.3108872 11.2660827,96.4878049 9.6308203,96.4878049 L2.95985328,96.4878049 C1.32459083,96.4878049 0,95.3108872 0,93.8579333 L0,90.8943089 Z" id="Fill-6" fill="#FF286C"></path>
                            <polygon id="Fill-7" fill="#E2E2E2" points="0 90.8943089 12.5906736 90.8943089 12.5906736 86.699187 0 86.699187"></polygon>
                            <path d="M6.22119855,0 L12.5669292,14.0034204 C8.99973806,14.0034204 6.21692135,15.9778211 6.21692135,19.3576911 C6.21692135,15.9778211 3.44600363,14.0034204 0,14.0034204 L6.22119855,0 Z" id="Fill-9" fill="#FFFFFF"></path>
                            <path d="M3.99146555,5.01895068 C4.67812328,5.38562387 5.46244424,5.59349593 6.29533679,5.59349593 C7.09452839,5.59349593 7.84899953,5.40210561 8.51537984,5.06267704 L6.22119855,0 L3.99146555,5.01895068 Z" id="Combined-Shape" fill="#20DADA"></path>
                        </g>
                        <polygon id="Fill-4" fill="#20DADA" points="4.38860104 88.6999675 16.9792746 88.6999675 16.9792746 15.9593496 4.38860104 15.9593496"></polygon>
                        <polygon id="Fill-7" fill="#E2E2E2" points="4.38860104 92.8699187 16.9792746 92.8699187 16.9792746 88.6747967 4.38860104 88.6747967"></polygon>
                        <path d="M11.3834197,15.9593496 L16.9792746,15.9593496 L16.9792746,88.6999675 L11.3834197,88.6999675 L11.3834197,15.9593496 Z" id="Combined-Shape" fill="#000000" opacity="0.22"></path>
                        <g id="Group-12" transform="translate(4.388601, 92.869919)">
                            <path d="M0,0 L12.5906736,0 L12.5906736,2.96362436 C12.5906736,4.41657822 11.2660827,5.59349593 9.6308203,5.59349593 L2.95985328,5.59349593 C1.32459083,5.59349593 0,4.41657822 0,2.96362436 L0,0 Z" id="Fill-6" fill="#FF286C"></path>
                            <path d="M6.99481865,0 L12.5906736,0 L12.5906736,2.96362436 C12.5906736,4.41657822 11.2660827,5.59349593 9.6308203,5.59349593 L6.99481865,5.59349593 L6.99481865,1.11022302e-15 Z" id="Combined-Shape" fill="#000000" opacity="0.22"></path>
                        </g>
                        <path d="M11.3834197,88.6747967 L16.9792746,88.6747967 L16.9792746,92.8699187 L11.3834197,92.8699187 L11.3834197,88.6747967 Z" id="Combined-Shape" fill="#000000" opacity="0.22"></path>
                        <g id="Group-11" transform="translate(4.388601, 1.975610)">
                            <path d="M6.22119855,0 L12.5669292,14.0034204 C8.99973806,14.0034204 6.21692135,15.9778211 6.21692135,19.3576911 C6.21692135,15.9778211 3.44600363,14.0034204 0,14.0034204 L6.22119855,0 Z" id="Fill-9" fill="#FFFFFF"></path>
                            <path d="M6.99481865,1.70718362 L12.5669292,14.0034204 C10.1325365,14.0034204 8.06344574,14.922946 6.99481865,16.5811745 L6.99481865,1.70718362 Z" id="Combined-Shape" fill="#000000" opacity="0.22"></path>
                        </g>
                    </g>
                </g>
                <g id="Group-10" transform="translate(18.186528, 220.975610)">
                    <path d="M1.19353809,5.01895068 C1.88019582,5.38562387 2.66451677,5.59349593 3.49740933,5.59349593 C4.29660093,5.59349593 5.05107207,5.40210561 5.71745238,5.06267704 L3.42327109,0 L1.19353809,5.01895068 Z" id="Combined-Shape-Copy" fill="#20DADA"></path>
                    <path d="M4.19689119,5.54393137 C4.73722171,5.46667572 5.24909468,5.30124049 5.71745238,5.06267704 L4.19689119,1.70718362 L4.19689119,5.54393137 Z" id="Combined-Shape" fill="#000000" opacity="0.22"></path>
                </g>
            </g>
        </g>
    </g>
</svg>