<?xml version="1.0" encoding="UTF-8" standalone="no"?>
<svg width="449px" height="319px" viewBox="0 0 449 319" version="1.1" xmlns="http://www.w3.org/2000/svg" xmlns:xlink="http://www.w3.org/1999/xlink">
    <!-- Generator: Sketch 42 (36781) - http://www.bohemiancoding.com/sketch -->
    <title>work</title>
    <desc>Created with Sketch.</desc>
    <defs></defs>
    <g id="Pages" stroke="none" stroke-width="1" fill="none" fill-rule="evenodd">
        <g id="Home" transform="translate(-406.000000, -241.000000)">
            <g id="work" transform="translate(405.000000, 240.000000)">
                <g id="Browser" transform="translate(0.000000, 0.741339)" fill="#FFFFFF">
                    <path d="M11.8272224,3.12955104 C7.2939973,3.12955104 3.62174549,6.80692827 3.62174549,11.3445739 L3.62174549,273.032977 C3.62174549,277.570623 7.2939973,281.248 11.8272224,281.248 L438.237376,281.248 C442.769058,281.248 446.444396,277.570623 446.444396,273.032977 L446.444396,11.3445739 C446.444396,6.80692827 442.769058,3.12955104 438.237376,3.12955104 L11.8272224,3.12955104 Z M11.8272224,0.50395621 L438.237376,0.50395621 C444.217901,0.50395621 449.06589,5.35667325 449.06589,11.3445739 L449.06589,273.032977 C449.06589,279.019334 444.217901,283.873595 438.237376,283.873595 L11.8272224,283.873595 C5.84669806,283.873595 0.99716552,279.019334 0.99716552,273.032977 L0.99716552,11.3445739 C0.99716552,5.35667325 5.84669806,0.50395621 11.8272224,0.50395621 L11.8272224,0.50395621 Z" id="Fill-55"></path>
                    <path d="M2.30868402,11.344265 C2.30868402,6.0822641 6.57034768,1.81644473 11.8272224,1.81644473 L438.235833,1.81644473 C443.494251,1.81644473 447.754372,6.0822641 447.754372,11.344265 L447.754372,22.1416377 L2.30868402,22.1416377 L2.30868402,11.344265 Z M13.160651,11.9793501 C13.160651,14.0489366 14.8363088,15.7262284 16.9038791,15.7262284 C18.9714495,15.7262284 20.6471072,14.0489366 20.6471072,11.9793501 C20.6471072,9.91130805 18.9714495,8.23401629 16.9038791,8.23401629 C14.8363088,8.23401629 13.160651,9.91130805 13.160651,11.9793501 Z M25.498337,11.9793501 C25.498337,14.0489366 27.1739948,15.7262284 29.2415651,15.7262284 C31.3091355,15.7262284 32.9847932,14.0489366 32.9847932,11.9793501 C32.9847932,9.91130805 31.3091355,8.23401629 29.2415651,8.23401629 C27.1739948,8.23401629 25.498337,9.91130805 25.498337,11.9793501 Z M37.836023,11.9793501 C37.836023,14.0489366 39.5116808,15.7262284 41.5792511,15.7262284 C43.6468215,15.7262284 45.3224793,14.0489366 45.3224793,11.9793501 C45.3224793,9.91130805 43.6468215,8.23401629 41.5792511,8.23401629 C39.5116808,8.23401629 37.836023,9.91130805 37.836023,11.9793501 Z" id="Combined-Shape"></path>
                </g>
                <g id="Store" transform="translate(175.609756, 243.177829)">
                    <path d="M0.155736393,71.3980009 C0.155736393,68.4496123 22.2123917,66.0587766 49.4225433,66.0587766 C76.6311519,66.0587766 98.6878072,68.4496123 98.6878072,71.3980009 C98.6878072,74.3479339 76.6311519,76.7387697 49.4225433,76.7387697 C22.2123917,76.7387697 0.155736393,74.3479339 0.155736393,71.3980009 Z" id="Fill-1" fill-opacity="0.140000001" fill="#000000"></path>
                    <polygon id="Fill-66" fill="#E8E8E8" points="11.9677349 71.8721169 86.8724141 71.8721169 86.8724141 23.300157 11.9677349 23.300157"></polygon>
                    <path d="M21.3322856,23.3000025 L21.3322856,24.0289912 C21.3322856,26.5804516 19.2647153,28.6500381 16.7172835,28.6500381 L16.5861316,28.6500381 C14.0356139,28.6500381 11.9695865,26.5804516 11.9695865,24.0289912 L11.9695865,23.3000025 L21.3322856,23.3000025 Z M11.9675806,23.3000025 L22.7143176,0.156156321 L29.1469301,0.156156321 L21.3318228,23.3000025 L11.9675806,23.3000025 Z" id="Combined-Shape" fill="#23367F"></path>
                    <path d="M40.0572211,25.0118904 L49.4199202,25.0118904 L58.7826194,25.0118904 L68.1453185,25.0118904 L77.5080177,25.0118904 L86.8722598,25.0118904 L86.8722598,25.740879 C86.8722598,28.2923394 84.8046895,30.3603815 82.2557147,30.3603815 L82.1245628,30.3603815 C79.5740451,30.3603815 77.5080177,28.2923394 77.5080177,25.740879 C77.5080177,28.2923394 75.4419903,30.3603815 72.8930155,30.3603815 L72.7618637,30.3603815 C70.2128889,30.3603815 68.1453185,28.2923394 68.1453185,25.740879 C68.1453185,28.2923394 66.0792912,30.3603815 63.5303164,30.3603815 L63.3991645,30.3603815 C60.8501897,30.3603815 58.7826194,28.2923394 58.7826194,25.740879 C58.7826194,28.2923394 56.716592,30.3603815 54.1676172,30.3603815 L54.0364654,30.3603815 C51.4859476,30.3603815 49.4199202,28.2923394 49.4199202,25.740879 C49.4199202,28.2923394 47.3538928,30.3603815 44.8049181,30.3603815 L44.6722232,30.3603815 C42.1247914,30.3603815 40.0572211,28.2923394 40.0572211,25.740879 C40.0572211,28.2923394 37.9911937,30.3603815 35.4422189,30.3603815 L35.311067,30.3603815 C32.7605493,30.3603815 30.6960649,28.2923394 30.6960649,25.740879 C30.6960649,28.2923394 28.6284945,30.3603815 26.0779768,30.3603815 L25.9468249,30.3603815 C23.3978501,30.3603815 21.3318228,28.2923394 21.3318228,25.740879 C21.3318228,28.2923394 19.2642524,30.3603815 16.7168206,30.3603815 L16.5856687,30.3603815 C14.0366939,30.3603815 11.9691236,28.2923394 11.9691236,25.740879 L11.9691236,25.0118904 L21.3318228,25.0118904 L30.6960649,25.0118904 L40.0572211,25.0118904 Z" id="Fill-68" fill="#000000" opacity="0.14"></path>
                    <path d="M77.5087892,23.3000025 L86.8714883,23.3000025 L86.8714883,24.0289912 C86.8714883,26.5804516 84.8054609,28.6500381 82.2549432,28.6500381 L82.1237913,28.6500381 C79.5748166,28.6500381 77.5087892,26.5804516 77.5087892,24.0289912 L77.5087892,23.3000025 Z M69.6959963,0.15569298 L76.4510881,0.15569298 L86.8722598,23.2995392 L77.5080177,23.2995392 L69.6959963,0.15569298 Z" id="Combined-Shape" fill="#FC2C6A"></path>
                    <path d="M77.5087892,23.3000025 L86.8714883,23.3000025 L86.8714883,24.0289912 C86.8714883,26.5804516 84.8054609,28.6500381 82.2549432,28.6500381 L82.1237913,28.6500381 C79.5748166,28.6500381 77.5087892,26.5804516 77.5087892,24.0289912 L77.5087892,23.3000025 Z" id="Fill-69" fill="#EA1A58"></path>
                    <path d="M77.5087892,23.3000025 L77.5087892,24.0289912 C77.5087892,26.5804516 75.4412188,28.6500381 72.893787,28.6500381 L72.7626352,28.6500381 C70.2121174,28.6500381 68.14609,26.5804516 68.14609,24.0289912 L68.14609,23.3000025 L77.5087892,23.3000025 Z M69.6959963,0.15569298 L77.5080177,23.2995392 L68.1453185,23.2995392 L62.9378186,0.15569298 L69.6959963,0.15569298 Z" id="Combined-Shape" fill="#23367F"></path>
                    <path d="M77.5087892,23.3000025 L68.14609,23.3000025 L68.14609,24.0289912 C68.14609,26.5804516 70.2121174,28.6500381 72.7626352,28.6500381 L72.893787,28.6500381 C75.4412188,28.6500381 77.5087892,26.5804516 77.5087892,24.0289912 L77.5087892,23.3000025 Z" id="Fill-70" fill="#0C286F"></path>
                    <path d="M58.7823108,23.3000025 L58.7823108,24.0289912 C58.7823108,26.5804516 56.7162834,28.6500381 54.1673086,28.6500381 L54.0361568,28.6500381 C51.485639,28.6500381 49.4211546,26.5804516 49.4211546,24.0289912 L49.4211546,23.3000025 L58.7823108,23.3000025 Z M58.7823108,23.3000025 L49.4211546,23.3000025 L49.4196116,0.156156321 L56.1793323,0.156156321 L58.7823108,23.3000025 Z" id="Combined-Shape" fill="#FC2C6A"></path>
                    <path d="M58.7823108,23.3000025 L49.4211546,23.3000025 L49.4211546,24.0289912 C49.4211546,26.5804516 51.485639,28.6500381 54.0361568,28.6500381 L54.1673086,28.6500381 C56.7162834,28.6500381 58.7823108,26.5804516 58.7823108,24.0289912 L58.7823108,23.3000025 Z" id="Fill-71" fill="#EA1A58"></path>
                    <path d="M58.7823108,23.3000025 L68.1450099,23.3000025 L68.1450099,24.0289912 C68.1450099,26.5804516 66.0789826,28.6500381 63.5300078,28.6500381 L63.3988559,28.6500381 C60.8498811,28.6500381 58.7823108,26.5804516 58.7823108,24.0289912 L58.7823108,23.3000025 Z M58.7823108,23.3000025 L56.1793323,0.156156321 L62.93751,0.156156321 L68.1450099,23.3000025 L58.7823108,23.3000025 Z" id="Combined-Shape" fill="#FFFFFF"></path>
                    <path d="M58.7823108,23.3000025 L68.1450099,23.3000025 L68.1450099,24.0289912 C68.1450099,26.5804516 66.0789826,28.6500381 63.5300078,28.6500381 L63.3988559,28.6500381 C60.8498811,28.6500381 58.7823108,26.5804516 58.7823108,24.0289912 L58.7823108,23.3000025 Z" id="Fill-72" fill="#F7F7F7"></path>
                    <path d="M21.3322856,23.3000025 L11.9695865,23.3000025 L11.9695865,24.0289912 C11.9695865,26.5804516 14.0356139,28.6500381 16.5861316,28.6500381 L16.7172835,28.6500381 C19.2647153,28.6500381 21.3322856,26.5804516 21.3322856,24.0289912 L21.3322856,23.3000025 Z" id="Fill-73" fill="#0C286F"></path>
                    <path d="M21.3322856,23.3000025 L30.6949848,23.3000025 L30.6949848,24.0289912 C30.6949848,26.5804516 28.6289574,28.6500381 26.0784397,28.6500381 L25.9472878,28.6500381 C23.398313,28.6500381 21.3322856,26.5804516 21.3322856,24.0289912 L21.3322856,23.3000025 Z M30.6954477,23.3000025 L21.3327485,23.3000025 L29.1463129,0.156156321 L35.9044906,0.156156321 L30.6954477,23.3000025 Z" id="Combined-Shape" fill="#FC2C6A"></path>
                    <path d="M21.3322856,23.3000025 L30.6949848,23.3000025 L30.6949848,24.0289912 C30.6949848,26.5804516 28.6289574,28.6500381 26.0784397,28.6500381 L25.9472878,28.6500381 C23.398313,28.6500381 21.3322856,26.5804516 21.3322856,24.0289912 L21.3322856,23.3000025 Z" id="Fill-74" fill="#EA1A58"></path>
                    <path d="M40.0572211,23.3000025 L49.4199202,23.3000025 L49.4199202,24.0289912 C49.4199202,26.5804516 47.3538928,28.6500381 44.8049181,28.6500381 L44.6722232,28.6500381 C42.1247914,28.6500381 40.0572211,26.5804516 40.0572211,24.0289912 L40.0572211,23.3000025 Z M40.0572211,23.3000025 L42.6617425,0.156156321 L49.4183773,0.156156321 L49.4199202,23.3000025 L40.0572211,23.3000025 Z" id="Combined-Shape" fill="#23367F"></path>
                    <path d="M40.0572211,23.3000025 L49.4199202,23.3000025 L49.4199202,24.0289912 C49.4199202,26.5804516 47.3538928,28.6500381 44.8049181,28.6500381 L44.6722232,28.6500381 C42.1247914,28.6500381 40.0572211,26.5804516 40.0572211,24.0289912 L40.0572211,23.3000025 Z" id="Fill-75" fill="#0C286F"></path>
                    <path d="M40.0572211,23.3000025 L40.0572211,24.0289912 C40.0572211,26.5804516 37.9911937,28.6500381 35.4422189,28.6500381 L35.311067,28.6500381 C32.7605493,28.6500381 30.6960649,26.5804516 30.6960649,24.0289912 L30.6960649,23.3000025 L40.0572211,23.3000025 Z M40.0572211,23.3000025 L30.6960649,23.3000025 L35.9051078,0.156156321 L42.6617425,0.156156321 L40.0572211,23.3000025 Z" id="Combined-Shape" fill="#FFFFFF"></path>
                    <path d="M40.0572211,23.3000025 L30.6960649,23.3000025 L30.6960649,24.0289912 C30.6960649,26.5804516 32.7605493,28.6500381 35.311067,28.6500381 L35.4422189,28.6500381 C37.9911937,28.6500381 40.0572211,26.5804516 40.0572211,24.0289912 L40.0572211,23.3000025 Z" id="Fill-76" fill="#F7F7F7"></path>
                    <path d="M39.7333531,54.1048711 C39.7333531,49.2444317 43.6694516,45.3029506 48.525156,45.3029506 L50.316536,45.3029506 C55.1737833,45.3029506 59.1114248,49.2444317 59.1114248,54.1048711 L59.1114248,71.8708813 L39.7333531,71.8708813 L39.7333531,54.1048711 Z" id="Fill-78" fill="#FC2C6A"></path>
                    <path d="M14.7114316,60.3083795 C15.2591835,57.9669667 17.3591561,56.2248073 19.8649279,56.2248073 C22.6684916,56.2248073 24.9644204,58.4086844 25.14649,61.1701924 C25.7991634,60.7238412 26.5876174,60.4628262 27.4362471,60.4628262 C29.685887,60.4628262 31.5081263,62.2868424 31.5081263,64.5371316 L31.5081263,71.871808 L5.94123026,71.871808 L5.94123026,63.2351455 C6.21124877,60.6728738 8.36831097,58.6696994 10.989805,58.6696994 C12.4633346,58.6696994 13.7887398,59.3013866 14.7114316,60.3083795" id="Fill-79" fill="#23367F"></path>
                    <path d="M31.5081263,68.261276 L31.5081263,71.871808 L5.94123026,71.871808 L5.94123026,64.9317084 L14.6687557,64.9317084 L16.7446796,66.5808643 L17.8637849,65.4406276 L23.9071198,65.4406276 L28.8481973,68.261276 L31.5081263,68.261276 Z" id="Combined-Shape" fill-opacity="0.18" fill="#000000"></path>
                    <path d="M84.1327291,60.3083795 C83.5849773,57.9669667 81.4850047,56.2248073 78.9792329,56.2248073 C76.1756692,56.2248073 73.8797403,58.4086844 73.6992137,61.1701924 C73.0449974,60.7238412 72.2580863,60.4628262 71.4079137,60.4628262 C69.1598167,60.4628262 67.3360345,62.2868424 67.3360345,64.5371316 L67.3360345,71.871808 L92.9029305,71.871808 L92.9029305,63.2351455 C92.632912,60.6728738 90.4773927,58.6696994 87.8543557,58.6696994 C86.3808261,58.6696994 85.0554209,59.3013866 84.1327291,60.3083795" id="Fill-80" fill="#23367F"></path>
                    <path d="M92.9029305,64.0790328 L92.9029305,71.871808 L67.3360345,71.871808 L67.3360345,67.9218334 L77.7631213,67.6514319 L80.305805,65.4694974 L86.1361289,65.8087769 L88.6761878,63.5421418 L92.9029305,64.0790328 Z" id="Combined-Shape" fill-opacity="0.180000007" fill="#000000"></path>
                    <path d="M39.7333531,54.1048711 C39.7333531,49.2444317 43.6694516,45.3029506 48.525156,45.3029506 L50.316536,45.3029506 C55.1737833,45.3029506 59.1114248,49.2444317 59.1114248,54.1048711 L59.1114248,55.5721153 C59.1114248,50.7101315 55.1737833,46.7701947 50.316536,46.7701947 L48.525156,46.7701947 C43.6694516,46.7701947 39.7333531,50.7101315 39.7333531,55.5721153 L39.7333531,54.1048711 Z" id="Fill-88" fill-opacity="0.14" fill="#000000"></path>
                    <path d="M53.8158217,61.7262007 C53.8158217,60.9601448 54.4360928,60.3423578 55.1998594,60.3423578 C55.965169,60.3423578 56.5854401,60.9601448 56.5854401,61.7262007 C56.5854401,62.4907121 55.965169,63.1100436 55.1998594,63.1100436 C54.4360928,63.1100436 53.8158217,62.4907121 53.8158217,61.7262007" id="Fill-89" fill="#000000" opacity="0.14"></path>
                    <path d="M53.8158217,61.0338159 C53.8158217,60.2693044 54.4360928,59.6484285 55.1998594,59.6484285 C55.965169,59.6484285 56.5854401,60.2693044 56.5854401,61.0338159 C56.5854401,61.7983273 55.965169,62.4176588 55.1998594,62.4176588 C54.4360928,62.4176588 53.8158217,61.7983273 53.8158217,61.0338159" id="Fill-90" fill="#FFFFFF"></path>
                    <polygon id="Fill-91" fill="#B1C1EE" points="17.1783208 51.0079048 32.158948 51.0079048 32.158948 38.2969369 17.1783208 38.2969369"></polygon>
                    <polygon id="Fill-92" fill="#7B97E2" points="17.1783208 39.192728 32.158948 39.192728 32.158948 38.2969369 17.1783208 38.2969369"></polygon>
                    <polygon id="Fill-93" fill="#ECF0FB" points="27.0008229 38.2967824 31.7238325 38.2967824 19.2752074 51.0077503 17.1783208 51.0077503 17.1783208 48.3280992"></polygon>
                    <polygon id="Fill-94" fill="#D3DBF6" points="27.0008229 38.2967824 31.7238325 38.2967824 30.8443436 39.1925736 26.122877 39.1925736"></polygon>
                    <polygon id="Fill-95" fill="#B1C1EE" points="66.6858299 51.0079048 81.6664571 51.0079048 81.6664571 38.2969369 66.6858299 38.2969369"></polygon>
                    <polygon id="Fill-96" fill="#7B97E2" points="66.6858299 39.192728 81.6664571 39.192728 81.6664571 38.2969369 66.6858299 38.2969369"></polygon>
                    <polygon id="Fill-97" fill="#ECF0FB" points="76.508332 38.2967824 81.2297986 38.2967824 68.7827165 51.0077503 66.6858299 51.0077503 66.6858299 48.3280992"></polygon>
                    <polygon id="Fill-98" fill="#D3DBF6" points="76.508332 38.2967824 81.2297986 38.2967824 80.3518527 39.1925736 75.6303861 39.1925736"></polygon>
                </g>
                <g id="Character-1" transform="translate(54.878049, 174.339492)">
                    <path d="M0.531447871,50.2552716 C0.531447871,49.2915238 4.66041671,48.5100232 9.75219444,48.5100232 C14.8424292,48.5100232 18.971398,49.2915238 18.971398,50.2552716 C18.971398,51.2190193 14.8424292,52.0020644 9.75219444,52.0020644 C4.66041671,52.0020644 0.531447871,51.2190193 0.531447871,50.2552716" id="Fill-102" fill-opacity="0.14" fill="#000000"></path>
                    <path d="M7.43867579,35.00211 C6.84926395,35.00211 6.37094544,35.4824395 6.37094544,36.0708816 C6.37094544,36.1357492 6.37711729,36.1975279 6.38637507,36.2593066 L8.48017578,48.8374503 C8.51720689,48.9455631 8.53726541,49.0629426 8.53726541,49.1865 C8.53726541,49.7764866 8.0589469,50.2552716 7.46953505,50.2552716 C6.87858025,50.2552716 6.40026173,49.7764866 6.40026173,49.1865 L1.65102178,20.6385619 C0.85793883,13.5077552 5.11343064,8.7523396 9.75157725,8.7523396 C14.3897239,8.7523396 18.6452157,13.5077552 17.8521327,20.6385619 L13.1028928,49.1865 C13.1028928,49.7764866 12.6245743,50.2552716 12.0351624,50.2552716 C11.4442076,50.2552716 10.9658891,49.7764866 10.9658891,49.1865 C10.9658891,49.0629426 10.9859476,48.9455631 11.0229787,48.8374503 L13.1167794,36.2593066 C13.1275802,36.1975279 13.1322091,36.1357492 13.1322091,36.0708816 C13.1322091,35.4824395 12.6538906,35.00211 12.0644787,35.00211 L7.43867579,35.00211 Z" id="Fill-103" fill="#23367F"></path>
                    <path d="M6.68231536,3.7930543 C6.68231536,2.09722893 8.05709534,0.722652815 9.75126866,0.722652815 C11.4469849,0.722652815 12.8217649,2.09722893 12.8217649,3.7930543 C12.8217649,5.49042414 11.4469849,6.86500025 9.75126866,6.86500025 C8.05709534,6.86500025 6.68231536,5.49042414 6.68231536,3.7930543" id="Fill-104" fill="#23367F"></path>
                </g>
                <g id="Sneaker" transform="translate(115.742794, 73.572748)">
                    <path d="M109.785101,112.002529 C170.373792,112.002529 219.489011,114.47972 219.489011,117.534229 C219.489011,120.590126 170.373792,123.06593 109.785101,123.06593 C49.1950245,123.06593 0.0798058223,120.590126 0.0798058223,117.534229 C0.0798058223,114.47972 49.1950245,112.002529 109.785101,112.002529 Z" id="Fill-105" fill="#000000" opacity="0.14"></path>
                    <path d="M215.668735,79.1369931 C214.58129,64.2837647 211.903516,47.1364077 207.636599,27.6943294 C167.385923,18.4128405 145.426852,0.857392725 137.314646,7.41605251 C129.285571,49.3381843 85.6029671,74.1933677 16.8674316,79.9304603 C10.5868797,80.2343846 7.01917146,83.9342126 5.12932525,88.9871285 C27.1618285,103.99322 118.698829,101.922649 216.225424,93.001983 C176.897888,96.5980517 138.544396,99.082142 105.331077,99.78019 C99.154439,91.0357729 96.3972587,82.2955191 97.0595362,73.5552653 L146.383968,41.3614884 C163.988357,51.5741794 185.760382,53.8556937 211.69866,48.2101947 C213.65696,59.4362696 214.980586,69.7454989 215.668746,79.1370896 Z" id="Combined-Shape" fill="#23367F"></path>
                    <path d="M5.12932525,88.9871285 C27.1618285,103.99322 118.698829,101.922649 216.225424,93.001983 C216.247592,99.6203175 215.879044,105.675212 215.121166,111.166667 C214.762317,113.756269 210.093122,115.255074 205.254894,115.628388 C128.892084,119.357359 48.753737,119.970759 10.6616976,107.501534 C6.20587254,106.226162 3.34339288,103.038426 3.34339288,98.5767051 C3.51935363,95.1946793 4.05139245,91.8709404 5.12932525,88.9871285" id="Fill-107" fill="#FFFFFF"></path>
                    <path d="M140.97366,12.0776137 C140.97366,11.0437158 141.810512,10.2054952 142.844109,10.2054952 C143.876319,10.2054952 144.713172,11.0437158 144.713172,12.0776137 C144.713172,13.1115116 143.876319,13.95112 142.844109,13.95112 C141.810512,13.95112 140.97366,13.1115116 140.97366,12.0776137" id="Fill-108" fill="#FFFFFF"></path>
                    <path d="M138.576021,21.5318815 C138.576021,20.4979836 139.412874,19.6583753 140.44647,19.6583753 C141.478681,19.6583753 142.314148,20.4979836 142.314148,21.5318815 C142.314148,22.5657795 141.478681,23.4040001 140.44647,23.4040001 C139.412874,23.4040001 138.576021,22.5657795 138.576021,21.5318815" id="Fill-109" fill="#FFFFFF"></path>
                    <path d="M69.5883216,76.4075746 C69.2890498,74.2801041 70.7701683,72.3122286 72.894167,72.0138554 C75.0195512,71.7140944 76.9842154,73.1976338 77.2834872,75.3264921 C77.582759,77.4539625 76.1016406,79.421838 73.9776418,79.7202112 C71.8522576,80.0199723 69.8875935,78.5364328 69.5883216,76.4075746" id="Fill-110" fill="#081F59"></path>
                    <path d="M81.7981968,71.9976183 C81.5280208,70.0783152 82.8622744,68.3061171 84.7770599,68.0368873 C86.6918455,67.7662697 88.4639227,69.1027042 88.7327131,71.0220073 C89.0015035,72.9413104 87.6686355,74.7135086 85.7524644,74.9827384 C83.8390644,75.2533559 82.0669872,73.9169214 81.7981968,71.9976183" id="Fill-111" fill="#081F59"></path>
                    <path d="M92.195122,66.0805304 C91.9194039,64.118206 93.2841389,62.3015988 95.2446465,62.0268179 C97.2037686,61.752037 99.0174113,63.1190027 99.2931294,65.0827148 C99.5688474,67.0450392 98.2041124,68.8616464 96.2436048,69.1378151 C94.2844827,69.412596 92.47084,68.0456303 92.195122,66.0805304" id="Fill-112" fill="#081F59"></path>
                    <path d="M101.690768,60.20688 C101.419206,58.2709235 102.764544,56.4806842 104.697341,56.2086788 C106.628753,55.9380612 108.416071,57.2869857 108.689018,59.2229422 C108.961965,61.1588987 107.615242,62.9477503 105.682444,63.2197557 C103.749647,63.491761 101.962329,62.1428365 101.690768,60.20688" id="Fill-113" fill="#081F59"></path>
                    <path d="M110.488251,53.7613245 C110.223617,51.8725526 111.535703,50.1267223 113.421392,49.860268 C115.308468,49.5952016 117.051449,50.9122071 117.317468,52.800979 C117.582102,54.6897509 116.268631,56.436969 114.384327,56.7020355 C112.497252,56.9671019 110.752885,55.6500964 110.488251,53.7613245" id="Fill-114" fill="#081F59"></path>
                    <path d="M119.078738,47.0784582 C118.452484,45.2562998 119.41819,43.2689954 121.238761,42.6431055 C123.057945,42.0144401 125.042007,42.9845 125.669646,44.8052705 C126.297286,46.6302044 125.330195,48.6147333 123.509624,49.2433988 C121.690439,49.8706764 119.706378,48.9006165 119.078738,47.0784582" id="Fill-115" fill="#081F59"></path>
                    <path d="M127.21727,38.9496613 C126.288973,37.2010555 126.95125,35.0319515 128.695617,34.1021373 C130.44137,33.1723231 132.609705,33.8356831 133.538002,35.5842889 C134.464913,37.3328948 133.804021,39.5019987 132.058269,40.4304252 C130.312516,41.3602394 128.145567,40.6968794 127.21727,38.9496613" id="Fill-116" fill="#081F59"></path>
                    <path d="M211.69866,48.2101947 C214.671981,65.2549386 216.182196,80.1860898 216.226532,93.0008728 C176.898611,96.5980049 138.544709,99.0821354 105.331077,99.78019 C99.154439,91.0357729 96.3972587,82.2955191 97.0595362,73.5552653 L146.383968,41.3614884 C163.988357,51.5741794 185.760382,53.8556937 211.69866,48.2101947" id="Fill-117" fill="#FC2C6A"></path>
                    <path d="M16.867016,79.9299052 C33.9310525,78.5060404 49.4530079,75.9039483 63.2652343,72.1527724 C62.0542918,81.2052772 72.3971818,83.9142285 63.8055862,89.014329 C62.1651332,90.1550862 46.5184813,87.1283327 16.867016,79.9299052" id="Fill-118" fill="#FC2C6A"></path>
                    <path d="M137.315062,7.41619129 C137.712705,3.43186792 141.769501,-0.313756872 148.451853,1.20031376 L193.799849,11.2409197 C200.203712,12.7549903 205.772108,15.4639416 206.84727,24.1500719 C207.114675,25.3407892 207.377923,26.5217921 207.637015,27.6944682 C167.386339,18.4129793 145.425882,0.857531503 137.315062,7.41619129" id="Fill-119" fill="#FFFFFF"></path>
                    <path d="M74.9329563,68.5416237 L75.8751084,75.2487762 C76.2879927,78.1936506 71.8751187,78.8153771 71.4622344,75.869115 L70.5200823,69.1619625 C70.1085835,66.2157004 74.5186865,65.5953616 74.9329563,68.5416237" id="Fill-120" fill="#FFFFFF"></path>
                    <path d="M86.7070862,63.9203082 L87.6492382,70.626073 C88.0621225,73.5723351 83.6492485,74.1926738 83.2363642,71.2477995 L82.2955976,64.540647 C81.8827134,61.5943849 86.2928163,60.9740461 86.7070862,63.9203082" id="Fill-121" fill="#FFFFFF"></path>
                    <path d="M97.0498376,58.1821054 L97.9906041,64.8892579 C98.4048739,67.83552 93.9919999,68.4558588 93.5791156,65.5109845 L92.6369636,58.8024442 C92.2254648,55.8561821 96.6355678,55.2358433 97.0498376,58.1821054" id="Fill-122" fill="#FFFFFF"></path>
                    <path d="M106.595501,52.4452904 L107.537653,59.1524429 C107.950537,62.098705 103.539049,62.7190438 103.124779,59.7727816 L102.184012,53.0656291 C101.771128,50.119367 106.182616,49.4990283 106.595501,52.4452904" id="Fill-123" fill="#FFFFFF"></path>
                    <path d="M115.188759,45.9116107 L116.129525,52.6173754 C116.543795,55.5636375 112.130921,56.1839763 111.716651,53.2391019 L110.775885,46.5319494 C110.364386,43.5856873 114.774489,42.9653486 115.188759,45.9116107" id="Fill-124" fill="#FFFFFF"></path>
                    <path d="M122.316555,38.4089813 L124.518143,44.8122094 C125.485234,47.6252444 121.271875,49.0768649 120.306169,46.2652177 L118.103195,39.8619895 C117.13749,37.0489545 121.349463,35.5959463 122.316555,38.4089813" id="Fill-125" fill="#FFFFFF"></path>
                    <path d="M129.103375,29.6227919 L132.277596,35.6041342 C133.672813,38.2298186 129.737942,40.3253701 128.344111,37.6982979 L125.168505,31.7169556 C123.774674,29.0912712 127.708159,26.9957198 129.103375,29.6227919" id="Fill-126" fill="#FFFFFF"></path>
                    <path d="M5.12932525,88.9871285 C27.1576719,103.990444 118.671119,101.924036 216.182473,93.0047586 L216.218496,95.2127205 L216.204641,96.3118441 C118.684974,105.23251 26.2127488,107.198997 4.18163111,92.1956814 L4.42132568,91.2214582 C4.62499679,90.4540145 4.86053481,89.7087753 5.12932525,88.9871285" id="Fill-127" fill="#000000" opacity="0.119999997"></path>
                    <path d="M211.69866,48.2101947 L212.324914,51.9003082 C186.903435,57.196086 162.802353,55.7305877 145.516634,45.7038597 L96.9874893,77.3786059 C96.9389962,76.1046217 96.96255,74.8306374 97.0595362,73.5552653 L146.383968,41.3614884 C163.988357,51.5741794 185.760382,53.8556937 211.69866,48.2101947" id="Fill-128" fill="#000000" opacity="0.119999997"></path>
                    <path d="M16.867016,79.9299052 C33.9310525,78.5060404 49.4530079,75.9039483 63.2652343,72.1527724 C63.1834887,72.7703356 63.1543929,73.3559798 63.1696336,73.9166439 C50.6029876,77.2306683 36.6480528,79.6107152 21.4309114,81.0318044 L16.867016,79.9299052 Z" id="Fill-129" fill="#000000" opacity="0.119999997"></path>
                    <path d="M129.103375,29.6227919 L129.489934,30.3527655 C127.807916,29.5367494 125.42344,31.3200498 126.556793,33.4544592 L129.344455,38.7044402 C128.95651,38.5170895 128.605974,38.1895729 128.344111,37.6982979 L125.168505,31.7169556 C123.774674,29.0912712 127.708159,26.9957198 129.103375,29.6227919" id="Fill-130" fill="#000000" opacity="0.119999997"></path>
                    <path d="M122.316555,38.4089813 L122.43848,38.7656414 C120.896399,38.1799972 118.775172,39.5178195 119.491484,41.5981053 L121.569761,47.6446734 C121.028023,47.4406694 120.556947,46.996579 120.306169,46.2652177 L118.103195,39.8619895 C117.13749,37.0489545 121.349463,35.5959463 122.316555,38.4089813" id="Fill-131" fill="#000000" opacity="0.119999997"></path>
                    <path d="M110.776439,46.5323658 C110.366326,43.6055326 114.716851,42.9740916 115.179614,45.8523524 C113.77747,45.363853 111.887624,46.2936672 112.163342,48.2684816 L113.105494,54.9756341 C112.42382,54.7938346 111.852986,54.2095782 111.717206,53.2395183 L110.776439,46.5323658 Z" id="Fill-132" fill="#000000" opacity="0.119999997"></path>
                    <path d="M102.184566,53.0660455 C101.773068,50.1406001 106.124979,49.5077713 106.587742,52.3874199 C105.185598,51.8975327 103.294366,52.8287347 103.57147,54.8021613 L104.513622,61.5107016 C103.831947,61.3275143 103.261114,60.7432579 103.125333,59.773198 L102.184566,53.0660455 Z" id="Fill-133" fill="#000000" opacity="0.119999997"></path>
                    <path d="M92.6375178,58.8028605 C92.2274045,55.8774151 96.5779302,55.2445863 97.0406932,58.1256227 C95.6399347,57.6343477 93.748703,58.5655497 94.024421,60.5403641 L94.9665731,67.2475166 C94.2848984,67.0643293 93.7140651,66.4814607 93.5796698,65.5114008 L92.6375178,58.8028605 Z" id="Fill-134" fill="#000000" opacity="0.119999997"></path>
                    <path d="M82.2961519,64.5409245 C81.8846531,61.6140914 86.2365643,60.9826504 86.6993273,63.8622989 C85.2971833,63.3724117 83.4059516,64.302226 83.6830551,66.2784281 L84.6238217,72.9841929 C83.9421469,72.8023934 83.3726991,72.2195247 83.2369184,71.248077 L82.2961519,64.5409245 Z" id="Fill-135" fill="#000000" opacity="0.119999997"></path>
                    <path d="M70.5206365,69.1623788 C70.1105233,66.2369334 74.4624345,65.6041047 74.9251974,68.4837532 C73.5230535,67.993866 71.6318218,68.9236802 71.9089253,70.8998824 L72.8496919,77.6070349 C72.1680171,77.4238477 71.5985693,76.840979 71.4627886,75.8695313 L70.5206365,69.1623788 Z" id="Fill-136" fill="#000000" opacity="0.119999997"></path>
                </g>
                <g id="Tag" transform="translate(358.203991, 115.475751) rotate(-330.000000) translate(-358.203991, -115.475751) translate(326.274945, 83.549654)">
                    <path d="M26.2253297,9.30990481 L53.321302,36.4338439 C54.5186413,37.6323507 54.5186413,39.5752909 53.321302,40.7737977 L41.037774,53.0693039 C39.8388918,54.2662662 37.8978444,54.2662662 36.7020481,53.0693039 L9.60607585,25.9453648 L9.60607585,13.3872991 C9.60607585,11.1354655 11.429858,9.30990481 13.6779551,9.30990481 L26.2253297,9.30990481 Z M13.2767847,12.9841931 C12.4003817,13.8629951 12.4003817,15.2869942 13.2767847,16.1642518 C14.1547306,17.0430538 15.5773424,17.0430538 16.4537454,16.1642518 C17.3301484,15.2869942 17.3301484,13.8629951 16.4537454,12.9841931 C15.5773424,12.1069355 14.1547306,12.1069355 13.2767847,12.9841931 L13.2767847,12.9841931 Z" id="Fill-137" fill="#FFFFFF" transform="translate(31.912691, 31.638465) rotate(-45.000000) translate(-31.912691, -31.638465) "></path>
                    <path d="M29.0311205,33.1979334 C28.422629,32.9976432 27.8694633,32.7940179 27.3716066,32.5870513 C26.87375,32.3800848 26.4450465,32.1297258 26.0854834,31.8359669 C25.7259203,31.5422079 25.4458801,31.1917053 25.2453545,30.7844486 C25.0448289,30.3771919 24.9445676,29.879812 24.9445676,29.2922941 C24.9445676,28.3843119 25.2349796,27.6198825 25.8158124,26.9989829 C26.3966452,26.3780833 27.2263938,25.9541421 28.3050832,25.7271465 L28.3050832,24.1048041 C28.4295473,24.0780987 28.6231554,24.0447175 28.885913,24.0046595 C29.1486707,23.9646015 29.418339,23.9445727 29.694926,23.9445727 C30.2342707,23.9445727 30.6560596,24.034702 30.9603054,24.2149632 C31.2645511,24.3952243 31.4166717,24.7791081 31.4166717,25.366626 L31.4166717,25.627002 C32.2740914,25.7338234 32.9620913,25.9474631 33.480692,26.2679274 C33.9992927,26.5883917 34.2585891,27.0290235 34.2585891,27.589836 C34.2585891,27.9370057 34.1756143,28.2340983 34.0096621,28.4811229 C33.8437098,28.7281475 33.6431873,28.938449 33.4080883,29.1120339 C33.1038426,28.9250964 32.6958828,28.7615285 32.1841968,28.6213254 C31.6725108,28.4811222 31.1124305,28.4110217 30.503939,28.4110217 C29.8816182,28.4110217 29.4252565,28.4944747 29.1348401,28.6613832 C28.8444237,28.8282917 28.6992177,29.0385932 28.6992177,29.2922941 C28.6992177,29.4925843 28.7891072,29.6561522 28.9688887,29.7830027 C29.1486703,29.9098531 29.4183386,30.0266873 29.7779017,30.1335087 L30.8773297,30.4740004 C32.1772887,30.8745807 33.1764443,31.3853131 33.8748266,32.0062127 C34.5732088,32.6271123 34.9223947,33.4716566 34.9223947,34.5398709 C34.9223947,35.4478531 34.6250681,36.2189588 34.030406,36.8532111 C33.4357439,37.4874634 32.5645078,37.9180808 31.4166717,38.1450764 L31.4166717,39.7473899 C31.2922075,39.7740953 31.0985995,39.8074765 30.8358418,39.8475345 C30.5730841,39.8875925 30.3034158,39.9076212 30.0268288,39.9076212 C29.4874841,39.9076212 29.0656952,39.817492 28.7614495,39.6372308 C28.4572038,39.4569697 28.3050832,39.0730859 28.3050832,38.485568 L28.3050832,38.2852788 C27.8072265,38.2318681 27.3543221,38.145077 26.9463562,38.0249029 C26.5383904,37.9047287 26.1857472,37.7511752 25.8884161,37.5642377 C25.5910851,37.3773002 25.3594469,37.1569843 25.1934947,36.9032834 C25.0275425,36.6495825 24.9445676,36.3625042 24.9445676,36.0420399 C24.9445676,35.6548122 25.0621154,35.3243383 25.2972143,35.0506084 C25.5323133,34.7768784 25.7881525,34.5665769 26.0647395,34.4196974 C26.4519613,34.7134564 26.9256095,34.9671535 27.4856982,35.1807963 C28.0457869,35.3944392 28.6577266,35.5012591 29.3215354,35.5012591 C29.9991736,35.5012591 30.4762791,35.4011155 30.7528661,35.2008253 C31.0294531,35.0005351 31.1677446,34.7668667 31.1677446,34.4998131 C31.1677446,34.2327595 31.0571114,34.0291342 30.8358418,33.8889311 C30.6145722,33.7487279 30.3034165,33.611865 29.9023653,33.4783382 L29.0311205,33.1979334 Z" id="$" fill="#23367F"></path>
                </g>
                <g id="Love" transform="translate(376.164080, 164.362587)">
                    <path d="M0.401890415,84.5740666 C0.401890415,83.6087743 4.53085926,82.8272738 9.62263698,82.8272738 C14.7128717,82.8272738 18.8418406,83.6087743 18.8418406,84.5740666 C18.8418406,85.5378143 14.7128717,86.3193149 9.62263698,86.3193149 C4.53085926,86.3193149 0.401890415,85.5378143 0.401890415,84.5740666" id="Fill-99" fill-opacity="0.14" fill="#000000"></path>
                    <path d="M7.30911834,69.319515 C6.71970649,69.319515 6.24138798,69.7998444 6.24138798,70.389831 C6.24138798,70.4531542 6.24755983,70.5149329 6.25681761,70.5767116 L8.35061833,83.1548553 C8.38764944,83.2645125 8.40770796,83.3818921 8.40770796,83.503905 C8.40770796,84.0938916 7.92938944,84.574221 7.3399776,84.574221 C6.74902279,84.574221 6.27070428,84.0938916 6.27070428,83.503905 L1.52146433,54.9575113 C0.729924338,47.8251602 4.98387318,43.071289 9.6220198,43.071289 C14.2601664,43.071289 18.5156582,47.8251602 17.7241182,54.9575113 L12.9748783,83.503905 C12.9748783,84.0938916 12.4950168,84.574221 11.905605,84.574221 C11.3146501,84.574221 10.8363316,84.0938916 10.8363316,83.503905 C10.8363316,83.3818921 10.8563902,83.2645125 10.8949642,83.1548553 L12.987222,70.5767116 C12.9995657,70.5149329 13.0026516,70.4531542 13.0026516,70.389831 C13.0026516,69.7998444 12.5258761,69.319515 11.9349213,69.319515 L7.30911834,69.319515 Z" id="Fill-100" fill="#23367F"></path>
                    <path d="M6.5527579,38.1118493 C6.5527579,36.4144795 7.92753789,35.0399033 9.6217112,35.0399033 C11.3174275,35.0399033 12.6922075,36.4144795 12.6922075,38.1118493 C12.6922075,39.8092191 11.3174275,41.1837953 9.6217112,41.1837953 C7.92753789,41.1837953 6.5527579,39.8092191 6.5527579,38.1118493" id="Fill-101" fill="#23367F"></path>
                    <path d="M20.8296397,2.87713889 C20.8296397,1.38981664 22.0331508,0.185131952 23.5190242,0.185131952 L56.4165371,0.185131952 C57.9024105,0.185131952 59.1074645,1.38981664 59.1074645,2.87713889 L59.1074645,35.8067315 C59.1074645,37.2925093 57.9024105,38.4987384 56.4165371,38.4987384 L23.5190242,38.4987384 C22.0331508,38.4987384 20.8296397,37.2925093 20.8296397,35.8067315 L20.8296397,2.87713889 Z" id="Fill-138" fill="#FFFFFF"></path>
                    <polygon id="Fill-139" fill="#FFFFFF" points="30.0030173 33.7484196 30.0030173 45.9404464 39.177475 36.7570424"></polygon>
                    <path d="M39.9674721,13.6281775 C40.3624706,10.7199451 42.8543557,8.47737822 45.8708483,8.47737822 C49.1619883,8.47737822 51.8282282,11.1477626 51.8282282,14.4405674 C51.9377786,22.4609874 46.8568016,21.6393307 40.0214758,30.2064922 C33.1861499,21.6393307 28.1067159,22.4609874 28.1067159,14.4405674 C28.1067159,11.1477626 30.7729559,8.47737822 34.0640958,8.47737822 C37.0790454,8.47737822 39.5709306,10.7199451 39.9674721,13.6281775" id="Fill-140" fill="#FC2C6A"></path>
                </g>
                <g id="rating" transform="translate(13.968958, 103.503464)">
                    <path d="M0.803389101,4.54563175 C0.803389101,2.18022454 2.70871584,0.261775203 5.06247411,0.261775203 L91.374384,0.261775203 C93.7281423,0.261775203 95.633469,2.18022454 95.633469,4.54563175 L95.633469,56.951953 C95.633469,59.3173602 93.7281423,61.2337686 91.374384,61.2337686 L5.06247411,61.2337686 C2.70871584,61.2337686 0.803389101,59.3173602 0.803389101,56.951953 L0.803389101,4.54563175 Z" id="Fill-141" fill="#FFFFFF"></path>
                    <polygon id="Fill-139" fill="#FFFFFF" transform="translate(39.509624, 63.962064) scale(-1, 1) translate(-39.509624, -63.962064) " points="34.9223947 57.8660508 34.9223947 70.0580776 44.0968524 60.8746736"></polygon>
                    <polygon id="Fill-143" fill="#FC2C6A" points="19.9213848 51.6458079 15.2260429 48.2130081 10.5266428 51.6458079 12.322398 46.0904684 7.62299787 42.6597096 13.4302877 42.6597096 15.2260429 37.1043701 17.0177399 42.6597096 22.8250297 42.6597096 18.1276587 46.0904684"></polygon>
                    <polygon id="Fill-144" fill="#FC2C6A" points="36.3603572 51.6458079 31.6650153 48.2130081 26.9656152 51.6458079 28.7613704 46.0904684 24.0619703 42.6597096 29.8692601 42.6597096 31.6650153 37.1043701 33.4567123 42.6597096 39.2640021 42.6597096 34.5666311 46.0904684"></polygon>
                    <polygon id="Fill-145" fill="#FC2C6A" points="52.7991267 51.6458079 48.1037848 48.2130081 43.4043847 51.6458079 45.2001399 46.0904684 40.5007398 42.6597096 46.3080296 42.6597096 48.1037848 37.1043701 49.8954818 42.6597096 55.7027716 42.6597096 51.0054006 46.0904684"></polygon>
                    <polygon id="Fill-146" fill="#FC2C6A" points="69.2380991 51.6458079 64.5407281 48.2130081 59.8433571 51.6458079 61.6391123 46.0904684 56.9397122 42.6597096 62.747002 42.6597096 64.5407281 37.1043701 66.3344542 42.6597096 72.141744 42.6597096 67.444373 46.0904684"></polygon>
                    <polygon id="Fill-147" fill="#E8E8E8" points="85.6768686 51.6458079 80.9794976 48.2130081 76.2821266 51.6458079 78.0758527 46.0904684 73.3784817 42.6597096 79.1857715 42.6597096 80.9794976 37.1043701 82.7732237 42.6597096 88.5805135 42.6597096 83.8831425 46.0904684"></polygon>
                    <path d="M7.74088869,21.0122538 C7.74088869,14.8772978 12.6837811,9.90769763 18.7792033,9.90769763 C24.8766547,9.90769763 29.8195471,14.8772978 29.8195471,21.0122538 C29.8195471,27.1431281 24.8766547,32.1127282 18.7792033,32.1127282 C12.6837811,32.1127282 7.74088869,27.1431281 7.74088869,21.0122538" id="Fill-148" fill="#20DADA"></path>
                    <path d="M18.780015,32.1137487 C15.8337589,32.1137487 13.1573735,30.9545154 11.1769699,29.060557 C12.3437036,25.0073225 15.4624333,22.5317065 18.780015,22.5317065 C22.0975967,22.5317065 25.2163264,25.0073225 26.38306,29.060557 C24.4026565,30.9545154 21.726271,32.1137487 18.780015,32.1137487 M15.7525949,17.613129 C15.7525949,15.9293835 17.108035,14.5640191 18.780015,14.5640191 C20.451995,14.5640191 21.8094642,15.9293835 21.8094642,17.613129 C21.8094642,19.2948335 20.451995,20.6581571 18.780015,20.6581571 C17.108035,20.6581571 15.7525949,19.2948335 15.7525949,17.613129" id="Fill-149" fill="#23367F"></path>
                    <polygon id="Fill-150" fill="#000000" opacity="0.12" points="36.8024986 20.0728259 70.4023978 20.0728259 70.4023978 15.4644657 36.8024986 15.4644657"></polygon>
                    <polygon id="Fill-151" fill="#000000" opacity="0.12" points="74.4545145 20.0728259 85.1357072 20.0728259 85.1357072 15.4644657 74.4545145 15.4644657"></polygon>
                    <polygon id="Fill-152" fill="#000000" opacity="0.12" points="36.8024986 26.8322985 58.1831459 26.8322985 58.1831459 22.2218974 36.8024986 22.2218974"></polygon>
                </g>
            </g>
        </g>
    </g>
</svg>