<?xml version="1.0" encoding="UTF-8" standalone="no"?>
<svg width="109px" height="18px" viewBox="0 0 109 18" version="1.1" xmlns="http://www.w3.org/2000/svg" xmlns:xlink="http://www.w3.org/1999/xlink">
    <!-- Generator: Sketch 42 (36781) - http://www.bohemiancoding.com/sketch -->
    <title>iamcamilo copy</title>
    <desc>Created with Sketch.</desc>
    <defs></defs>
    <g id="Pages" stroke="none" stroke-width="1" fill="none" fill-rule="evenodd">
        <path d="M1.42108547e-14,2.11517067 C1.42108547e-14,1.51978632 0.199764121,1.01841754 0.599298357,0.611049305 C0.998832592,0.203681065 1.52761997,0 2.18567636,0 C2.84373275,0 3.37252013,0.203681065 3.77205436,0.611049305 C4.1715886,1.01841754 4.37135272,1.51978632 4.37135272,2.11517067 C4.37135272,2.71055502 4.1715886,3.2119238 3.77205436,3.61929204 C3.37252013,4.02666028 2.84373275,4.23034134 2.18567636,4.23034134 C1.52761997,4.23034134 0.998832592,4.02666028 0.599298357,3.61929204 C0.199764121,3.2119238 1.42108547e-14,2.71055502 1.42108547e-14,2.11517067 Z M4.18333755,16.6863464 C4.01098945,16.7176824 3.75638811,16.7607688 3.41952592,16.8156068 C3.08266372,16.8704449 2.74188963,16.8978635 2.39719343,16.8978635 C2.05249722,16.8978635 1.74305868,16.8743618 1.46886852,16.8273578 C1.19467836,16.7803537 0.96357869,16.6863471 0.775562579,16.545335 C0.587546468,16.4043229 0.442619557,16.2123927 0.340777497,15.9695386 C0.238935437,15.7266844 0.188015171,15.409412 0.188015171,15.0177118 L0.188015171,5.45243995 C0.360363272,5.42110393 0.614964603,5.37801755 0.951826802,5.32317952 C1.288689,5.26834149 1.62946309,5.24092288 1.97415929,5.24092288 C2.3188555,5.24092288 2.62829404,5.26442454 2.9024842,5.31142857 C3.17667436,5.3584326 3.40777403,5.45243924 3.59579014,5.59345133 C3.78380625,5.73446341 3.92873316,5.92639364 4.03057522,6.16924779 C4.13241728,6.41210193 4.18333755,6.72937436 4.18333755,7.12107459 L4.18333755,16.6863464 Z M11.6099368,14.1716435 C11.8762929,14.1716435 12.1700637,14.1442249 12.4912579,14.0893869 C12.8124521,14.0345488 13.0513856,13.9601269 13.2080657,13.8661188 L13.2080657,11.9859671 L11.5159292,12.1269785 C11.0772249,12.1583145 10.7168661,12.2523212 10.434842,12.4090013 C10.1528178,12.5656814 10.0118078,12.800698 10.0118078,13.1140582 C10.0118078,13.4274183 10.1332331,13.6820197 10.3760872,13.8778698 C10.6189414,14.0737199 11.0302204,14.1716435 11.6099368,14.1716435 Z M11.4219216,4.93539823 C12.2679941,4.93539823 13.039632,5.02157099 13.7368584,5.19391909 C14.4340848,5.36626719 15.0294602,5.62870241 15.5230025,5.98123262 C16.0165448,6.33376282 16.3964883,6.78029439 16.6628445,7.32084071 C16.9292007,7.86138703 17.0623767,8.49984883 17.0623767,9.23624526 L17.0623767,14.50067 C17.0623767,14.9080383 16.9487854,15.2409785 16.7215992,15.4995006 C16.4944131,15.7580228 16.224144,15.9812886 15.9107838,16.1693047 C14.8923632,16.780357 13.4587619,17.0858786 11.6099368,17.0858786 C10.7795323,17.0858786 10.0313961,17.0075398 9.36550569,16.8508597 C8.6996153,16.6941796 8.12774154,16.459163 7.64986726,16.1458028 C7.17199298,15.8324426 6.80380028,15.4329144 6.54527813,14.9472061 C6.28675598,14.4614978 6.15749684,13.8974579 6.15749684,13.2550695 C6.15749684,12.1739769 6.47868621,11.3435849 7.12107459,10.7638685 C7.76346297,10.1841522 8.75836663,9.82379337 10.1058154,9.68278129 L13.1845638,9.35375474 L13.1845638,9.18924147 C13.1845638,8.7348692 12.9847997,8.40976288 12.5852655,8.21391277 C12.1857313,8.01806265 11.6099405,7.92013906 10.8578761,7.92013906 C10.2624918,7.92013906 9.68278411,7.98281016 9.11873578,8.10815424 C8.55468745,8.23349831 8.04548478,8.39017605 7.59111252,8.57819216 C7.3874284,8.43718008 7.21508288,8.22174818 7.0740708,7.93189001 C6.93305871,7.64203184 6.86255373,7.34042719 6.86255373,7.027067 C6.86255373,6.61969876 6.96047732,6.29459245 7.15632743,6.05173831 C7.35217755,5.80888416 7.6537822,5.60128615 8.06115044,5.42893805 C8.51552271,5.25658995 9.05214398,5.13124776 9.67103034,5.05290771 C10.2899167,4.97456767 10.8735413,4.93539823 11.4219216,4.93539823 Z M24.9825158,4.93539823 C25.6249042,4.93539823 26.2555321,5.02548793 26.8744185,5.20567004 C27.4933048,5.38585214 28.0299261,5.65612125 28.4842984,6.01648546 C28.9543386,5.70312528 29.483126,5.444607 30.0706764,5.24092288 C30.6582267,5.03723876 31.3671935,4.93539823 32.197598,4.93539823 C32.7929823,4.93539823 33.3766069,5.0137371 33.9484893,5.17041719 C34.5203716,5.32709729 35.0295743,5.57386473 35.4761125,5.91072693 C35.9226508,6.24758913 36.2790926,6.69412069 36.5454488,7.25033502 C36.811805,7.80654935 36.944981,8.48418058 36.944981,9.28324905 L36.944981,16.6863464 C36.7883009,16.7333504 36.5415335,16.7803537 36.2046713,16.8273578 C35.8678091,16.8743618 35.5192011,16.8978635 35.1588369,16.8978635 C34.8141407,16.8978635 34.5047022,16.8743618 34.230512,16.8273578 C33.9563218,16.7803537 33.7252222,16.6863471 33.5372061,16.545335 C33.34919,16.4043229 33.204263,16.2123927 33.102421,15.9695386 C33.0005789,15.7266844 32.9496587,15.409412 32.9496587,15.0177118 L32.9496587,9.40075853 C32.9496587,8.93071826 32.8164826,8.58994417 32.5501264,8.37842604 C32.2837703,8.16690792 31.9234115,8.06115044 31.4690392,8.06115044 C31.2496871,8.06115044 31.0146704,8.11207071 30.7639823,8.21391277 C30.5132942,8.31575483 30.3252809,8.4215123 30.1999368,8.53118837 C30.2156048,8.59386041 30.2234387,8.65261456 30.2234387,8.70745259 L30.2234387,16.6863464 C30.0510906,16.7333504 29.7964893,16.7803537 29.4596271,16.8273578 C29.1227649,16.8743618 28.7819908,16.8978635 28.4372946,16.8978635 C28.0925984,16.8978635 27.7831598,16.8743618 27.5089697,16.8273578 C27.2347795,16.7803537 27.0036798,16.6863471 26.8156637,16.545335 C26.6276476,16.4043229 26.4827207,16.2123927 26.3808786,15.9695386 C26.2790366,15.7266844 26.2281163,15.409412 26.2281163,15.0177118 L26.2281163,9.40075853 C26.2281163,8.93071826 26.0831894,8.58994417 25.7933312,8.37842604 C25.5034731,8.16690792 25.1548651,8.06115044 24.7474968,8.06115044 C24.4654727,8.06115044 24.2226222,8.10423682 24.0189381,8.19041087 C23.8152539,8.27658492 23.6429084,8.35884074 23.5018963,8.43718078 L23.5018963,16.6863464 C23.3452162,16.7333504 23.0984488,16.7803537 22.7615866,16.8273578 C22.4247244,16.8743618 22.0761164,16.8978635 21.7157522,16.8978635 C21.371056,16.8978635 21.0616175,16.8743618 20.7874273,16.8273578 C20.5132371,16.7803537 20.2821375,16.6863471 20.0941214,16.545335 C19.9061053,16.4043229 19.7611783,16.2123927 19.6593363,15.9695386 C19.5574942,15.7266844 19.506574,15.409412 19.506574,15.0177118 L19.506574,7.92013906 C19.506574,7.49710282 19.5966637,7.16024567 19.7768458,6.90955752 C19.9570279,6.65886937 20.2037953,6.42385276 20.5171555,6.20450063 C21.0498678,5.82846841 21.7118313,5.52294681 22.5030657,5.28792668 C23.2943002,5.05290654 24.1207753,4.93539823 24.9825158,4.93539823 Z M45.8286979,8.08465234 C45.4369976,8.08465234 45.064888,8.14732344 44.7123578,8.27266751 C44.3598276,8.39801158 44.054306,8.58210793 43.7957838,8.82496207 C43.5372617,9.06781622 43.3296637,9.36942087 43.1729836,9.72978508 C43.0163035,10.0901493 42.9379646,10.5131792 42.9379646,10.9988875 C42.9379646,11.9703041 43.2160676,12.6988556 43.7722819,13.1845638 C44.3284962,13.6702721 45.0061275,13.9131226 45.805196,13.9131226 C46.2752362,13.9131226 46.6825984,13.8582854 47.0272946,13.7486094 C47.3719908,13.6389333 47.6775124,13.521425 47.9438685,13.3960809 C48.2572287,13.615433 48.4922453,13.8543666 48.6489254,14.1128887 C48.8056055,14.3714109 48.8839444,14.6808494 48.8839444,15.0412137 C48.8839444,15.683602 48.5784228,16.1810539 47.9673704,16.5335841 C47.3563181,16.8861143 46.5102582,17.0623767 45.4291656,17.0623767 C44.442081,17.0623767 43.5490179,16.9174498 42.7499494,16.6275917 C41.950881,16.3377335 41.2654158,15.9303714 40.6935335,15.405493 C40.1216512,14.8806147 39.6790365,14.2499868 39.3656764,13.5135904 C39.0523162,12.777194 38.8956384,11.9624697 38.8956384,11.0693932 C38.8956384,10.0353046 39.064067,9.1304906 39.4009292,8.35492415 C39.7377914,7.57935769 40.1960738,6.94089589 40.7757901,6.4395196 C41.3555065,5.9381433 42.0253038,5.56211672 42.7852023,5.31142857 C43.5451007,5.06074042 44.3480742,4.93539823 45.1941466,4.93539823 C46.3222433,4.93539823 47.1918048,5.13907929 47.8028571,5.54644753 C48.4139095,5.95381577 48.7194311,6.47868621 48.7194311,7.12107459 C48.7194311,7.41876676 48.6489261,7.69686976 48.507914,7.95539191 C48.3669019,8.21391406 48.2023903,8.43717984 48.0143742,8.62519595 C47.7480181,8.49985188 47.4268287,8.37842663 47.0507965,8.26091656 C46.6747642,8.14340649 46.2674021,8.08465234 45.8286979,8.08465234 Z M55.77,14.1716435 C56.0363562,14.1716435 56.3301269,14.1442249 56.6513211,14.0893869 C56.9725153,14.0345488 57.2114489,13.9601269 57.368129,13.8661188 L57.368129,11.9859671 L55.6759924,12.1269785 C55.2372882,12.1583145 54.8769293,12.2523212 54.5949052,12.4090013 C54.312881,12.5656814 54.171871,12.800698 54.171871,13.1140582 C54.171871,13.4274183 54.2932963,13.6820197 54.5361504,13.8778698 C54.7790046,14.0737199 55.1902837,14.1716435 55.77,14.1716435 Z M55.5819848,4.93539823 C56.4280573,4.93539823 57.1996952,5.02157099 57.8969216,5.19391909 C58.594148,5.36626719 59.1895234,5.62870241 59.6830657,5.98123262 C60.176608,6.33376282 60.5565516,6.78029439 60.8229077,7.32084071 C61.0892639,7.86138703 61.2224399,8.49984883 61.2224399,9.23624526 L61.2224399,14.50067 C61.2224399,14.9080383 61.1088486,15.2409785 60.8816625,15.4995006 C60.6544763,15.7580228 60.3842072,15.9812886 60.070847,16.1693047 C59.0524264,16.780357 57.6188251,17.0858786 55.77,17.0858786 C54.9395955,17.0858786 54.1914593,17.0075398 53.5255689,16.8508597 C52.8596785,16.6941796 52.2878047,16.459163 51.8099305,16.1458028 C51.3320562,15.8324426 50.9638635,15.4329144 50.7053413,14.9472061 C50.4468192,14.4614978 50.3175601,13.8974579 50.3175601,13.2550695 C50.3175601,12.1739769 50.6387494,11.3435849 51.2811378,10.7638685 C51.9235262,10.1841522 52.9184298,9.82379337 54.2658786,9.68278129 L57.3446271,9.35375474 L57.3446271,9.18924147 C57.3446271,8.7348692 57.1448629,8.40976288 56.7453287,8.21391277 C56.3457945,8.01806265 55.7700038,7.92013906 55.0179393,7.92013906 C54.422555,7.92013906 53.8428473,7.98281016 53.278799,8.10815424 C52.7147507,8.23349831 52.205548,8.39017605 51.7511757,8.57819216 C51.5474916,8.43718008 51.3751461,8.22174818 51.234134,7.93189001 C51.0931219,7.64203184 51.0226169,7.34042719 51.0226169,7.027067 C51.0226169,6.61969876 51.1205405,6.29459245 51.3163906,6.05173831 C51.5122408,5.80888416 51.8138454,5.60128615 52.2212137,5.42893805 C52.6755859,5.25658995 53.2122072,5.13124776 53.8310936,5.05290771 C54.4499799,4.97456767 55.0336045,4.93539823 55.5819848,4.93539823 Z M69.142579,4.93539823 C69.7849674,4.93539823 70.4155953,5.02548793 71.0344817,5.20567004 C71.653368,5.38585214 72.1899893,5.65612125 72.6443616,6.01648546 C73.1144018,5.70312528 73.6431892,5.444607 74.2307396,5.24092288 C74.8182899,5.03723876 75.5272567,4.93539823 76.3576612,4.93539823 C76.9530455,4.93539823 77.5366701,5.0137371 78.1085525,5.17041719 C78.6804348,5.32709729 79.1896375,5.57386473 79.6361757,5.91072693 C80.082714,6.24758913 80.4391559,6.69412069 80.705512,7.25033502 C80.9718682,7.80654935 81.1050442,8.48418058 81.1050442,9.28324905 L81.1050442,16.6863464 C80.9483642,16.7333504 80.7015967,16.7803537 80.3647345,16.8273578 C80.0278723,16.8743618 79.6792643,16.8978635 79.3189001,16.8978635 C78.9742039,16.8978635 78.6647654,16.8743618 78.3905752,16.8273578 C78.1163851,16.7803537 77.8852854,16.6863471 77.6972693,16.545335 C77.5092532,16.4043229 77.3643263,16.2123927 77.2624842,15.9695386 C77.1606421,15.7266844 77.1097219,15.409412 77.1097219,15.0177118 L77.1097219,9.40075853 C77.1097219,8.93071826 76.9765458,8.58994417 76.7101896,8.37842604 C76.4438335,8.16690792 76.0834747,8.06115044 75.6291024,8.06115044 C75.4097503,8.06115044 75.1747337,8.11207071 74.9240455,8.21391277 C74.6733574,8.31575483 74.4853441,8.4215123 74.36,8.53118837 C74.375668,8.59386041 74.3835019,8.65261456 74.3835019,8.70745259 L74.3835019,16.6863464 C74.2111538,16.7333504 73.9565525,16.7803537 73.6196903,16.8273578 C73.2828281,16.8743618 72.942054,16.8978635 72.5973578,16.8978635 C72.2526616,16.8978635 71.943223,16.8743618 71.6690329,16.8273578 C71.3948427,16.7803537 71.163743,16.6863471 70.9757269,16.545335 C70.7877108,16.4043229 70.6427839,16.2123927 70.5409418,15.9695386 C70.4390998,15.7266844 70.3881795,15.409412 70.3881795,15.0177118 L70.3881795,9.40075853 C70.3881795,8.93071826 70.2432526,8.58994417 69.9533944,8.37842604 C69.6635363,8.16690792 69.3149283,8.06115044 68.9075601,8.06115044 C68.6255359,8.06115044 68.3826854,8.10423682 68.1790013,8.19041087 C67.9753171,8.27658492 67.8029716,8.35884074 67.6619595,8.43718078 L67.6619595,16.6863464 C67.5052795,16.7333504 67.258512,16.7803537 66.9216498,16.8273578 C66.5847876,16.8743618 66.2361796,16.8978635 65.8758154,16.8978635 C65.5311192,16.8978635 65.2216807,16.8743618 64.9474905,16.8273578 C64.6733004,16.7803537 64.4422007,16.6863471 64.2541846,16.545335 C64.0661685,16.4043229 63.9212416,16.2123927 63.8193995,15.9695386 C63.7175574,15.7266844 63.6666372,15.409412 63.6666372,15.0177118 L63.6666372,7.92013906 C63.6666372,7.49710282 63.7567269,7.16024567 63.936909,6.90955752 C64.1170911,6.65886937 64.3638585,6.42385276 64.6772187,6.20450063 C65.209931,5.82846841 65.8718945,5.52294681 66.663129,5.28792668 C67.4543634,5.05290654 68.2808385,4.93539823 69.142579,4.93539823 Z M83.4552339,2.11517067 C83.4552339,1.51978632 83.654998,1.01841754 84.0545322,0.611049305 C84.4540665,0.203681065 84.9828539,0 85.6409102,0 C86.2989666,0 86.827754,0.203681065 87.2272882,0.611049305 C87.6268225,1.01841754 87.8265866,1.51978632 87.8265866,2.11517067 C87.8265866,2.71055502 87.6268225,3.2119238 87.2272882,3.61929204 C86.827754,4.02666028 86.2989666,4.23034134 85.6409102,4.23034134 C84.9828539,4.23034134 84.4540665,4.02666028 84.0545322,3.61929204 C83.654998,3.2119238 83.4552339,2.71055502 83.4552339,2.11517067 Z M87.6385714,16.6863464 C87.4662233,16.7176824 87.211622,16.7607688 86.8747598,16.8156068 C86.5378976,16.8704449 86.1971235,16.8978635 85.8524273,16.8978635 C85.5077311,16.8978635 85.1982926,16.8743618 84.9241024,16.8273578 C84.6499122,16.7803537 84.4188126,16.6863471 84.2307965,16.545335 C84.0427803,16.4043229 83.8978534,16.2123927 83.7960114,15.9695386 C83.6941693,15.7266844 83.6432491,15.409412 83.6432491,15.0177118 L83.6432491,5.45243995 C83.8155972,5.42110393 84.0701985,5.37801755 84.4070607,5.32317952 C84.7439229,5.26834149 85.084697,5.24092288 85.4293932,5.24092288 C85.7740894,5.24092288 86.0835279,5.26442454 86.3577181,5.31142857 C86.6319082,5.3584326 86.8630079,5.45243924 87.051024,5.59345133 C87.2390401,5.73446341 87.383967,5.92639364 87.4858091,6.16924779 C87.5876512,6.41210193 87.6385714,6.72937436 87.6385714,7.12107459 L87.6385714,16.6863464 Z M94.2426043,16.6863464 C94.0702562,16.7176824 93.8156549,16.7607688 93.4787927,16.8156068 C93.1419305,16.8704449 92.8011564,16.8978635 92.4564602,16.8978635 C92.111764,16.8978635 91.8023254,16.8743618 91.5281353,16.8273578 C91.2539451,16.7803537 91.0228454,16.6863471 90.8348293,16.545335 C90.6468132,16.4043229 90.5018863,16.2123927 90.4000442,15.9695386 C90.2982022,15.7266844 90.2472819,15.409412 90.2472819,15.0177118 L90.2472819,1.38661188 C90.41963,1.35527587 90.6742314,1.31218949 91.0110936,1.25735145 C91.3479558,1.20251342 91.6887298,1.17509482 92.033426,1.17509482 C92.3781222,1.17509482 92.6875608,1.19859648 92.9617509,1.24560051 C93.2359411,1.29260453 93.4670408,1.38661118 93.6550569,1.52762326 C93.843073,1.66863534 93.9879999,1.86056558 94.089842,2.10341972 C94.191684,2.34627386 94.2426043,2.66354629 94.2426043,3.05524652 L94.2426043,16.6863464 Z M108.578761,10.9988875 C108.578761,11.9703041 108.429917,12.8359486 108.132225,13.595847 C107.834533,14.3557455 107.41542,14.9942073 106.874874,15.5112516 C106.334327,16.0282959 105.688032,16.4199902 104.935967,16.6863464 C104.183903,16.9527026 103.345677,17.0858786 102.421264,17.0858786 C101.496852,17.0858786 100.658626,16.9448687 99.9065613,16.6628445 C99.1544969,16.3808203 98.5082012,15.9773751 97.9676549,15.4524968 C97.4271085,14.9276185 97.0079956,14.2891567 96.7103034,13.5370923 C96.4126112,12.7850278 96.2637674,11.938968 96.2637674,10.9988875 C96.2637674,10.0744749 96.4126112,9.23624902 96.7103034,8.48418458 C97.0079956,7.73212013 97.4271085,7.09365833 97.9676549,6.56878003 C98.5082012,6.04390172 99.1544969,5.64045653 99.9065613,5.35843236 C100.658626,5.0764082 101.496852,4.93539823 102.421264,4.93539823 C103.345677,4.93539823 104.183903,5.08032514 104.935967,5.37018331 C105.688032,5.66004148 106.334327,6.06740361 106.874874,6.59228192 C107.41542,7.11716023 107.834533,7.75562203 108.132225,8.50768647 C108.429917,9.25975092 108.578761,10.0901429 108.578761,10.9988875 Z M100.353097,10.9988875 C100.353097,11.954636 100.537194,12.6871045 100.905392,13.1963148 C101.27359,13.7055251 101.78671,13.9601264 102.444766,13.9601264 C103.102823,13.9601264 103.608108,13.7016081 103.960638,13.1845638 C104.313169,12.6675195 104.489431,11.938968 104.489431,10.9988875 C104.489431,10.0588069 104.309252,9.33417237 103.948887,8.82496207 C103.588523,8.31575177 103.079321,8.06115044 102.421264,8.06115044 C101.763208,8.06115044 101.254005,8.31575177 100.893641,8.82496207 C100.533277,9.33417237 100.353097,10.0588069 100.353097,10.9988875 Z" id="iamcamilo-copy" fill="#303643"></path>
    </g>
</svg>