<?xml version="1.0" encoding="UTF-8" standalone="no"?>
<svg width="40px" height="40px" viewBox="0 0 40 40" version="1.1" xmlns="http://www.w3.org/2000/svg" xmlns:xlink="http://www.w3.org/1999/xlink">
    <!-- Generator: Sketch 42 (36781) - http://www.bohemiancoding.com/sketch -->
    <title>iamcamilo-iso</title>
    <desc>Created with Sketch.</desc>
    <defs></defs>
    <g id="Pages" stroke="none" stroke-width="1" fill="none" fill-rule="evenodd">
        <g id="Home" transform="translate(-34.000000, -34.000000)" fill="#303643">
            <path d="M55.1259721,34.4632793 C54.5043516,33.8416499 53.4896617,33.848472 52.8748368,34.4632793 L34.4632926,52.8742975 C33.8416454,53.4959269 33.8484677,54.5106167 34.4632926,55.1254328 L52.8748368,73.536714 C53.496484,74.1583523 54.5111736,74.1515301 55.1259721,73.536714 L73.5367273,55.1254328 C74.1583478,54.5037945 74.1515258,53.4891048 73.5367273,52.8742975 L55.1259721,34.4632793 Z M57.2862503,46.5808313 C57.7535569,46.1134645 58.509008,46.1112078 58.985794,46.587987 L65.5443598,53.1464591 C66.0156853,53.6177778 66.0131478,54.3844922 65.5456506,54.852005 L54.8525481,65.545464 C54.3819355,66.0160923 53.6157972,66.0129768 53.1482888,65.545464 L42.4549317,54.852005 C41.9843079,54.3813767 41.9794027,53.6232383 42.4561717,53.1464591 L49.0145033,46.587987 C49.4858119,46.1166682 50.2492556,46.1159561 50.7141374,46.5808313 L53.1541742,49.0208331 C53.6215476,49.4881998 54.3817467,49.4857083 54.8465621,49.0208331 L57.2862503,46.5808313 Z" id="iamcamilo-iso"></path>
        </g>
    </g>
</svg>