<?xml version="1.0" encoding="UTF-8" standalone="no"?>
<svg width="540px" height="540px" viewBox="0 0 540 540" version="1.1" xmlns="http://www.w3.org/2000/svg" xmlns:xlink="http://www.w3.org/1999/xlink">
    <!-- Generator: Sketch 42 (36781) - http://www.bohemiancoding.com/sketch -->
    <title>appdesign</title>
    <desc>Created with Sketch.</desc>
    <defs></defs>
    <g id="Services" stroke="none" stroke-width="1" fill="none" fill-rule="evenodd">
        <g id="appdesign">
            <rect id="Card-Copy-2" fill="#20DADA" transform="translate(270.000000, 270.000000) scale(-1, 1) translate(-270.000000, -270.000000) " x="0" y="0" width="540" height="540"></rect>
            <g id="Group-4-Copy" transform="translate(70.000000, 180.000000)">
                <g id="Group-6">
                    <path d="M399.051172,22.902561 L303.989825,22.902561 L303.989825,5.03903297 C303.989825,2.66843725 305.918005,0.746493927 308.295062,0.746493927 L394.746933,0.746493927 C397.12399,0.746493927 399.051172,2.66843725 399.051172,5.03903297 L399.051172,22.902561 Z M340.261646,11.824229 C340.261646,12.323616 340.667631,12.7284974 341.168379,12.7284974 L362.024239,12.7284974 C362.525985,12.7284974 362.93197,12.323616 362.93197,11.824229 C362.93197,11.3248421 362.525985,10.9199607 362.024239,10.9199607 L341.168379,10.9199607 C340.667631,10.9199607 340.261646,11.3248421 340.261646,11.824229 Z" id="Combined-Shape" fill="#FFFFFF"></path>
                    <path d="M394.746534,179.805159 L308.294663,179.805159 C305.917606,179.805159 303.990424,177.883216 303.990424,175.513615 L303.990424,157.650087 L399.050773,157.650087 L399.050773,175.513615 C399.050773,177.883216 397.124589,179.805159 394.746534,179.805159 Z M345.393317,168.727424 C345.393317,172.144544 348.170374,174.915047 351.596808,174.915047 C355.022244,174.915047 357.800299,172.144544 357.800299,168.727424 C357.800299,165.310304 355.022244,162.540796 351.596808,162.540796 C348.170374,162.540796 345.393317,165.310304 345.393317,168.727424 Z" id="Combined-Shape" fill="#FFFFFF"></path>
                    <path d="M303.990025,22.902561 L303.990025,5.03903297 C303.990025,2.66843725 305.918204,0.746493927 308.294264,0.746493927 L394.746135,0.746493927 C397.12419,0.746493927 399.051372,2.66843725 399.051372,5.03903297 L399.051372,22.902561 L399.051372,157.64949 L399.051372,175.513018 C399.051372,177.883614 397.12419,179.805557 394.746135,179.805557 L308.294264,179.805557 C305.918204,179.805557 303.990025,177.883614 303.990025,175.513018 L303.990025,157.64949 L303.990025,22.902561 Z" id="Stroke-9" stroke="#FFFFFF" stroke-width="1.49625935"></path>
                    <polygon id="Fill-11" fill="#FFFFFF" points="312.142643 49.2875651 390.898753 49.2875651 390.898753 29.1230769 312.142643 29.1230769"></polygon>
                    <polygon id="Fill-13" fill="#FFFFFF" points="377.970075 38.0996414 385.57606 38.0996414 385.57606 36.3110006 377.970075 36.3110006"></polygon>
                    <polygon id="Fill-14" fill="#FFFFFF" points="377.970075 35.3709196 385.57606 35.3709196 385.57606 33.5822788 377.970075 33.5822788"></polygon>
                    <polygon id="Fill-15" fill="#FFFFFF" points="377.970075 40.8283632 385.57606 40.8283632 385.57606 39.0397224 377.970075 39.0397224"></polygon>
                    <polygon id="Fill-16" fill="#23367F" points="325.841696 42.5416634 321.978354 42.5416634 318.11601 42.5416634 320.046185 39.205122 321.978354 35.8685807 323.909526 39.205122"></polygon>
                    <polygon id="Fill-17" fill="#E2E2E2" points="330.206484 42.2603355 357.258853 42.2603355 357.258853 36.1493117 330.206484 36.1493117"></polygon>
                    <polygon id="Fill-18" fill="#23367F" points="312.142643 89.2912435 390.898753 89.2912435 390.898753 53.9939387 312.142643 53.9939387"></polygon>
                    <polygon id="Fill-22" fill="#FFFFFF" points="312.142643 100.057906 390.898753 100.057906 390.898753 89.2912435 312.142643 89.2912435"></polygon>
                    <path d="M319.101646,93.4782348 C319.184439,92.8694205 319.70813,92.3998774 320.341546,92.3998774 C321.033815,92.3998774 321.593416,92.958952 321.593416,93.6483447 C321.616359,95.3275581 320.549027,95.1554586 319.113616,96.9490735 C317.676209,95.1554586 316.609875,95.3275581 316.609875,93.6483447 C316.609875,92.958952 317.169476,92.3998774 317.861746,92.3998774 C318.495162,92.3998774 319.018853,92.8694205 319.101646,93.4782348" id="Fill-23" fill="#FC2C6A"></path>
                    <polygon id="Fill-24" fill="#23367F" points="312.142643 140.061585 390.898753 140.061585 390.898753 104.76428 312.142643 104.76428"></polygon>
                    <polygon id="Fill-28" fill="#FFFFFF" points="312.142643 150.828248 390.898753 150.828248 390.898753 140.061585 312.142643 140.061585"></polygon>
                    <path d="M319.101646,144.24967 C319.184439,143.639861 319.70813,143.171313 320.341546,143.171313 C321.033815,143.171313 321.593416,143.730388 321.593416,144.418785 C321.616359,146.097999 320.549027,145.926894 319.113616,147.719514 C317.676209,145.926894 316.609875,146.097999 316.609875,144.418785 C316.609875,143.730388 317.169476,143.171313 317.861746,143.171313 C318.495162,143.171313 319.018853,143.639861 319.101646,144.24967" id="Fill-29" fill="#FC2C6A"></path>
                    <path d="M378.830224,144.874635 C378.830224,140.70943 382.215761,137.333097 386.392319,137.333097 C390.569875,137.333097 393.954414,140.70943 393.954414,144.874635 C393.954414,149.03984 390.569875,152.417168 386.392319,152.417168 C382.215761,152.417168 378.830224,149.03984 378.830224,144.874635" id="Fill-30" fill="#FC2C6A"></path>
                    <polygon id="Fill-31" fill="#FFFFFF" points="385.768579 148.045344 387.015461 148.045344 387.015461 141.703528 385.768579 141.703528"></polygon>
                    <polygon id="Fill-32" fill="#FFFFFF" points="383.212968 145.49668 389.57207 145.49668 389.57207 144.253187 383.212968 144.253187"></polygon>
                    <path d="M0.748129676,6.82359514 C0.748129676,3.46715789 3.47531172,0.746394448 6.83990025,0.746394448 L279.820449,0.746394448 C283.185037,0.746394448 285.913217,3.46715789 285.913217,6.82359514 L285.913217,173.730246 C285.913217,177.085689 283.185037,179.807447 279.820449,179.807447 L6.83990025,179.807447 C3.47531172,179.807447 0.748129676,177.085689 0.748129676,173.730246 L0.748129676,6.82359514 Z" id="Stroke-1" stroke="#FFFFFF" stroke-width="1.49625935"></path>
                    <path d="M0.748129676,6.82359514 C0.748129676,3.46715789 3.47531172,0.746394448 6.83990025,0.746394448 L279.820449,0.746394448 C283.185037,0.746394448 285.913217,3.46715789 285.913217,6.82359514 L285.913217,13.7105587 L0.748129676,13.7105587 L0.748129676,6.82359514 Z M7.69466334,7.22877501 C7.69466334,8.54787276 8.76698254,9.61727704 10.0896758,9.61727704 C11.4143641,9.61727704 12.4866833,8.54787276 12.4866833,7.22877501 C12.4866833,5.90868248 11.4143641,4.8392782 10.0896758,4.8392782 C8.76698254,4.8392782 7.69466334,5.90868248 7.69466334,7.22877501 Z M16.5806484,7.22877501 C16.5806484,8.54787276 17.6529676,9.61727704 18.9756608,9.61727704 C20.3003491,9.61727704 21.3726683,8.54787276 21.3726683,7.22877501 C21.3726683,5.90868248 20.3003491,4.8392782 18.9756608,4.8392782 C17.6529676,4.8392782 16.5806484,5.90868248 16.5806484,7.22877501 Z M25.4666334,7.22877501 C25.4666334,8.54787276 26.5389526,9.61727704 27.8626434,9.61727704 C29.1863342,9.61727704 30.2586534,8.54787276 30.2586534,7.22877501 C30.2586534,5.90868248 29.1863342,4.8392782 27.8626434,4.8392782 C26.5389526,4.8392782 25.4666334,5.90868248 25.4666334,7.22877501 Z" id="Combined-Shape" fill="#FFFFFF"></path>
                    <polygon id="Fill-11" fill="#FFFFFF" points="28.6413965 60.7332099 258.01995 60.7332099 258.01995 31.9368884 28.6413965 31.9368884"></polygon>
                    <polygon id="Fill-13" fill="#E2E2E2" points="54.5436409 49.8034008 85.2548628 49.8034008 85.2548628 42.8666975 54.5436409 42.8666975"></polygon>
                    <polygon id="Fill-14" fill="#23367F" points="48.19202 49.6706952 44.3286783 49.6706952 40.4653367 49.6706952 42.3965087 46.3341538 44.3286783 42.9986073 46.2598504 46.3341538"></polygon>
                    <polygon id="Fill-15" fill="#FFFFFF" points="242.230424 47.229867 249.836409 47.229867 249.836409 45.4412261 242.230424 45.4412261"></polygon>
                    <polygon id="Fill-16" fill="#FFFFFF" points="242.230424 44.5011452 249.836409 44.5011452 249.836409 42.7115095 242.230424 42.7115095"></polygon>
                    <polygon id="Fill-17" fill="#FFFFFF" points="242.230424 49.9585888 249.836409 49.9585888 249.836409 48.1689532 242.230424 48.1689532"></polygon>
                    <polygon id="Fill-18" fill="#FFFFFF" points="28.6413965 158.565298 135.982045 158.565298 135.982045 143.889092 28.6413965 143.889092"></polygon>
                    <polygon id="Fill-19" fill="#FFFFFF" points="150.678304 158.565298 258.01995 158.565298 258.01995 143.889092 150.678304 143.889092"></polygon>
                    <polygon id="Fill-20" fill="#23367F" points="28.6413965 144.836136 135.982045 144.836136 135.982045 70.1568999 28.6413965 70.1568999"></polygon>
                    <path d="M38.1253865,149.597025 C38.2381047,148.766371 38.9523192,148.125724 39.8161596,148.125724 C40.758803,148.125724 41.5218953,148.888731 41.5218953,149.827817 C41.5538155,152.11684 40.0994514,151.883063 38.1413466,154.328268 C36.1832419,151.883063 34.7288778,152.11684 34.7288778,149.827817 C34.7288778,148.888731 35.4919701,148.125724 36.4346135,148.125724 C37.2984539,148.125724 38.0126683,148.766371 38.1253865,149.597025" id="Fill-24" fill="#FC2C6A"></path>
                    <polygon id="Fill-25" fill="#23367F" points="150.678304 144.836136 258.01995 144.836136 258.01995 70.1568999 150.678304 70.1568999"></polygon>
                    <path d="M160.162095,149.597025 C160.274813,148.766371 160.989027,148.125724 161.852868,148.125724 C162.795511,148.125724 163.559601,148.888731 163.559601,149.827817 C163.591521,152.11684 162.13616,151.883063 160.178055,154.328268 C158.220948,151.883063 156.765586,152.11684 156.765586,149.827817 C156.765586,148.888731 157.528678,148.125724 158.472319,148.125724 C159.335162,148.125724 160.049377,148.766371 160.162095,149.597025" id="Fill-29" fill="#FC2C6A"></path>
                    <path d="M263.322195,161.280093 C263.322195,157.114887 266.707731,153.738554 270.884289,153.738554 C275.060848,153.738554 278.446384,157.114887 278.446384,161.280093 C278.446384,165.445298 275.060848,168.822626 270.884289,168.822626 C266.707731,168.822626 263.322195,165.445298 263.322195,161.280093" id="Fill-30" fill="#FC2C6A"></path>
                    <polygon id="Fill-31" fill="#FFFFFF" points="270.261347 164.450503 271.508229 164.450503 271.508229 158.108687 270.261347 158.108687"></polygon>
                    <polygon id="Fill-32" fill="#FFFFFF" points="267.704738 161.901839 274.06384 161.901839 274.06384 160.658346 267.704738 160.658346"></polygon>
                </g>
            </g>
        </g>
    </g>
</svg>