<?xml version="1.0" encoding="UTF-8" standalone="no"?>
<svg width="540px" height="540px" viewBox="0 0 540 540" version="1.1" xmlns="http://www.w3.org/2000/svg" xmlns:xlink="http://www.w3.org/1999/xlink">
    <!-- Generator: Sketch 42 (36781) - http://www.bohemiancoding.com/sketch -->
    <title>branding</title>
    <desc>Created with Sketch.</desc>
    <defs></defs>
    <g id="Services" stroke="none" stroke-width="1" fill="none" fill-rule="evenodd">
        <g id="branding">
            <rect id="Card-Copy-5" fill="#20DADA" transform="translate(270.000000, 405.000000) scale(-1, 1) translate(-270.000000, -405.000000) " x="0" y="270" width="540" height="270"></rect>
            <g id="Group-6" transform="translate(135.000000, 343.000000)">
                <polygon id="Fill-69" fill="#23367F" points="164.644788 0.314389381 74.2598082 123.238991 0.272093878 123.238991 90.6548694 0.314389381"></polygon>
                <polygon id="Fill-72" fill="#FFFFFF" points="0.271763265 0.314389381 74.2605796 0.314389381 74.4677633 0.59640708 37.4733551 50.9096814"></polygon>
                <path d="M198.094482,118.386092 C194.76742,121.619968 190.672237,123.238552 185.807829,123.238552 C181.050318,123.238552 177.030073,121.691296 173.742686,118.59788 L173.742686,123.238552 L151.666604,123.238552 L151.666604,91.5241805 L151.666604,89.3920389 L151.666604,78.1607115 L139.900114,57.6787646 L148.116931,57.6787646 L155.459829,70.267508 L162.802727,57.6787646 L171.020645,57.6787646 L159.253053,78.1607115 L159.253053,89.3920389 L159.253053,91.5241805 L159.253053,116.507437 L171.844971,116.507437 C169.636482,113.634588 168.532237,110.237207 168.532237,106.315296 C168.532237,101.50234 170.195216,97.4783752 173.521176,94.2444991 C175.289951,92.5260566 177.273624,91.2641097 179.4744,90.4586584 C177.273624,89.6532071 175.289951,88.3912602 173.521176,86.6728177 C170.195216,83.4378442 168.532237,79.4138796 168.532237,74.6020212 C168.532237,69.7890655 170.195216,65.7651009 173.521176,62.5312248 C176.848237,59.2962513 180.94342,57.6798619 185.807829,57.6798619 C190.672237,57.6798619 194.76742,59.2962513 198.094482,62.5312248 C201.421543,65.7651009 203.08342,69.7890655 203.08342,74.6020212 C203.08342,79.4138796 201.421543,83.4378442 198.094482,86.6728177 C196.326808,88.3912602 194.342033,89.6532071 192.140155,90.4586584 C194.342033,91.2641097 196.326808,92.5260566 198.094482,94.2444991 C201.421543,97.4783752 203.08342,101.50234 203.08342,106.315296 C203.08342,111.128251 201.421543,115.152216 198.094482,118.386092 L198.094482,118.386092 Z M195.598359,106.33834 C195.598359,103.417207 194.658318,100.925136 192.774931,98.8621274 C190.891543,96.7991186 188.577257,95.7687115 185.830971,95.7687115 C183.085788,95.7687115 180.7704,96.7991186 178.888114,98.8621274 C177.004727,100.925136 176.063584,103.417207 176.063584,106.33834 C176.063584,109.261667 177.004727,111.744959 178.888114,113.792605 C180.7704,115.840251 183.085788,116.86188 185.830971,116.86188 C188.577257,116.86188 190.891543,115.840251 192.774931,113.792605 C194.658318,111.744959 195.598359,109.261667 195.598359,106.33834 L195.598359,106.33834 Z M195.598359,74.6250655 C195.598359,71.7039327 194.658318,69.2107646 192.774931,67.1488531 C190.891543,65.0858442 188.577257,64.0543398 185.830971,64.0543398 C183.085788,64.0543398 180.7704,65.0858442 178.888114,67.1488531 C177.004727,69.2107646 176.063584,71.7039327 176.063584,74.6250655 C176.063584,77.5472956 177.004727,80.031685 178.888114,82.079331 C180.7704,84.1258796 183.085788,85.1486053 185.830971,85.1486053 C188.577257,85.1486053 190.891543,84.1258796 192.774931,82.079331 C194.658318,80.031685 195.598359,77.5472956 195.598359,74.6250655 L195.598359,74.6250655 Z M227.026359,106.198977 L234.406727,106.198977 C234.433176,101.437596 236.089543,97.4531363 239.387951,94.2444991 C240.509829,93.1537381 241.718767,92.247331 243.016971,91.5241805 L236.820196,91.5241805 L236.820196,57.6787646 L249.705257,57.6787646 C254.989543,57.6787646 258.75742,58.5665168 261.011094,60.3420212 C263.263665,62.1175257 264.389951,64.973915 264.389951,68.9122867 C264.389951,74.3353664 262.234359,77.838092 257.923176,79.4193664 L266.530114,91.5241805 L260.333339,91.5241805 C261.629339,92.247331 262.83938,93.1537381 263.961257,94.2444991 C267.287216,97.4783752 268.951298,101.50234 268.951298,106.315296 C268.951298,111.128251 267.287216,115.152216 263.961257,118.386092 C260.634196,121.619968 256.539012,123.238552 251.674604,123.238552 C246.810196,123.238552 242.715012,121.619968 239.387951,118.386092 C236.193135,115.279508 234.532359,111.445384 234.405624,106.882623 L234.406727,117.807791 C231.14689,121.426835 226.634033,123.238552 220.868155,123.238552 C216.041216,123.238552 211.991216,121.646304 208.715951,118.462906 C205.441788,115.280605 203.804155,111.262127 203.804155,106.409667 C203.804155,101.55611 205.471543,97.5069062 208.810727,94.2620566 C210.371216,92.7444283 212.081584,91.5801451 213.945135,90.7724991 C211.983502,90.1250655 210.24889,89.0738088 208.744604,87.6209239 C206.030278,84.9971717 204.673665,81.271685 204.673665,76.4400743 L204.673665,57.6787646 L212.190686,57.6787646 L212.190686,76.2008531 C212.190686,78.8882513 212.816645,81.0072248 214.069665,82.5588708 C215.322686,84.1094195 217.008808,84.8852425 219.129135,84.8852425 C221.249461,84.8852425 222.927869,84.1094195 224.164359,82.5588708 C225.400849,81.0072248 226.019094,78.8882513 226.019094,76.2008531 L226.019094,57.6787646 L233.536114,57.6787646 L233.536114,76.4400743 C233.536114,81.3024106 232.188318,85.0366761 229.488318,87.6439681 C228.451298,88.6458442 227.301869,89.4567823 226.040033,90.0734903 C228.65738,90.8043221 231.03889,92.1222336 233.184563,94.0283221 L229.377012,99.5040743 C227.903584,98.2245699 226.548073,97.3434018 225.310482,96.8594726 C224.071788,96.3755434 222.731706,96.1341274 221.291339,96.1341274 C218.502073,96.1341274 216.15142,97.0778442 214.23938,98.9663752 C212.327339,100.853809 211.371869,103.342588 211.371869,106.432712 C211.371869,109.521738 212.288767,111.995154 214.122563,113.851862 C215.955257,115.709667 218.140604,116.636924 220.679706,116.636924 C223.218808,116.636924 225.333624,116.154092 227.026359,115.186234 L227.026359,106.198977 Z M249.948808,74.1905168 C252.540808,74.1905168 254.308482,73.7702336 255.248522,72.9307646 C256.188563,72.0912956 256.659135,70.7613133 256.659135,68.9364283 C256.659135,67.1126407 256.172033,65.8616673 255.198931,65.1846053 C254.228033,64.506446 252.526482,64.1673664 250.094278,64.1673664 L244.404441,64.1673664 L244.404441,74.1905168 L249.948808,74.1905168 Z M256.041992,89.8748708 L249.656767,80.7274018 L244.404441,80.7274018 L244.404441,90.8350478 C246.600808,89.8748708 249.023094,89.3931363 251.674604,89.3931363 C253.206441,89.3931363 254.662237,89.5533487 256.041992,89.8748708 L256.041992,89.8748708 Z M261.466237,106.33834 C261.466237,103.417207 260.523992,100.925136 258.640604,98.8621274 C256.758318,96.7991186 254.444033,95.7687115 251.698849,95.7687115 C248.951461,95.7687115 246.637176,96.7991186 244.75489,98.8621274 C242.872604,100.925136 241.929257,103.417207 241.929257,106.33834 C241.929257,109.261667 242.872604,111.744959 244.75489,113.792605 C246.637176,115.840251 248.951461,116.86188 251.698849,116.86188 C254.444033,116.86188 256.758318,115.840251 258.640604,113.792605 C260.523992,111.744959 261.466237,109.261667 261.466237,106.33834 L261.466237,106.33834 Z" id="Fill-74" fill="#FFFFFF"></path>
            </g>
            <rect id="Card-Copy-5" fill="#FFFFFF" transform="translate(270.000000, 135.000000) scale(-1, 1) translate(-270.000000, -135.000000) " x="0" y="0" width="540" height="270"></rect>
            <g id="Page-1" transform="translate(135.000000, 73.000000)">
                <g id="Group-4" stroke="#23367F" stroke-width="0.550000012" opacity="0.349463619" stroke-dasharray="1.100000023841858,1.100000023841858">
                    <polyline id="Stroke-1" points="164.644788 57.5029699 268.950747 57.5029699 268.950747 123.062758 164.432094 123.062758"></polyline>
                    <path d="M164.204082,0.137716814 L164.204082,123.063416" id="Stroke-3"></path>
                    <path d="M73.8367347,0.137716814 L73.8367347,123.063416" id="Stroke-5"></path>
                    <path d="M81.5510204,0.137716814 L81.5510204,123.063416" id="Stroke-7"></path>
                    <path d="M65.0204082,0.137716814 L65.0204082,123.063416" id="Stroke-9"></path>
                    <path d="M49.5918367,0.137716814 L49.5918367,123.063416" id="Stroke-11"></path>
                    <path d="M57.3061224,0.137716814 L57.3061224,123.063416" id="Stroke-13"></path>
                    <path d="M40.7755102,0.137716814 L40.7755102,123.063416" id="Stroke-15"></path>
                    <path d="M24.244898,0.137716814 L24.244898,123.063416" id="Stroke-17"></path>
                    <path d="M33.0612245,0.137716814 L33.0612245,123.063416" id="Stroke-19"></path>
                    <path d="M16.5306122,0.137716814 L16.5306122,123.063416" id="Stroke-21"></path>
                    <path d="M7.71428571,0.137716814 L7.71428571,123.063416" id="Stroke-23"></path>
                    <path d="M155.387755,0.137716814 L155.387755,123.063416" id="Stroke-25"></path>
                    <path d="M147.673469,0.137716814 L147.673469,123.063416" id="Stroke-27"></path>
                    <path d="M131.142857,0.137716814 L131.142857,123.063416" id="Stroke-29"></path>
                    <path d="M138.857143,0.137716814 L138.857143,123.063416" id="Stroke-31"></path>
                    <path d="M123.428571,0.137716814 L123.428571,123.063416" id="Stroke-33"></path>
                    <path d="M106.897959,0.137716814 L106.897959,123.063416" id="Stroke-35"></path>
                    <path d="M114.612245,0.137716814 L114.612245,123.063416" id="Stroke-37"></path>
                    <path d="M98.0816327,0.137716814 L98.0816327,123.063416" id="Stroke-39"></path>
                    <path d="M90.3673469,0.137716814 L90.3673469,123.063416" id="Stroke-43"></path>
                    <path d="M0,0.137716814 L0,123.063416" id="Stroke-45"></path>
                    <path d="M164.644788,73.5221239 L0.483685714,73.5221239" id="Stroke-47"></path>
                    <path d="M164.644788,81.2035398 L0.483685714,81.2035398" id="Stroke-49"></path>
                    <path d="M164.644788,64.7433628 L0.483685714,64.7433628" id="Stroke-51"></path>
                    <path d="M164.644788,48.2831858 L0.483685714,48.2831858" id="Stroke-53"></path>
                    <path d="M164.644788,57.0619469 L0.483685714,57.0619469" id="Stroke-55"></path>
                    <path d="M164.644788,40.6017699 L0.483685714,40.6017699" id="Stroke-57"></path>
                    <path d="M164.644788,24.1415929 L0.483685714,24.1415929" id="Stroke-59"></path>
                    <path d="M164.644788,31.8230088 L0.483685714,31.8230088" id="Stroke-61"></path>
                    <path d="M164.644788,16.460177 L0.483685714,16.460177" id="Stroke-63"></path>
                    <path d="M164.644788,0 L0.483685714,0" id="Stroke-65"></path>
                    <path d="M164.644788,7.68141593 L0.483685714,7.68141593" id="Stroke-67"></path>
                    <path d="M164.644788,122.902655 L0.483685714,122.902655" id="Stroke-69"></path>
                    <path d="M164.644788,106.442478 L0.483685714,106.442478" id="Stroke-72"></path>
                    <path d="M164.644788,114.123894 L0.483685714,114.123894" id="Stroke-74"></path>
                    <path d="M164.644788,97.6637168 L0.483685714,97.6637168" id="Stroke-76"></path>
                    <path d="M164.644788,89.9823009 L0.483685714,89.9823009" id="Stroke-80"></path>
                </g>
                <polygon id="Stroke-82" stroke="#23367F" stroke-width="1.10000002" points="164.644788 0.137716814 74.2598082 123.063416 0.272093878 123.063416 90.6548694 0.137716814"></polygon>
                <polygon id="Stroke-84" stroke="#23367F" stroke-width="1.10000002" points="0.271763265 0.137716814 90.6556408 123.063416 164.644457 123.063416 74.2605796 0.137716814"></polygon>
                <path d="M0.271763265,101.329727 L74.676049,0.138046018" id="Stroke-86" stroke="#FC2C6A" stroke-width="1.10000002" stroke-dasharray="1.100000023841858"></path>
                <path d="M165.060257,21.870308 L90.6548694,123.063087" id="Stroke-88" stroke="#FC2C6A" stroke-width="1.10000002" stroke-dasharray="1.100000023841858"></path>
                <path d="M138.955237,48.2470256 L138.922669,123.063087" id="Stroke-88-Copy" stroke="#FC2C6A" stroke-width="1.10000002" stroke-dasharray="1.100000023841858"></path>
                <path d="M164.503213,57.0325675 L130.497149,57.0325675" id="Stroke-88-Copy-2" stroke="#FC2C6A" stroke-width="1.10000002" stroke-dasharray="1.100000023841858"></path>
                <path d="M198.094482,118.209968 C194.76742,121.444942 190.672237,123.061331 185.807829,123.061331 C181.050318,123.061331 177.030073,121.515172 173.742686,118.421756 L173.742686,123.061331 L151.666604,123.061331 L151.666604,91.3480566 L151.666604,89.2170124 L151.666604,77.9845876 L139.900114,57.5026407 L148.116931,57.5026407 L155.459829,70.0913841 L162.802727,57.5026407 L171.020645,57.5026407 L159.253053,77.9845876 L159.253053,89.2170124 L159.253053,91.3480566 L159.253053,116.331313 L171.844971,116.331313 C169.636482,113.457366 168.532237,110.061083 168.532237,106.139172 C168.532237,101.326216 170.195216,97.3033487 173.521176,94.0683752 C175.289951,92.3499327 177.273624,91.0879858 179.4744,90.2825345 C177.273624,89.4770832 175.289951,88.2151363 173.521176,86.4966938 C170.195216,83.2617204 168.532237,79.2377558 168.532237,74.4258973 C168.532237,69.6129416 170.195216,65.588977 173.521176,62.3551009 C176.848237,59.1201274 180.94342,57.5037381 185.807829,57.5037381 C190.672237,57.5037381 194.76742,59.1201274 198.094482,62.3551009 C201.421543,65.588977 203.08342,69.6129416 203.08342,74.4258973 C203.08342,79.2377558 201.421543,83.2617204 198.094482,86.4966938 C196.326808,88.2151363 194.342033,89.4770832 192.140155,90.2825345 C194.342033,91.0879858 196.326808,92.3499327 198.094482,94.0683752 C201.421543,97.3033487 203.08342,101.326216 203.08342,106.139172 C203.08342,110.952127 201.421543,114.976092 198.094482,118.209968 Z M195.598359,106.162216 C195.598359,103.241083 194.658318,100.749012 192.774931,98.6860035 C190.891543,96.6229947 188.577257,95.5925876 185.830971,95.5925876 C183.085788,95.5925876 180.7704,96.6229947 178.888114,98.6860035 C177.004727,100.749012 176.063584,103.241083 176.063584,106.162216 C176.063584,109.085543 177.004727,111.568835 178.888114,113.615384 C180.7704,115.66303 183.085788,116.686853 185.830971,116.686853 C188.577257,116.686853 190.891543,115.66303 192.774931,113.615384 C194.658318,111.568835 195.598359,109.085543 195.598359,106.162216 Z M195.598359,74.4489416 C195.598359,71.5267115 194.658318,69.0346407 192.774931,66.9727292 C190.891543,64.9097204 188.577257,63.8782159 185.830971,63.8782159 C183.085788,63.8782159 180.7704,64.9097204 178.888114,66.9727292 C177.004727,69.0346407 176.063584,71.5267115 176.063584,74.4489416 C176.063584,77.3711717 177.004727,79.8555611 178.888114,81.9021097 C180.7704,83.9497558 183.085788,84.9724814 185.830971,84.9724814 C188.577257,84.9724814 190.891543,83.9497558 192.774931,81.9021097 C194.658318,79.8555611 195.598359,77.3711717 195.598359,74.4489416 Z M227.026359,106.022853 L234.406727,106.022853 C234.433176,101.261473 236.089543,97.2770124 239.387951,94.0683752 C240.509829,92.9776142 241.718767,92.0712071 243.016971,91.3480566 L236.820196,91.3480566 L236.820196,57.5026407 L249.705257,57.5026407 C254.989543,57.5026407 258.75742,58.3903929 261.011094,60.1658973 C263.263665,61.9414018 264.389951,64.7977912 264.389951,68.7361628 C264.389951,74.1592425 262.234359,77.6619681 257.923176,79.2432425 L266.530114,91.3480566 L260.333339,91.3480566 C261.629339,92.0712071 262.83938,92.9776142 263.961257,94.0683752 C267.287216,97.3033487 268.951298,101.326216 268.951298,106.139172 C268.951298,110.952127 267.287216,114.976092 263.961257,118.209968 C260.634196,121.444942 256.539012,123.061331 251.674604,123.061331 C246.810196,123.061331 242.715012,121.444942 239.387951,118.209968 C236.193135,115.103384 234.532359,111.26926 234.405624,106.706499 L234.406727,117.631667 C231.14689,121.251809 226.634033,123.061331 220.868155,123.061331 C216.041216,123.061331 211.991216,121.470181 208.715951,118.286782 C205.441788,115.103384 203.804155,111.086004 203.804155,106.232446 C203.804155,101.379986 205.471543,97.3307823 208.810727,94.0859327 C210.371216,92.5672071 212.081584,91.4040212 213.945135,90.5963752 C211.983502,89.9489416 210.24889,88.897685 208.744604,87.4448 C206.030278,84.8210478 204.673665,81.0944637 204.673665,76.2639504 L204.673665,57.5026407 L212.190686,57.5026407 L212.190686,76.0247292 C212.190686,78.7110301 212.816645,80.8311009 214.069665,82.3827469 C215.322686,83.9332956 217.008808,84.7091186 219.129135,84.7091186 C221.249461,84.7091186 222.927869,83.9332956 224.164359,82.3827469 C225.400849,80.8311009 226.019094,78.7110301 226.019094,76.0247292 L226.019094,57.5026407 L233.536114,57.5026407 L233.536114,76.2639504 C233.536114,81.1262867 232.188318,84.8605522 229.488318,87.4678442 C228.451298,88.4708177 227.301869,89.2806584 226.040033,89.8973664 C228.65738,90.6281982 231.03889,91.9450124 233.184563,93.8511009 L229.377012,99.3279504 C227.903584,98.048446 226.548073,97.1672779 225.310482,96.6833487 C224.071788,96.1994195 222.731706,95.9580035 221.291339,95.9580035 C218.502073,95.9580035 216.15142,96.9017204 214.23938,98.7902513 C212.327339,100.677685 211.371869,103.166464 211.371869,106.256588 C211.371869,109.345614 212.288767,111.81903 214.122563,113.675738 C215.955257,115.533543 218.140604,116.4608 220.679706,116.4608 C223.218808,116.4608 225.333624,115.977968 227.026359,115.01011 L227.026359,106.022853 Z M249.948808,74.0143929 C252.540808,74.0143929 254.308482,73.5941097 255.248522,72.7546407 C256.188563,71.9151717 256.659135,70.584092 256.659135,68.7603044 C256.659135,66.9365168 256.172033,65.6855434 255.198931,65.0084814 C254.228033,64.3292248 252.526482,63.9912425 250.094278,63.9912425 L244.404441,63.9912425 L244.404441,74.0143929 L249.948808,74.0143929 Z M256.041992,89.6987469 L249.656767,80.5512779 L244.404441,80.5512779 L244.404441,90.6589239 C246.600808,89.6976496 249.023094,89.2170124 251.674604,89.2170124 C253.206441,89.2170124 254.662237,89.3772248 256.041992,89.6987469 Z M261.466237,106.162216 C261.466237,103.241083 260.523992,100.749012 258.640604,98.6860035 C256.758318,96.6229947 254.444033,95.5925876 251.698849,95.5925876 C248.951461,95.5925876 246.637176,96.6229947 244.75489,98.6860035 C242.872604,100.749012 241.929257,103.241083 241.929257,106.162216 C241.929257,109.085543 242.872604,111.568835 244.75489,113.615384 C246.637176,115.66303 248.951461,116.686853 251.698849,116.686853 C254.444033,116.686853 256.758318,115.66303 258.640604,113.615384 C260.523992,111.568835 261.466237,109.085543 261.466237,106.162216 Z" id="Stroke-90" stroke="#20DADA" stroke-width="1.10000002"></path>
            </g>
        </g>
    </g>
</svg>