<?xml version="1.0" encoding="UTF-8" standalone="no"?>
<svg width="540px" height="540px" viewBox="0 0 540 540" version="1.1" xmlns="http://www.w3.org/2000/svg" xmlns:xlink="http://www.w3.org/1999/xlink">
    <!-- Generator: Sketch 42 (36781) - http://www.bohemiancoding.com/sketch -->
    <title>webdesign</title>
    <desc>Created with Sketch.</desc>
    <defs></defs>
    <g id="Services" stroke="none" stroke-width="1" fill="none" fill-rule="evenodd">
        <g id="webdesign">
            <rect id="Card-Copy-4" fill="#20DADA" transform="translate(270.000000, 270.000000) scale(-1, 1) translate(-270.000000, -270.000000) " x="0" y="0" width="540" height="540"></rect>
            <g id="Group-6-Copy" transform="translate(161.000000, 92.000000)">
                <path d="M0.570187409,5.22816874 C0.570187409,2.65612591 2.64947083,0.571963169 5.21379367,0.571963169 L213.266056,0.571963169 C215.830379,0.571963169 217.909662,2.65612591 217.909662,5.22816874 L217.909662,133.128982 C217.909662,135.701025 215.830379,137.78595 213.266056,137.78595 L5.21379367,137.78595 C2.64947083,137.78595 0.570187409,135.701025 0.570187409,133.128982 L0.570187409,5.22816874 Z" id="Stroke-1" stroke="#FFFFFF" stroke-width="1.14224601"></path>
                <path d="M0.570187409,5.22816874 C0.570187409,2.65612591 2.64947083,0.571963169 5.21379367,0.571963169 L213.266056,0.571963169 C215.830379,0.571963169 217.909662,2.65612591 217.909662,5.22816874 L217.909662,10.5056591 L0.570187409,10.5056591 L0.570187409,5.22816874 Z M5.86517576,5.53858244 C5.86517576,6.54940899 6.68244438,7.36889507 7.69053572,7.36889507 C8.70014756,7.36889507 9.51741618,6.54940899 9.51741618,5.53858244 C9.51741618,4.52699358 8.70014756,3.70750749 7.69053572,3.70750749 C6.68244438,3.70750749 5.86517576,4.52699358 5.86517576,5.53858244 Z M12.6376337,5.53858244 C12.6376337,6.54940899 13.4549024,7.36889507 14.4637539,7.36889507 C15.4726055,7.36889507 16.2898742,6.54940899 16.2898742,5.53858244 C16.2898742,4.52699358 15.4726055,3.70750749 14.4637539,3.70750749 C13.4549024,3.70750749 12.6376337,4.52699358 12.6376337,5.53858244 Z M19.4101677,5.53858244 C19.4101677,6.54940899 20.2274363,7.36889507 21.2362879,7.36889507 C22.2451395,7.36889507 23.0624081,6.54940899 23.0624081,5.53858244 C23.0624081,4.52699358 22.2451395,3.70750749 21.2362879,3.70750749 C20.2274363,3.70750749 19.4101677,4.52699358 19.4101677,5.53858244 Z" id="Combined-Shape" fill="#FFFFFF"></path>
                <polygon id="Fill-11" fill="#FFFFFF" points="10.8236775 42.8518801 207.656933 42.8518801 207.656933 20.7852163 10.8236775 20.7852163"></polygon>
                <polygon id="Fill-13" fill="#23367F" points="65.3199093 127.505936 207.552778 127.505936 207.552778 50.0725054 65.3199093 50.0725054"></polygon>
                <polygon id="Fill-14" fill="#FC2C6A" points="10.8236775 127.505936 57.4095093 127.505936 57.4095093 50.0725054 10.8236775 50.0725054"></polygon>
                <path d="M125.317993,81.7207529 C125.317993,81.3197764 125.64262,80.994269 126.042512,80.994269 L148.494971,80.994269 C148.895623,80.994269 149.218729,81.3197764 149.218729,81.7207529 L149.218729,95.858603 C149.218729,96.2595794 148.895623,96.5850869 148.494971,96.5850869 L126.042512,96.5850869 C125.64262,96.5850869 125.317993,96.2595794 125.317993,95.858603 L125.317993,81.7207529 Z" id="Stroke-15" stroke="#FFFFFF" stroke-width="0.967101619"></path>
                <polygon id="Fill-16" fill="#FFFFFF" points="125.317993 88.8670527 131.479058 84.8862561 136.066406 91.9528942 140.82405 88.9501448 147.771213 96.5854681 125.317993 96.5854681"></polygon>
                <path d="M143.621922,84.886866 C143.621922,84.1161679 144.244566,83.4918338 145.012419,83.4918338 C145.781031,83.4918338 146.403676,84.1161679 146.403676,84.886866 C146.403676,85.657564 145.781031,86.2818981 145.012419,86.2818981 C144.244566,86.2818981 143.621922,85.657564 143.621922,84.886866" id="Fill-17" fill="#FFFFFF"></path>
                <polygon id="Fill-18" fill-opacity="0.22" fill="#303643" points="30.5658464 34.4763512 53.9724196 34.4763512 53.9724196 29.1599829 30.5658464 29.1599829"></polygon>
                <path d="M18.7797685,31.8182433 C18.7797685,29.6022004 20.570157,27.8054296 22.7809636,27.8054296 C24.9902498,27.8054296 26.7813985,29.6022004 26.7813985,31.8182433 C26.7813985,34.0335238 24.9902498,35.8302946 22.7809636,35.8302946 C20.570157,35.8302946 18.7797685,34.0335238 18.7797685,31.8182433" id="Fill-19" fill="#FC2C6A"></path>
                <polygon id="Fill-20" fill-opacity="0.22" fill="#303643" points="169.112355 34.2521799 178.22471 34.2521799 178.22471 30 169.112355 30"></polygon>
                <polygon id="Fill-20-Copy" fill-opacity="0.22" fill="#303643" points="158 34.2521799 167.112355 34.2521799 167.112355 30 158 30"></polygon>
                <polygon id="Fill-21" fill-opacity="0.22" fill="#303643" points="180.22471 34.2521799 189.337065 34.2521799 189.337065 30 180.22471 30"></polygon>
                <polygon id="Fill-22" fill-opacity="0.22" fill="#303643" points="191.337065 34.2521799 200.44942 34.2521799 200.44942 30 191.337065 30"></polygon>
                <path d="M217.909586,164.295753 L145.458533,164.295753 L145.458533,150.606905 C145.458533,148.790314 146.928096,147.317526 148.739772,147.317526 L214.629108,147.317526 C216.440784,147.317526 217.909586,148.790314 217.909586,150.606905 L217.909586,164.295753 Z M173.103119,155.806487 C173.103119,156.189168 173.412541,156.49943 173.794187,156.49943 L189.689491,156.49943 C190.071137,156.49943 190.381318,156.189168 190.381318,155.806487 C190.381318,155.423806 190.071137,155.113545 189.689491,155.113545 L173.794187,155.113545 C173.412541,155.113545 173.103119,155.423806 173.103119,155.806487 Z" id="Combined-Shape" fill="#FFFFFF"></path>
                <path d="M214.628804,284.530904 L148.739468,284.530904 C146.927792,284.530904 145.458989,283.058116 145.458989,281.241525 L145.458989,267.552677 L217.909282,267.552677 L217.909282,281.241525 C217.909282,283.058116 216.44124,284.530904 214.628804,284.530904 Z M177.014225,276.041943 C177.014225,278.660487 179.130761,280.782765 181.742219,280.782765 C184.352917,280.782765 186.470213,278.660487 186.470213,276.041943 C186.470213,273.422636 184.352917,271.30112 181.742219,271.30112 C179.130761,271.30112 177.014225,273.422636 177.014225,276.041943 Z" id="Combined-Shape" fill="#FFFFFF"></path>
                <path d="M145.458685,164.295753 L145.458685,150.606905 C145.458685,148.790314 146.928248,147.317526 148.739164,147.317526 L214.6285,147.317526 C216.440936,147.317526 217.909739,148.790314 217.909739,150.606905 L217.909739,164.295753 L217.909739,267.552524 L217.909739,281.241372 C217.909739,283.057963 216.440936,284.530751 214.6285,284.530751 L148.739164,284.530751 C146.928248,284.530751 145.458685,283.057963 145.458685,281.241372 L145.458685,267.552524 L145.458685,164.295753 Z" id="Stroke-27" stroke="#FFFFFF" stroke-width="1.14224601"></path>
                <polygon id="Fill-28" fill="#FFFFFF" points="151.672132 182.982475 211.69614 182.982475 211.69614 167.530398 151.672132 167.530398"></polygon>
                <path d="M155.713848,175.255903 C155.713848,173.303621 157.291366,171.721822 159.238366,171.721822 C161.184606,171.721822 162.762125,173.303621 162.762125,175.255903 C162.762125,177.208186 161.184606,178.790747 159.238366,178.790747 C157.291366,178.790747 155.713848,177.208186 155.713848,175.255903" id="Fill-29" fill="#FC2C6A"></path>
                <polygon id="Fill-30" fill-opacity="0.22" fill="#303643" points="201.842542 175.940994 207.638687 175.940994 207.638687 174.570355 201.842542 174.570355"></polygon>
                <polygon id="Fill-31" fill-opacity="0.22" fill="#303643" points="201.842542 173.84997 207.638687 173.84997 207.638687 172.479332 201.842542 172.479332"></polygon>
                <polygon id="Fill-32" fill-opacity="0.22" fill="#303643" points="201.842542 178.032779 207.638687 178.032779 207.638687 176.661379 201.842542 176.661379"></polygon>
                <polygon id="Fill-33" fill="#23367F" points="151.672132 261.862013 211.69614 261.862013 211.69614 186.588214 151.672132 186.588214"></polygon>
                <path d="M173.374833,219.309188 C173.374833,219.030944 173.599867,218.804537 173.878118,218.804537 L189.489849,218.804537 C189.768101,218.804537 189.993895,219.030944 189.993895,219.309188 L189.993895,229.139972 C189.993895,229.418978 189.768101,229.645385 189.489849,229.645385 L173.878118,229.645385 C173.599867,229.645385 173.374833,229.418978 173.374833,229.139972 L173.374833,219.309188 Z" id="Stroke-34" stroke="#FFFFFF" stroke-width="0.672402149"></path>
                <polygon id="Fill-35" fill="#FFFFFF" points="173.374833 224.278399 177.658841 221.510442 180.848089 226.424309 184.156697 224.335573 188.987324 229.64508 173.374833 229.64508"></polygon>
                <path d="M186.101568,221.510518 C186.101568,220.975375 186.53415,220.540857 187.068606,220.540857 C187.603822,220.540857 188.036404,220.975375 188.036404,221.510518 C188.036404,222.046424 187.603822,222.48018 187.068606,222.48018 C186.53415,222.48018 186.101568,222.046424 186.101568,221.510518" id="Fill-36" fill="#FFFFFF"></path>
                <path d="M137.819771,163.920238 L0.570339459,163.920238 L0.570339459,152.306405 C0.570339459,149.550645 2.7978716,147.317831 5.54617492,147.317831 L132.844695,147.317831 C135.592238,147.317831 137.819771,149.550645 137.819771,152.306405 L137.819771,163.920238 Z" id="Fill-37" fill="#FFFFFF"></path>
                <path d="M132.844771,355.312013 L5.54625094,355.312013 C2.79794763,355.312013 0.570415484,353.078437 0.570415484,350.323439 L0.570415484,338.709606 L137.819847,338.709606 L137.819847,350.323439 C137.819847,353.078437 135.592314,355.312013 132.844771,355.312013 Z M63.7332678,347.010733 C63.7332678,350.03559 66.1789917,352.487949 69.1956632,352.487949 C72.2115745,352.487949 74.6572983,350.03559 74.6572983,347.010733 C74.6572983,343.985877 72.2115745,341.533517 69.1956632,341.533517 C66.1789917,341.533517 63.7332678,343.985877 63.7332678,347.010733 Z" id="Combined-Shape" fill="#FFFFFF"></path>
                <path d="M0.570187409,163.920238 L0.570187409,152.306405 C0.570187409,149.550645 2.7984798,147.317831 5.54602287,147.317831 L132.844543,147.317831 C135.592847,147.317831 137.819619,149.550645 137.819619,152.306405 L137.819619,163.920238 L137.819619,337.297574 L137.819619,350.436033 C137.819619,353.19103 135.592847,355.424606 132.844543,355.424606 L5.54602287,355.424606 C2.7984798,355.424606 0.570187409,353.19103 0.570187409,350.436033 L0.570187409,337.297574 L0.570187409,163.920238 Z" id="Stroke-40" stroke="#FFFFFF" stroke-width="1.14224601"></path>
                <polygon id="Fill-41" fill="#FFFFFF" points="8.1331532 193.933859 130.257413 193.933859 130.257413 170.498081 8.1331532 170.498081"></polygon>
                <polygon id="Fill-42" fill-opacity="0.22" fill="#303643" points="30.0085832 185.766441 61.2791812 185.766441 61.2791812 178.663974 30.0085832 178.663974"></polygon>
                <path d="M14.2621357,182.215741 C14.2621357,179.254919 16.6554023,176.855159 19.6074526,176.855159 C22.5595029,176.855159 24.9535297,179.254919 24.9535297,182.215741 C24.9535297,185.176564 22.5595029,187.575561 19.6074526,187.575561 C16.6554023,187.575561 14.2621357,185.176564 14.2621357,182.215741" id="Fill-43" fill="#FC2C6A"></path>
                <polygon id="Fill-44" fill-opacity="0.22" fill="#303643" points="115.313941 183.255383 124.104711 183.255383 124.104711 181.175794 115.313941 181.175794"></polygon>
                <polygon id="Fill-45" fill-opacity="0.22" fill="#303643" points="115.313941 180.084163 124.104711 180.084163 124.104711 178.004574 115.313941 178.004574"></polygon>
                <polygon id="Fill-46" fill-opacity="0.22" fill="#303643" points="115.313941 186.426604 124.104711 186.426604 124.104711 184.347015 115.313941 184.347015"></polygon>
                <polygon id="Fill-47" fill="#FF286C" points="8.13239295 332.244814 130.257413 332.244814 130.257413 308.809036 8.13239295 308.809036"></polygon>
                <polygon id="Fill-48" fill="#23367F" points="8.13239295 302.776094 130.257413 302.776094 130.257413 199.401927 8.13239295 199.401927"></polygon>
                <path d="M56.5926208,243.633974 C56.5926208,243.210891 56.933973,242.86785 57.356672,242.86785 L81.0338942,242.86785 C81.4558329,242.86785 81.7979453,243.210891 81.7979453,243.633974 L81.7979453,258.544809 C81.7979453,258.967131 81.4558329,259.310171 81.0338942,259.310171 L57.356672,259.310171 C56.933973,259.310171 56.5926208,258.967131 56.5926208,258.544809 L56.5926208,243.633974 Z" id="Stroke-49" stroke="#FFFFFF" stroke-width="1.01964493"></path>
                <polygon id="Fill-50" fill="#FFFFFF" points="56.5926208 251.170731 63.0897163 246.972675 67.9271863 254.425043 72.9448355 251.257634 80.2713636 259.310705 56.5926208 259.310705"></polygon>
                <path d="M75.8950612,246.972827 C75.8950612,246.160964 76.5511568,245.501564 77.3623434,245.501564 C78.1720096,245.501564 78.8288654,246.160964 78.8288654,246.972827 C78.8288654,247.785453 78.1720096,248.444091 77.3623434,248.444091 C76.5511568,248.444091 75.8950612,247.785453 75.8950612,246.972827" id="Fill-51" fill="#FFFFFF"></path>
                <polygon id="Fill-52" fill="#FC2C6A" points="8.13239295 332.244814 130.257413 332.244814 130.257413 308.809036 8.13239295 308.809036"></polygon>
            </g>
        </g>
    </g>
</svg>